<svg id="sf" xmlns="http://www.w3.org/2000/svg" viewBox="0 0 7236.36 4836.42"><defs><style>.cls-1{fill:none;}.cls-2{fill:#fbe0b1;}.cls-3{fill:#fff6da;}.cls-4{fill:#feeba2;}.cls-5{fill:#faf7be;}.cls-6{fill:#fbe2c8;}.cls-7{fill:#fbe6d0;}.cls-8{fill:#feeaa4;}.cls-9{fill:#fee2c7;}.cls-10{fill:#fcf3bb;}.cls-11{fill:#fdeeb8;}.cls-12{fill:#feda9a;}.cls-13{fill:#fde2c7;}.cls-14{fill:#faf5da;}.cls-15{fill:#fdd496;}.cls-16{fill:#fdf8db;}.cls-17{fill:#fbe3c7;}.cls-18{fill:#fbd7ad;}.cls-19{fill:#fce79e;}.cls-20{fill:#fdf0d6;}.cls-21{fill:#fee1c9;}.cls-22{fill:#fbf8de;}.cls-23{fill:#ffda9c;}.cls-24{fill:#fddcb0;}.cls-25{fill:#fcf5b1;}.cls-26{fill:#f15b2d;}.cls-27{fill:#dcf1f8;}.cls-28{fill:#6d706f;}</style></defs><title>sf</title><g id="sky"><path class="cls-1" d="M1265.43,3542.79H1073.65q56.15,2.58,112.93,2.64t112.94-2.64Z" transform="translate(1231.62 1290.99)"/><path class="cls-2" d="M-1220,888.6q-11.53,117.76-11.66,238.62,0,105.93,9,209.61l2409.21-209.61Z" transform="translate(1231.62 1290.99)"/><path class="cls-3" d="M-1180.24,629.2A2414.11,2414.11,0,0,0-1220,888.6l2406.54,238.62Z" transform="translate(1231.62 1290.99)"/><path class="cls-3" d="M2398.89,3220a2424.38,2424.38,0,0,0,336.94-236L1186.59,1127.22Z" transform="translate(1231.62 1290.99)"/><path class="cls-4" d="M-1148.4,496q-17.76,65.87-31.84,133.19l2366.83,498Z" transform="translate(1231.62 1290.99)"/><path class="cls-5" d="M-1130,431.58q-9.61,32-18.36,64.43l2335,631.21Z" transform="translate(1231.62 1290.99)"/><path class="cls-5" d="M1932.51,3428.18A2405.3,2405.3,0,0,0,2398.89,3220l-1212.3-2092.8Z" transform="translate(1231.62 1290.99)"/><path class="cls-6" d="M-1068.43,252.26q-34.19,88.05-61.61,179.32l2316.63,695.64Z" transform="translate(1231.62 1290.99)"/><path class="cls-6" d="M-37.57,3213.1a2408.65,2408.65,0,0,0,316.82,156.3l907.34-2242.19Z" transform="translate(1231.62 1290.99)"/><path class="cls-7" d="M-939.78-25.4a2406.39,2406.39,0,0,0-128.65,277.66l2255,875Z" transform="translate(1231.62 1290.99)"/><path class="cls-8" d="M-881.59-126.61Q-911.86-76.78-939.78-25.4L1186.59,1127.22Z" transform="translate(1231.62 1290.99)"/><path class="cls-8" d="M279.25,3369.41a2404.77,2404.77,0,0,0,722.43,169l184.91-2411.24Z" transform="translate(1231.62 1290.99)"/><path class="cls-7" d="M-605.67-496.21a2426.94,2426.94,0,0,0-275.91,369.6L1186.59,1127.22Z" transform="translate(1231.62 1290.99)"/><path class="cls-9" d="M-559.75-545.48q-23.3,24.32-45.93,49.27L1186.59,1127.22Z" transform="translate(1231.62 1290.99)"/><path class="cls-9" d="M-1132.48,1814.71a2403,2403,0,0,0,186.17,452.93l2132.9-1140.42Z" transform="translate(1231.62 1290.99)"/><path class="cls-10" d="M-406.7-691.87q-79.68,69.85-153,146.39l1746.33,1672.7Z" transform="translate(1231.62 1290.99)"/><path class="cls-11" d="M-265.1-806.92q-73,54.87-141.6,115L1186.59,1127.22Z" transform="translate(1231.62 1290.99)"/><path class="cls-12" d="M-58.68-946.09A2422.72,2422.72,0,0,0-265.1-806.92L1186.59,1127.22Z" transform="translate(1231.62 1290.99)"/><path class="cls-12" d="M2735.83,2984a2432,2432,0,0,0,426.85-462.66L1186.59,1127.22Z" transform="translate(1231.62 1290.99)"/><path class="cls-13" d="M138.73-1052.78Q37.31-1003.94-58.68-946.09L1186.59,1127.22Z" transform="translate(1231.62 1290.99)"/><path class="cls-14" d="M192.76-1078q-27.19,12.27-54,25.19l1047.85,2180Z" transform="translate(1231.62 1290.99)"/><path class="cls-15" d="M293.83-1120.82q-51.11,20.32-101.07,42.85l993.83,2205.19Z" transform="translate(1231.62 1290.99)"/><path class="cls-15" d="M1265.43,3542.79h34.09a2411,2411,0,0,0,633-114.61l-745.92-2301Z" transform="translate(1231.62 1290.99)"/><path class="cls-16" d="M535.89-1202.39a2399.54,2399.54,0,0,0-242.06,81.57l892.76,2248Z" transform="translate(1231.62 1290.99)"/><path class="cls-17" d="M1194.57-1290.94c-2.66,0-5.32-.05-8-.05a2420.25,2420.25,0,0,0-650.69,88.6l650.69,2329.61Z" transform="translate(1231.62 1290.99)"/><path class="cls-18" d="M1457.37-1276a2443.91,2443.91,0,0,0-262.8-15l-8,2418.16Z" transform="translate(1231.62 1290.99)"/><path class="cls-16" d="M1700.95-1236.16A2412.12,2412.12,0,0,0,1457.37-1276L1186.59,1127.22Z" transform="translate(1231.62 1290.99)"/><path class="cls-19" d="M1902.26-1183.31q-98.92-30.6-201.32-52.84L1186.59,1127.22Z" transform="translate(1231.62 1290.99)"/><path class="cls-19" d="M-757.89,2565a2432.11,2432.11,0,0,0,322.23,355.52L1186.59,1127.22Z" transform="translate(1231.62 1290.99)"/><path class="cls-10" d="M2141.51-1095.08a2400.15,2400.15,0,0,0-239.25-88.23L1186.59,1127.22Z" transform="translate(1231.62 1290.99)"/><path class="cls-7" d="M2543.26-874.83a2413.18,2413.18,0,0,0-401.75-220.25l-954.92,2222.3Z" transform="translate(1231.62 1290.99)"/><path class="cls-7" d="M-946.31,2267.64A2419.89,2419.89,0,0,0-757.89,2565L1186.59,1127.22Z" transform="translate(1231.62 1290.99)"/><path class="cls-7" d="M3162.68,2521.34a2412.74,2412.74,0,0,0,272.25-502.13l-2248.35-892Z" transform="translate(1231.62 1290.99)"/><path class="cls-17" d="M2854.29-623.92a2429.65,2429.65,0,0,0-311-250.91l-1356.67,2002Z" transform="translate(1231.62 1290.99)"/><path class="cls-10" d="M2988.56-485.39q-64.38-71.89-134.27-138.52L1186.59,1127.22Z" transform="translate(1231.62 1290.99)"/><path class="cls-17" d="M3131.33-310.22Q3064-401.16,2988.56-485.39l-1802,1612.61Z" transform="translate(1231.62 1290.99)"/><path class="cls-20" d="M3472.27,335.79a2411.65,2411.65,0,0,0-340.93-646L1186.59,1127.22Z" transform="translate(1231.62 1290.99)"/><path class="cls-21" d="M3545.6,593.26a2399.56,2399.56,0,0,0-73.33-257.47L1186.59,1127.22Z" transform="translate(1231.62 1290.99)"/><path class="cls-21" d="M1186.59,1127.22,1001.68,3538.46q35.84,2.71,72,4.33h191.78Z" transform="translate(1231.62 1290.99)"/><path class="cls-22" d="M3557.05,646.85q-5.42-26.91-11.45-53.59l-2359,534Z" transform="translate(1231.62 1290.99)"/><path class="cls-23" d="M3580.83,785.58q-9.9-70-23.78-138.73L1186.59,1127.22Z" transform="translate(1231.62 1290.99)"/><path class="cls-17" d="M3600.7,986.14q-5.84-101.45-19.87-200.56L1186.59,1127.22Z" transform="translate(1231.62 1290.99)"/><path class="cls-2" d="M3604.73,1117.65q-.26-66.19-4-131.51L1186.59,1127.22Z" transform="translate(1231.62 1290.99)"/><path class="cls-16" d="M3595.54,1340q9.17-105.16,9.25-212.76c0-3.2,0-6.38-.06-9.57l-2418.15,9.57Z" transform="translate(1231.62 1290.99)"/><path class="cls-16" d="M-435.65,2920.55A2426.24,2426.24,0,0,0-37.57,3213.1L1186.59,1127.22Z" transform="translate(1231.62 1290.99)"/><path class="cls-24" d="M3434.93,2019.21A2404.18,2404.18,0,0,0,3595.54,1340l-2409-212.76Z" transform="translate(1231.62 1290.99)"/><path class="cls-25" d="M-1222.63,1336.83a2408.63,2408.63,0,0,0,90.15,477.88l2319.07-687.49Z" transform="translate(1231.62 1290.99)"/></g><circle id="sun" class="cls-26" cx="2418.21" cy="2427.66" r="178.13"/><path id="fog" class="cls-27" d="M6000,1227.92c-7.14-44.49-31.64-72-87.64-81-58.38-9.38-100.49,16.4-122.7,39.88-30.14-21.5-67-28.94-107.58-28.94-46,0-87.78,15.64-118.94,41.17-21.24-50.68-71-86.24-129-86.24A139.24,139.24,0,0,0,5325.51,1165a231.94,231.94,0,0,0-78.45-13.48c-78.66,0-146.86,38.37-180.8,94.52-37.28-41.09-90.21-66.79-149-66.79-61.75,0-117.07,28.38-154.54,73.18-31.91-36.2-78-58.95-129.3-58.95a169.86,169.86,0,0,0-61.21,11.38c-20.51-42.85-69.81-73.06-127.41-73.06-55.89,0-104,28.45-125.5,69.3a161.48,161.48,0,0,0-112.93-45.57c-68.14,0-133,41.63-156.12,100.29-24.93-42.16-84.25-71.82-153.48-71.82-4.66,0-9.26.17-13.83.43-23.06-49.88-72.56-84.37-129.92-84.37-57.19,0-106.57,34.28-129.72,83.91-28-39.89-77.24-66.4-133.41-66.4-68.84,0-127.35,39.8-148.9,95.27-5.28-.22-10.6-.37-16-.37a359.15,359.15,0,0,0-77.14,8.2c-25.3-39.2-70.7-65.34-122.52-65.34-55,0-101,29.41-125.16,72.62v1.31c-.07-.44-.13-.88-.2-1.31-7.14-44.49-31.64-72-87.64-81-58.38-9.38-100.49,16.4-122.7,39.88-30.14-21.5-67-28.94-107.58-28.94-46,0-87.78,15.64-118.94,41.17-21.24-50.68-71-86.24-129-86.24A139.24,139.24,0,0,0,2325.51,1165a231.94,231.94,0,0,0-78.45-13.48c-78.66,0-146.86,38.37-180.8,94.52-37.28-41.09-90.21-66.79-149-66.79-61.75,0-117.07,28.38-154.54,73.18-31.91-36.2-78-58.95-129.3-58.95a169.85,169.85,0,0,0-61.21,11.38c-20.52-42.85-69.82-73.06-127.41-73.06-55.89,0-104,28.45-125.51,69.3a161.48,161.48,0,0,0-112.93-45.57c-68.14,0-133,41.63-156.12,100.29C1025.34,1213.64,966,1184,896.79,1184c-4.66,0-9.26.17-13.83.43C859.91,1134.53,810.41,1100,753,1100c-57.19,0-106.57,34.28-129.72,83.91-28-39.89-77.24-66.4-133.41-66.4-68.84,0-127.35,39.8-148.9,95.27-5.28-.22-10.6-.37-16-.37a359.15,359.15,0,0,0-77.14,8.2c-25.3-39.2-70.7-65.34-122.52-65.34-55,0-101,29.41-125.16,72.62L0,1600H6000S6010.67,1294.35,6000,1227.92Z" transform="translate(1231.62 1290.99)"/><path id="bridge" class="cls-26" d="M2806.35,1324.18v48.93H2635.28v-48.93h-15.77v33.3c-60-23.14-127.81-67.53-196.71-128.94-68.7-61.23-135.87-137.62-189.14-215.11l-2.8,1.93v-3.47h-17.48l-1,.87q-12.07,10.48-24.84,21.69c-72.5,63.45-162.73,142.41-274.58,205.27-60.56,34-122.65,60.42-184.53,78.42a792.66,792.66,0,0,1-441.12,0c-61.89-18-124-44.38-184.53-78.42-111.86-62.87-202.08-141.83-274.58-205.27q-12.78-11.18-24.84-21.68l-1-.87H784.86v3.47l-2.8-1.93c-53.27,77.49-120.45,153.88-189.14,215.11C524,1290,456.23,1334.35,396.2,1357.48v-33.3H380.44v48.93H209.37v-48.93H193.6V1592h15.77v-67.89a91.58,91.58,0,0,1,8.11-23.83,90,90,0,0,1,48.46-43.37,79.09,79.09,0,0,1,57.2.27,90.57,90.57,0,0,1,48,43.31,92.48,92.48,0,0,1,9.31,31.82V1592H396.2V1409.69H2619.51V1592h15.77v-59.68a92.48,92.48,0,0,1,9.31-31.82,90.58,90.58,0,0,1,48-43.31,79.09,79.09,0,0,1,57.2-.27,90,90,0,0,1,48.46,43.37,91.59,91.59,0,0,1,8.11,23.83V1592h15.77V1324.18Zm-320.73-35.25q12.76,9.42,25.36,18v66.21h-25.36Zm-7.12,84.17h-25.36V1263.74q12.73,10.35,25.36,19.88Zm39.59-61.44q12.79,8.46,25.36,16v45.46h-25.36Zm32.47,20.17q12.82,7.43,25.36,13.83v27.44h-25.36Zm32.47,17.4q12.86,6.31,25.36,11.48v12.39H2583Zm-137-91.34V1373.1h-25.36V1236.16Q2433.38,1247.41,2446,1257.9Zm-32.47,115.21H2388.2V1206.19q12.61,12.12,25.36,23.61Zm-32.47-173.81V1373.1h-25.36V1173.75Q2368.29,1186.8,2381.08,1199.3Zm-90.3-98.44q12.44,15.09,25.36,29.82V1373.1h-25.36Zm-7.12,272.25H2258.3V1059.74q12.35,16.34,25.36,32.41Zm39.59-234.38q12.51,14,25.36,27.58v206.8h-25.36Zm-72.06-88.5V1373.1h-10.68V1253h-5.56v-90.3h-4.67V1092h-4.45v-73h3Q2239.66,1034.67,2251.19,1050.23ZM2216,1019h2.67v73h-4.45v70.73h-4.67V1253H2204V1373.1h-10.68V1038.81Q2205,1028.63,2216,1019Zm-250,197.2q12.89-8.2,25.36-16.6V1373.1H1966Zm-7.12,156.9h-25.36v-137q12.87-7.56,25.36-15.37Zm39.59-178.31q12.9-8.81,25.36-17.77V1373.1h-25.36Zm32.47-22.93q12.92-9.41,25.36-18.91V1373.1H2031Zm32.47-24.37q12.94-10,25.36-20V1373.1h-25.36Zm32.47-25.7q13-10.51,25.36-20.9V1373.1h-25.36Zm32.47-26.87q13-11,25.36-21.64V1373.1h-25.36Zm32.47-27.79q13-11.28,25.36-22.09V1373.1h-25.36Zm-244.44,178.8q5-2.83,10-5.71V1373.1H1901.1V1254.35C1906.22,1251.59,1911.34,1248.8,1916.44,1245.93Zm-145.23,66q12.69-4.43,25.36-9.31v70.52H1771.2Zm-7.12,61.21h-25.36v-50.62q12.68-3.84,25.36-8.13Zm39.59-73.3q12.69-5,25.36-10.5v83.8h-25.36Zm32.47-13.6q12.7-5.62,25.36-11.7v98.6h-25.36Zm32.47-15.15q12.71-6.23,25.36-12.9V1373.1h-25.36ZM1730.41,1325l1.21-.36v48.49h-25.36v-41.53Q1718.38,1328.46,1730.41,1325Zm-381.35,15.69q12.64,2.56,25.36,4.72v27.72h-25.36Zm-7.12,32.44h-25.36v-39.74q12.63,3.12,25.36,5.82Zm39.59-26.55q12.64,2,25.36,3.63v22.92h-25.36Zm32.47,4.5q12.65,1.49,25.36,2.58v19.47H1414Zm32.47,3.16q12.66,1,25.36,1.54v17.35h-25.36Zm32.47,1.83q12.66.45,25.36.51v16.56h-25.36Zm32.47.51q12.69-.06,25.36-.51v17.07h-25.36Zm32.47-.79q12.7-.57,25.36-1.54v18.9h-25.36Zm32.47-2.12q12.71-1.09,25.36-2.58v22.05h-25.36Zm32.47-3.45q12.71-1.61,25.36-3.63v26.55h-25.36Zm32.47-4.8q12.72-2.15,25.36-4.72v32.44h-25.36Zm32.47-6.2q12.73-2.7,25.36-5.82v39.74h-25.36Zm-364.32-7.61v41.53H1284.1v-48.49l1.21.36Q1297.34,1328.47,1309.46,1331.57Zm-155.25-57.07q12.65,6.07,25.36,11.7v86.9h-25.36Zm-7.12,98.6h-25.36V1258.16q12.64,6.67,25.36,12.9Zm39.59-83.8q12.66,5.47,25.36,10.5v73.3h-25.36Zm32.47,13.28q12.67,4.88,25.36,9.31v61.21h-25.36Zm32.47,11.78q12.68,4.3,25.36,8.13v50.62h-25.36Zm-137-60V1373.1h-25.36V1240.22q5,2.87,10,5.71C1104.38,1248.8,1109.5,1251.59,1114.62,1254.35ZM829.48,1045q12.34,10.79,25.36,22.09v306H829.48ZM862,1073.28q12.37,10.67,25.36,21.64V1373.1H862Zm32.47,27.62q12.4,10.38,25.36,20.9V1373.1H894.42Zm32.47,26.63q12.42,10,25.36,20V1373.1H926.9ZM959.37,1153q12.44,9.49,25.36,18.91V1373.1H959.37ZM991.84,1177q12.45,9,25.36,17.77V1373.1H991.84Zm32.47,22.59q12.47,8.39,25.36,16.6v156.9h-25.36Zm32.47,21.09q12.48,7.8,25.36,15.37v137h-25.36ZM822.36,1038.81V1373.1H811.68V1253h-5.56v-90.3h-4.67V1092H797v-73h2.67Q810.72,1028.61,822.36,1038.81Zm-35.5-19.8h3v73h-4.45v70.73h-4.67V1253h-5.56V1373.1H764.53V1050.23Q776,1034.68,786.86,1019Zm-87.28,111.67q12.9-14.71,25.36-29.82V1373.1H699.58Zm-7.12,242.43H667.11v-206.8q12.83-13.55,25.36-27.58Zm39.59-281q13-16.06,25.36-32.41V1373.1H732.06ZM660,1173.75V1373.1H634.64V1199.3Q647.42,1186.81,660,1173.75Zm-57.83,56q12.73-11.48,25.36-23.61V1373.1H602.17Zm-7.12,6.36V1373.1H569.69V1257.9Q582.33,1247.42,595,1236.16ZM439.8,1345.67q12.53-6.4,25.36-13.83v41.27H439.8Zm-7.12,27.44H407.33v-12.39q12.48-5.16,25.36-11.48Zm39.59-45.46q12.56-7.51,25.36-16v61.44H472.27Zm32.47-20.74q12.59-8.55,25.36-18v84.17H504.75Zm32.47-23.28q12.62-9.53,25.36-19.88V1373.1H537.22ZM380.44,1465.82a117.24,117.24,0,0,0-6.79-12,98.83,98.83,0,0,0-33-31.74,90.86,90.86,0,0,0-92,.27c-13.68,8-24.61,19.37-32.7,31.82a117.65,117.65,0,0,0-6.64,11.85v-56.3H380.44Zm15.77-100.71,4-1.54v9.54h-4Zm2219.31,8v-9.54l4,1.54v8Zm184.2,81c-8.08-12.45-19-23.84-32.7-31.82a90.86,90.86,0,0,0-92-.27,98.83,98.83,0,0,0-33,31.74,117.23,117.23,0,0,0-6.79,12v-56.13h171.06V1466A117.61,117.61,0,0,0,2799.71,1454.14Z" transform="translate(1231.62 1290.99)"/><circle class="cls-28" cx="2365.34" cy="2737.08" r="11.53"/><path class="cls-28" d="M2966.19,1546.89v-28.47h-60.5v17.79h-49.23v-73.55h-56.35v78.91c-11-12.07-26.82-21.88-45.67-28.11v-14.32h-18.09v-24h-7V1313.94h-4.23v-12.46h-30.25v12.46h-4.23v161.18h-7v24h-18.09v12.2c-18.39,5-34.31,13.35-46.26,23.87v-28.06h-83v30.25h-11.86V1399.2h-57.53V1385H2433v14.23h-6.52v131.08h-24.91v-40.33h-27.28v-52.79h-26.69V1163.73h-15.72v-19H2220.94v19h-15.72v271.06h-44.48v13.64h-17.2v34.4h-28.07l-3.89-40.06q-3-28.8-7.76-57.26c-5.89-34.5-12.84-69-24.95-102.47q0-.24,0-.47c2.63-7,5.66-14.12,8.51-21.46a196.12,196.12,0,0,0,13.12-52.79c.83-8.35,1.16-16.69,1.22-25h14.69l16-19.57h-30.92l-.12-8.87c-.23-17.6-.46-35.2-1-52.8s-.93-35.2-1.66-52.8h-6.52q-1.09,26.4-1.66,52.8c-.49,17.6-.72,35.2-1,52.8l-.12,8.87H2078c0-3.9-.06-7.81-.11-11.71q-.36-25.69-1.19-51.38t-2.1-51.38h-6.23q-1.43,25.69-2.1,51.38-.86,25.69-1.19,51.38c-.06,3.9-.07,7.81-.11,11.71h-11.63c-.23-19-.46-38.06-1-57.09s-.93-38.25-1.66-57.38h-6.52q-1.09,28.69-1.66,57.38c-.49,19-.72,38.06-1,57.09h-31l16,19.57h14.83c0,3.2,0,6.42.12,9.68a208.9,208.9,0,0,0,3,29.38,183.37,183.37,0,0,0,7.48,28.72c3.2,9.33,7.06,18.28,10.51,27,.55,1.42,1,2.88,1.55,4.31l-3.86,11-3.94,12.84c-4.9,17.19-8.84,34.55-12.28,52-5.93,29.82-10,60.08-13.14,90.2h-48.65V1303.71H1960v-28.47h-19V1226.6h-34.4v48.64h-19v28.47h-22.24v46.86h-30.84v-207h-21.95v-46.86h-30.25v-22.54h-33.81v22.54h-30.25v46.86h-21.95V1395H1688v-11h-3.71V1347.6H1679c-.19-1.31-.44-2.58-.69-3.86h5.38V1339h-6.46c-4.58-17.63-14.86-31.21-27.64-36.17v-8.61h-3.26v-8.3H1641v-36.18h-4.15v36.18h-5.34v8.3h-3.26v8.61c-12.79,5-23.07,18.54-27.64,36.17h-6.46v4.74h5.38c-.25,1.28-.5,2.55-.69,3.86h-5.29v36.48h-3.71v11h-10.38V1528.5h-13V1383.19h-9.49V1373.1h-60.5v10.08H1487V1559h-32V1537.7h-24l-32-199.21V1210.29H1379.3l-15.12-96.09-15.12,96.09h-19.57v128.19L1303.68,1499v-121.7H1280.4v-10.38h-18.68v-21.8H1255v-41.81h-6.67v74h-8v-74h-6.67v41.81H1227v21.8h-18.68v10.38h-23.28v114.47H1159V1412.3H1164v-7.69H1159v-38h-6.27v-9.31H1149V1331h-9.11v-18.87c3.09-.4,5.16-1.11,5.16-1.92s-2.07-1.52-5.16-1.92V1294.7c1.37-.25,2.23-.59,2.23-1s-1.09-.8-2.78-1.06c0-.19,0-.37,0-.56,0-3.07-1.58-5.64-3.74-6.53v-4.2h-1v-21.27c1.36-.14,2.78,1,3.76,2.1,1.21,1.37,3.32,3.43,6.61,2.57,3.09-3,.71-6.37,2.68-7.44a8,8,0,0,1-5.11-1.67c-3.23-2.13-2.65-5.86-7.94-6v-3a1.13,1.13,0,0,0,.59-.95,1.2,1.2,0,1,0-2.4,0,1.13,1.13,0,0,0,.59.95v34.72h-1v4.2c-2.16.88-3.74,3.45-3.74,6.53,0,.19,0,.37,0,.56-1.69.26-2.78.64-2.78,1.06s.85.72,2.23,1v13.55c-3.09.4-5.16,1.11-5.16,1.92s2.07,1.52,5.16,1.92V1331h-9.11v26.31h-3.64v9.31h-6.27v38h-5.06v7.69h5.06v92.48h-41v61.09h-32.62V1373.7H998.81v86.6L961.74,1433l-37.07,27.28V1363h-97v-18.39H761.57v178.68H743.18v-75.77H692.47v64.35H663.7v-62.28h-46v101.13H603.8v19.57H579.48V1458.81H518.54V1533H504.75v30.25H486.65V1516h-32v30.1H444.25V1495H402v75H376.63v-16.24h-8V1447.84H323.7v105.87H305.46v-29.36H285.59v-43.59H233.39v60.94H196v-12.9H176.45V1576H143.54V1473.64H82.15v80.07H39.44V1576H3v23.13H3003v-52.19ZM1146.41,1379.32h4.45v18.41h-4.45Zm-8.7-44.11h3.64v16.39h-3.64Zm5.87,44.11v18.41h-4.45v-18.41Zm-11.33-44.11h3.64v16.39h-3.64Zm-.4,44.11h4.45v18.41h-4.45Zm-5.06-44.11h3.64v16.39h-3.64Zm-2.23,44.11H1129v18.41h-4.45Zm9.16,50.38a16.39,16.39,0,1,1-16.39,16.39A16.41,16.41,0,0,1,1133.72,1429.7Zm-16.44-50.38h4.45v18.41h-4.45Zm499.12-26.82h12v27.88h-12Zm-17.35,0h12v27.88h-12Zm46.71,27.88h-12v-27.88h12Zm17.35,0h-12v-27.88h12Zm17.35,0h-12v-27.88h12ZM2079,1333.85c3.7,15.93,6.79,32,9.5,48.24H2079c0-8.18.05-16.37,0-24.55Q2079,1345.69,2079,1333.85Zm10.16-150.54c-.17,7.91-.57,15.8-1.46,23.6a179.62,179.62,0,0,1-9.07,38.94q-.23-31.27-.47-62.54Zm-32,36.74c-2.38-12.06-3.19-24.27-3.53-36.74h11.14q-.26,31.43-.47,62.86A170.32,170.32,0,0,1,2057.16,1220Zm1.08,140.95q2.6-13.56,5.69-27,0,11.77,0,23.54c0,8.18,0,16.37,0,24.55h-9.42C2055.71,1375.05,2056.92,1368,2058.24,1361Zm-5.84,34.22H2064q.08,26.61.31,53.22h-19Q2048.24,1421.66,2052.4,1395.21Zm26.27,53.22q.21-26.61.31-53.22h11.59q3.75,24.48,6.53,49.08l3.93,38.54h-13.85v-34.4Zm640.48-142.79h3v6.52h-3Zm-10.68,0h3v6.52h-3Zm-10.68,0h3v6.52h-3Zm4.3,44.93h-5.63V1321.5h5.63Zm4-38.4h-3v-6.52h3Zm6.67,38.4h-5.63V1321.5h5.63Zm4-38.4h-3v-6.52h3Zm6.67,38.4h-5.63V1321.5h5.63Z" transform="translate(1231.62 1290.99)"/></svg>