<?xml version="1.0" encoding="UTF-8"?>
<svg width="527px" height="121px" viewBox="0 0 527 121" version="1.1" xmlns="http://www.w3.org/2000/svg" xmlns:xlink="http://www.w3.org/1999/xlink">
    <title>body</title>
    <g id="body" stroke="none" stroke-width="1" fill="none" fill-rule="evenodd">
        <g id="typography" transform="translate(1.823597, 8.840909)" fill-rule="nonzero">
            <path d="M3.05989768,108.159091 L3.05989768,101.859763 L9.69637229,101.859763 L9.69637229,108.159091 L11.0094715,108.159091 L11.0094715,95.107949 L9.69637229,95.107949 L9.69637229,100.582153 L3.05989768,100.582153 L3.05989768,95.107949 L1.74679843,95.107949 L1.74679843,108.159091 L3.05989768,108.159091 Z M17.3600612,111.690263 L23.1181788,98.5060369 L21.7962073,98.5060369 L18.5755652,105.941018 L15.2573279,98.5060369 L13.9442287,98.5060369 L17.9101433,107.431563 L16.0469619,111.690263 L17.3600612,111.690263 Z M26.9845266,111.690263 L26.9845266,106.499972 C27.5050345,107.132862 28.0876483,107.609009 28.7323682,107.928411 C29.3770881,108.247814 30.0839141,108.407515 30.8528461,108.407515 C32.2191791,108.407515 33.3858855,107.912145 34.3529654,106.921406 C35.3200452,105.930667 35.8035851,104.725514 35.8035851,103.305947 C35.8035851,101.915955 35.3156091,100.727067 34.3396569,99.7392856 C33.3637048,98.7515037 32.1896048,98.2576127 30.8173569,98.2576127 C30.0306803,98.2576127 29.3179395,98.4261863 28.6791345,98.7633334 C28.0403294,99.1004805 27.4754601,99.6062012 26.9845266,100.280495 L26.9845266,100.280495 L26.9845266,98.5060369 L25.751278,98.5060369 L25.751278,111.690263 L26.9845266,111.690263 Z M30.7375063,107.271862 C30.0572972,107.271862 29.4110986,107.100331 28.7989104,106.757269 C28.1867222,106.414207 27.7164908,105.94989 27.3882159,105.364319 C27.0599411,104.778748 26.8958037,104.119241 26.8958037,103.385798 C26.8958037,102.267889 27.2640038,101.333341 28.0004041,100.582153 C28.7368044,99.8309659 29.6432569,99.4553722 30.7197617,99.4553722 C31.4118005,99.4553722 32.0506055,99.6254245 32.6361768,99.965529 C33.2217481,100.305634 33.6875434,100.783259 34.0335628,101.398404 C34.3795822,102.01355 34.5525919,102.664185 34.5525919,103.350309 C34.5525919,104.030518 34.3781035,104.681152 34.0291267,105.302213 C33.6801499,105.923273 33.2113971,106.406813 32.6228684,106.752833 C32.0343397,107.098852 31.4058856,107.271862 30.7375063,107.271862 Z M43.6979536,108.407515 C44.407737,108.407515 45.0435846,108.299569 45.6054965,108.083676 C46.1674083,107.867784 46.673129,107.552818 47.1226584,107.138777 C47.5721879,106.724737 47.9684836,106.18057 48.3115456,105.506276 L48.3115456,105.506276 L47.2646151,104.956193 C46.886064,105.589084 46.5341297,106.047485 46.2088123,106.331399 C45.883495,106.615312 45.4886779,106.843034 45.0243613,107.014565 C44.5600447,107.186096 44.0824196,107.271862 43.5914861,107.271862 C42.5741299,107.271862 41.7194325,106.912534 41.0273937,106.193878 C40.3353549,105.475223 39.9775057,104.553983 39.9538463,103.430159 L39.9538463,103.430159 L48.6309481,103.430159 C48.6191184,102.111145 48.2642267,101.010981 47.5662731,100.129666 C46.584406,98.8816306 45.2713068,98.2576127 43.6269753,98.2576127 C42.0299627,98.2576127 40.75531,98.8668435 39.8030173,100.085305 C39.0518299,101.043513 38.6762362,102.134804 38.6762362,103.359181 C38.6762362,104.66045 39.1198508,105.827157 40.00708,106.8593 C40.8943093,107.891443 42.1246005,108.407515 43.6979536,108.407515 Z M47.2646151,102.356612 L40.0780584,102.356612 C40.3323974,101.469383 40.7079911,100.803961 41.2048395,100.360346 C41.8850486,99.7511153 42.698342,99.4464999 43.6447199,99.4464999 C44.2184614,99.4464999 44.7655861,99.5677546 45.2860939,99.8102639 C45.8066018,100.052773 46.2250782,100.372176 46.5415233,100.768471 C46.8579684,101.164767 47.098999,101.694147 47.2646151,102.356612 L47.2646151,102.356612 Z M52.7545924,108.159091 L52.7545924,104.894087 C52.7545924,103.220182 52.8314856,102.108188 52.985272,101.558105 C53.1863773,100.842407 53.4791629,100.314506 53.8636289,99.9744013 C54.2480949,99.6342968 54.6473481,99.4642445 55.0613884,99.4642445 C55.2388342,99.4642445 55.4576841,99.5204357 55.717938,99.632818 L55.717938,99.632818 L56.3656153,98.5858876 C55.9752345,98.3670377 55.6085131,98.2576127 55.2654511,98.2576127 C54.8100068,98.2576127 54.372307,98.3951333 53.9523518,98.6701743 C53.5323967,98.9452154 53.1331435,99.3607344 52.7545924,99.9167314 L52.7545924,99.9167314 L52.7545924,98.5060369 L51.4858546,98.5060369 L51.4858546,108.159091 L52.7545924,108.159091 Z M59.4866906,108.159091 L59.4866906,94.7796742 L58.2445697,94.7796742 L58.2445697,108.159091 L59.4866906,108.159091 Z M63.5127396,96.5807495 C63.796653,96.5807495 64.0391623,96.4801969 64.2402676,96.2790916 C64.4413729,96.0779863 64.5419255,95.8384344 64.5419255,95.5604359 C64.5419255,95.2765225 64.4413729,95.0340132 64.2402676,94.8329079 C64.0391623,94.6318026 63.796653,94.53125 63.5127396,94.53125 C63.2347412,94.53125 62.9951893,94.6318026 62.794084,94.8329079 C62.5929787,95.0340132 62.492426,95.2765225 62.492426,95.5604359 C62.492426,95.8384344 62.5929787,96.0779863 62.794084,96.2790916 C62.9951893,96.4801969 63.2347412,96.5807495 63.5127396,96.5807495 Z M64.1426724,108.159091 L64.1426724,98.5060369 L62.8916792,98.5060369 L62.8916792,108.159091 L64.1426724,108.159091 Z M68.9672277,108.159091 L68.9672277,104.619046 C68.9672277,103.347351 69.0263764,102.471952 69.1446736,101.992848 C69.3339492,101.259405 69.7258087,100.644259 70.3202523,100.147411 C70.9146959,99.6505626 71.5875114,99.4021384 72.3386988,99.4021384 C72.9952484,99.4021384 73.527586,99.5633184 73.9357114,99.8856784 C74.3438369,100.208038 74.6218353,100.688621 74.7697069,101.327426 C74.8643447,101.700062 74.9116636,102.442377 74.9116636,103.554371 L74.9116636,103.554371 L74.9116636,108.159091 L76.1449122,108.159091 L76.1449122,103.190607 C76.1449122,101.877508 76.0118278,100.910428 75.745659,100.289368 C75.4794903,99.6683072 75.0669287,99.1744163 74.5079743,98.8076949 C73.9490199,98.4409735 73.3087361,98.2576127 72.587123,98.2576127 C71.8773396,98.2576127 71.22079,98.4217502 70.6174741,98.750025 C70.0141582,99.0782998 69.4640761,99.5736694 68.9672277,100.236134 L68.9672277,100.236134 L68.9672277,98.5060369 L67.7251068,98.5060369 L67.7251068,108.159091 L68.9672277,108.159091 Z M81.0581905,108.159091 L81.0581905,103.82054 L85.902462,108.159091 L87.6591759,108.159091 L82.0518872,103.110757 L87.3486457,98.5060369 L85.5209535,98.5060369 L81.0581905,102.392101 L81.0581905,94.7796742 L79.8071973,94.7796742 L79.8071973,108.159091 L81.0581905,108.159091 Z M101.336307,111.690263 L101.336307,94.7796742 L100.06757,94.7796742 L100.06757,111.690263 L101.336307,111.690263 Z M121.90721,108.487366 C123.107927,108.487366 124.194782,108.261122 125.167777,107.808635 C126.140772,107.356148 126.952587,106.715865 127.603221,105.887784 L127.603221,105.887784 L126.574036,105.107022 C125.343744,106.538419 123.814753,107.254117 121.98706,107.254117 C120.324984,107.254117 118.9483,106.72178 117.857008,105.657104 C116.765716,104.592429 116.22007,103.264543 116.22007,101.673445 C116.22007,100.6206 116.464058,99.6727434 116.952035,98.8298756 C117.440011,97.9870078 118.127613,97.3156711 119.014843,96.8158653 C119.902072,96.3160595 120.866194,96.0661566 121.90721,96.0661566 C122.859502,96.0661566 123.733423,96.2569108 124.528972,96.6384194 C125.324521,97.019928 126.006209,97.5803611 126.574036,98.3197188 L126.574036,98.3197188 L127.603221,97.5300848 C126.976246,96.6606001 126.171825,95.9848272 125.189958,95.502766 C124.208091,95.0207048 123.107927,94.7796742 121.889465,94.7796742 C119.872497,94.7796742 118.194155,95.4317877 116.854439,96.7360146 C115.514723,98.0402416 114.844865,99.6476052 114.844865,101.558105 C114.844865,103.373968 115.397905,104.923662 116.503984,106.207187 C117.822998,107.727306 119.624073,108.487366 121.90721,108.487366 Z M135.586313,108.407515 C136.296096,108.407515 136.931944,108.299569 137.493856,108.083676 C138.055768,107.867784 138.561488,107.552818 139.011018,107.138777 C139.460547,106.724737 139.856843,106.18057 140.199905,105.506276 L140.199905,105.506276 L139.152974,104.956193 C138.774423,105.589084 138.422489,106.047485 138.097172,106.331399 C137.771854,106.615312 137.377037,106.843034 136.912721,107.014565 C136.448404,107.186096 135.970779,107.271862 135.479845,107.271862 C134.462489,107.271862 133.607792,106.912534 132.915753,106.193878 C132.223714,105.475223 131.865865,104.553983 131.842205,103.430159 L131.842205,103.430159 L140.519307,103.430159 C140.507478,102.111145 140.152586,101.010981 139.454632,100.129666 C138.472765,98.8816306 137.159666,98.2576127 135.515334,98.2576127 C133.918322,98.2576127 132.643669,98.8668435 131.691377,100.085305 C130.940189,101.043513 130.564595,102.134804 130.564595,103.359181 C130.564595,104.66045 131.00821,105.827157 131.895439,106.8593 C132.782668,107.891443 134.01296,108.407515 135.586313,108.407515 Z M139.152974,102.356612 L131.966418,102.356612 C132.220757,101.469383 132.59635,100.803961 133.093199,100.360346 C133.773408,99.7511153 134.586701,99.4464999 135.533079,99.4464999 C136.106821,99.4464999 136.653945,99.5677546 137.174453,99.8102639 C137.694961,100.052773 138.113437,100.372176 138.429882,100.768471 C138.746328,101.164767 138.987358,101.694147 139.152974,102.356612 L139.152974,102.356612 Z M145.086566,108.159091 L145.086566,104.619046 C145.086566,103.347351 145.145715,102.471952 145.264012,101.992848 C145.453288,101.259405 145.845147,100.644259 146.439591,100.147411 C147.034034,99.6505626 147.70685,99.4021384 148.458037,99.4021384 C149.114587,99.4021384 149.646924,99.5633184 150.05505,99.8856784 C150.463175,100.208038 150.741174,100.688621 150.889045,101.327426 C150.983683,101.700062 151.031002,102.442377 151.031002,103.554371 L151.031002,103.554371 L151.031002,108.159091 L152.264251,108.159091 L152.264251,103.190607 C152.264251,101.877508 152.131166,100.910428 151.864997,100.289368 C151.598829,99.6683072 151.186267,99.1744163 150.627313,98.8076949 C150.068358,98.4409735 149.428075,98.2576127 148.706461,98.2576127 C147.996678,98.2576127 147.340128,98.4217502 146.736813,98.750025 C146.133497,99.0782998 145.583415,99.5736694 145.086566,100.236134 L145.086566,100.236134 L145.086566,98.5060369 L143.844445,98.5060369 L143.844445,108.159091 L145.086566,108.159091 Z M158.268821,108.159091 L158.268821,99.570712 L160.23847,99.570712 L160.23847,98.5060369 L158.268821,98.5060369 L158.268821,94.9216309 L157.017828,94.9216309 L157.017828,98.5060369 L155.32322,98.5060369 L155.32322,99.570712 L157.017828,99.570712 L157.017828,108.159091 L158.268821,108.159091 Z M167.174631,108.407515 C168.115094,108.407515 168.897334,108.216761 169.521352,107.835252 C170.14537,107.453744 170.612644,106.925842 170.923174,106.251548 C171.233704,105.577254 171.388969,104.574685 171.388969,103.243841 L171.388969,103.243841 L171.388969,98.5060369 L170.120232,98.5060369 L170.120232,103.013161 C170.120232,104.219793 170.058126,105.009427 169.933914,105.382063 C169.750553,105.926231 169.417842,106.365409 168.935781,106.699599 C168.453719,107.033789 167.866669,107.200883 167.174631,107.200883 C166.482592,107.200883 165.88667,107.029352 165.386864,106.68629 C164.887058,106.343228 164.548432,105.875954 164.370986,105.284468 C164.252689,104.870428 164.19354,104.113326 164.19354,103.013161 L164.19354,103.013161 L164.19354,98.5060369 L162.942547,98.5060369 L162.942547,103.155118 C162.942547,104.527366 163.097812,105.555073 163.408343,106.23824 C163.718873,106.921406 164.189104,107.453744 164.819037,107.835252 C165.44897,108.216761 166.234168,108.407515 167.174631,108.407515 Z M175.956228,108.159091 L175.956228,104.894087 C175.956228,103.220182 176.033122,102.108188 176.186908,101.558105 C176.388013,100.842407 176.680799,100.314506 177.065265,99.9744013 C177.449731,99.6342968 177.848984,99.4642445 178.263024,99.4642445 C178.44047,99.4642445 178.65932,99.5204357 178.919574,99.632818 L178.919574,99.632818 L179.567251,98.5858876 C179.17687,98.3670377 178.810149,98.2576127 178.467087,98.2576127 C178.011643,98.2576127 177.573943,98.3951333 177.153988,98.6701743 C176.734033,98.9452154 176.33478,99.3607344 175.956228,99.9167314 L175.956228,99.9167314 L175.956228,98.5060369 L174.687491,98.5060369 L174.687491,108.159091 L175.956228,108.159091 Z M184.010298,111.690263 L189.768416,98.5060369 L188.446444,98.5060369 L185.225802,105.941018 L181.907565,98.5060369 L180.594466,98.5060369 L184.56038,107.431563 L182.697199,111.690263 L184.010298,111.690263 Z M205.432941,108.487366 C207.420334,108.487366 209.006996,107.894401 210.192925,106.708471 C211.378855,105.522541 211.977735,103.921093 211.989565,101.904125 L211.989565,101.904125 L206.364531,101.904125 L206.364531,103.16399 L210.525636,103.16399 C210.354105,104.370622 209.804023,105.352489 208.87539,106.109591 C207.946757,106.866694 206.811103,107.245245 205.46843,107.245245 C204.362351,107.245245 203.344995,106.992384 202.416361,106.486664 C201.487728,105.980943 200.7602,105.285947 200.233777,104.401675 C199.707355,103.517403 199.444143,102.584334 199.444143,101.602467 C199.444143,100.644259 199.698482,99.7348494 200.207161,98.8742371 C200.715839,98.0136247 201.433016,97.3319369 202.358691,96.8291737 C203.284367,96.3264105 204.258841,96.0750289 205.282112,96.0750289 C206.104277,96.0750289 206.948624,96.2598683 207.815151,96.6295471 C208.681678,96.999226 209.478706,97.5419145 210.206234,98.2576127 L210.206234,98.2576127 L211.217675,97.2994052 C210.289042,96.4180908 209.336749,95.7778071 208.360797,95.3785539 C207.384845,94.9793008 206.343829,94.7796742 205.23775,94.7796742 C203.871417,94.7796742 202.647041,95.0798534 201.564621,95.6802118 C200.482202,96.2805703 199.630462,97.113087 199.009401,98.1777621 C198.388341,99.2424372 198.07781,100.392878 198.07781,101.629084 C198.07781,103.29116 198.61902,104.755088 199.70144,106.020868 C201.109177,107.6652 203.019677,108.487366 205.432941,108.487366 Z M219.848444,108.407515 C221.321244,108.407515 222.526397,107.903273 223.463903,106.894789 C224.401409,105.886305 224.870161,104.707769 224.870161,103.359181 C224.870161,102.016507 224.426547,100.854237 223.539318,99.8723699 C222.563365,98.7958651 221.333074,98.2576127 219.848444,98.2576127 C218.357899,98.2576127 217.12465,98.7988226 216.148698,99.8812422 C215.261469,100.863109 214.817854,102.022422 214.817854,103.359181 C214.817854,104.707769 215.286607,105.886305 216.224113,106.894789 C217.161618,107.903273 218.369729,108.407515 219.848444,108.407515 Z M219.848444,107.2275 C219.16232,107.2275 218.532387,107.063363 217.958646,106.735088 C217.384904,106.406813 216.92946,105.941018 216.592313,105.337702 C216.255166,104.734386 216.086592,104.083751 216.086592,103.385798 C216.086592,102.303378 216.456271,101.38066 217.195629,100.617642 C217.934986,99.8546254 218.819258,99.4731168 219.848444,99.4731168 C220.871715,99.4731168 221.754508,99.8546254 222.496823,100.617642 C223.239138,101.38066 223.610296,102.303378 223.610296,103.385798 C223.610296,104.083751 223.441722,104.734386 223.104575,105.337702 C222.767428,105.941018 222.311984,106.406813 221.738242,106.735088 C221.164501,107.063363 220.534568,107.2275 219.848444,107.2275 Z M230.51984,108.159091 L230.51984,99.570712 L232.489489,99.570712 L232.489489,98.5060369 L230.51984,98.5060369 L230.51984,94.9216309 L229.268847,94.9216309 L229.268847,98.5060369 L227.574239,98.5060369 L227.574239,99.570712 L229.268847,99.570712 L229.268847,108.159091 L230.51984,108.159091 Z M236.595388,108.159091 L236.595388,104.619046 C236.595388,103.341436 236.654537,102.466037 236.772834,101.992848 C236.96211,101.259405 237.353969,100.644259 237.948413,100.147411 C238.542857,99.6505626 239.215672,99.4021384 239.96686,99.4021384 C240.623409,99.4021384 241.154268,99.5633184 241.559436,99.8856784 C241.964604,100.208038 242.244081,100.688621 242.397868,101.327426 C242.486591,101.700062 242.530952,102.442377 242.530952,103.554371 L242.530952,103.554371 L242.530952,108.159091 L243.773073,108.159091 L243.773073,103.190607 C243.773073,101.871593 243.639989,100.903035 243.37382,100.284932 C243.107651,99.6668285 242.695089,99.1744163 242.136135,98.8076949 C241.577181,98.4409735 240.936897,98.2576127 240.215284,98.2576127 C239.511415,98.2576127 238.857823,98.4217502 238.254507,98.750025 C237.651191,99.0782998 237.098152,99.5736694 236.595388,100.236134 L236.595388,100.236134 L236.595388,94.7796742 L235.353268,94.7796742 L235.353268,108.159091 L236.595388,108.159091 Z M247.878973,96.5807495 C248.162886,96.5807495 248.405395,96.4801969 248.606501,96.2790916 C248.807606,96.0779863 248.908158,95.8384344 248.908158,95.5604359 C248.908158,95.2765225 248.807606,95.0340132 248.606501,94.8329079 C248.405395,94.6318026 248.162886,94.53125 247.878973,94.53125 C247.600974,94.53125 247.361422,94.6318026 247.160317,94.8329079 C246.959212,95.0340132 246.858659,95.2765225 246.858659,95.5604359 C246.858659,95.8384344 246.959212,96.0779863 247.160317,96.2790916 C247.361422,96.4801969 247.600974,96.5807495 247.878973,96.5807495 Z M248.508905,108.159091 L248.508905,98.5060369 L247.257912,98.5060369 L247.257912,108.159091 L248.508905,108.159091 Z M256.944484,108.407515 C257.93818,108.407515 258.823931,108.216761 259.601735,107.835252 C260.379539,107.453744 260.999121,106.91697 261.46048,106.224931 L261.46048,106.224931 L260.475656,105.577254 C259.576597,106.706992 258.417284,107.271862 256.997717,107.271862 C256.222871,107.271862 255.523438,107.100331 254.89942,106.757269 C254.275402,106.414207 253.784469,105.932146 253.42662,105.311085 C253.068771,104.690025 252.889846,104.02756 252.889846,103.323692 C252.889846,102.241272 253.278748,101.321511 254.056553,100.564409 C254.834357,99.8073065 255.811788,99.4287553 256.988845,99.4287553 C258.461646,99.4287553 259.623916,99.9936246 260.475656,101.123363 L260.475656,101.123363 L261.46048,100.511175 C261.170652,100.026156 260.818718,99.6269032 260.404678,99.3134155 C259.990637,98.9999279 259.486395,98.7455888 258.891952,98.5503984 C258.297508,98.355208 257.680884,98.2576127 257.042079,98.2576127 C256.024723,98.2576127 255.104962,98.4823775 254.282796,98.931907 C253.46063,99.3814364 252.814432,100.006933 252.3442,100.808397 C251.873969,101.609861 251.638853,102.477866 251.638853,103.412415 C251.638853,104.802407 252.141616,105.982422 253.147143,106.952459 C254.152669,107.922496 255.418449,108.407515 256.944484,108.407515 Z M272.475924,108.159091 L272.475924,102.090443 L273.221197,102.090443 L277.905767,108.159091 L279.520524,108.159091 L274.827082,102.090443 C275.921331,102.084528 276.778986,101.94405 277.400046,101.669009 C278.021107,101.393968 278.498732,100.987321 278.832922,100.449069 C279.167111,99.9108165 279.334206,99.2867987 279.334206,98.5770153 C279.334206,97.7252752 279.091697,97.0080983 278.606678,96.4254844 C278.121659,95.8428705 277.491727,95.4628407 276.71688,95.2853948 C276.202287,95.1670976 275.22042,95.107949 273.771279,95.107949 L273.771279,95.107949 L271.171697,95.107949 L271.171697,108.159091 L272.475924,108.159091 Z M274.720614,100.83945 L272.475924,100.821705 L272.475924,96.3855591 L274.773848,96.3855591 C275.666992,96.3855591 276.305797,96.4624523 276.690263,96.6162387 C277.074729,96.7700251 277.385259,97.0258428 277.621854,97.383692 C277.858448,97.7415411 277.976745,98.1393155 277.976745,98.5770153 C277.976745,99.0265447 277.859927,99.4331915 277.62629,99.7969555 C277.392653,100.160719 277.067335,100.425409 276.650338,100.591026 C276.23334,100.756642 275.590099,100.83945 274.720614,100.83945 L274.720614,100.83945 Z M287.494743,108.407515 C288.204527,108.407515 288.840374,108.299569 289.402286,108.083676 C289.964198,107.867784 290.469919,107.552818 290.919448,107.138777 C291.368978,106.724737 291.765273,106.18057 292.108335,105.506276 L292.108335,105.506276 L291.061405,104.956193 C290.682854,105.589084 290.330919,106.047485 290.005602,106.331399 C289.680285,106.615312 289.285468,106.843034 288.821151,107.014565 C288.356834,107.186096 287.879209,107.271862 287.388276,107.271862 C286.37092,107.271862 285.516222,106.912534 284.824183,106.193878 C284.132145,105.475223 283.774295,104.553983 283.750636,103.430159 L283.750636,103.430159 L292.427738,103.430159 C292.415908,102.111145 292.061016,101.010981 291.363063,100.129666 C290.381196,98.8816306 289.068096,98.2576127 287.423765,98.2576127 C285.826752,98.2576127 284.5521,98.8668435 283.599807,100.085305 C282.84862,101.043513 282.473026,102.134804 282.473026,103.359181 C282.473026,104.66045 282.91664,105.827157 283.80387,106.8593 C284.691099,107.891443 285.92139,108.407515 287.494743,108.407515 Z M291.061405,102.356612 L283.874848,102.356612 C284.129187,101.469383 284.504781,100.803961 285.001629,100.360346 C285.681838,99.7511153 286.495132,99.4464999 287.44151,99.4464999 C288.015251,99.4464999 288.562376,99.5677546 289.082884,99.8102639 C289.603391,100.052773 290.021868,100.372176 290.338313,100.768471 C290.654758,101.164767 290.895789,101.694147 291.061405,102.356612 L291.061405,102.356612 Z M300.366468,111.938687 C301.496206,111.938687 302.463286,111.699136 303.267707,111.220032 C304.072128,110.740928 304.636998,110.057761 304.962315,109.170532 C305.19891,108.543557 305.317207,107.552818 305.317207,106.198314 L305.317207,106.198314 L305.317207,98.5060369 L304.066214,98.5060369 L304.066214,100.1829 C303.486557,99.4967762 302.88472,99.004364 302.260702,98.7056635 C301.636684,98.406963 300.963869,98.2576127 300.242256,98.2576127 C299.372771,98.2576127 298.546169,98.4823775 297.76245,98.931907 C296.978731,99.3814364 296.365064,99.9921459 295.921449,100.764035 C295.477835,101.535925 295.256027,102.368441 295.256027,103.261586 C295.256027,104.15473 295.468962,104.973938 295.894832,105.719211 C296.320702,106.464483 296.924018,107.057448 297.70478,107.498105 C298.485542,107.938762 299.319537,108.159091 300.206766,108.159091 C300.963869,108.159091 301.679567,108.000868 302.353861,107.684423 C303.028155,107.367978 303.59894,106.914013 304.066214,106.322526 L304.066214,106.322526 L304.066214,106.819375 C304.066214,107.88405 303.942002,108.655939 303.693577,109.135043 C303.445153,109.614147 303.029634,110.011921 302.44702,110.328366 C301.864406,110.644811 301.150187,110.803034 300.304362,110.803034 C299.446707,110.803034 298.728051,110.649248 298.148395,110.341675 C297.568738,110.034102 297.095549,109.560913 296.728828,108.922108 L296.728828,108.922108 L295.380239,108.922108 C295.729216,109.67921 296.110725,110.254431 296.524765,110.647769 C296.938805,111.041107 297.475579,111.354595 298.135086,111.588232 C298.794593,111.821869 299.538387,111.938687 300.366468,111.938687 Z M300.330979,106.987948 C299.20124,106.987948 298.281479,106.641929 297.571696,105.94989 C296.861912,105.257851 296.507021,104.382452 296.507021,103.323692 C296.507021,102.625738 296.678552,101.976582 297.021614,101.376223 C297.364676,100.775865 297.837864,100.305634 298.44118,99.965529 C299.044496,99.6254245 299.698088,99.4553722 300.401957,99.4553722 C301.076251,99.4553722 301.706184,99.6209883 302.291755,99.9522206 C302.877326,100.283453 303.329813,100.734461 303.649216,101.305245 C303.968618,101.876029 304.12832,102.525185 304.12832,103.252713 C304.12832,104.370622 303.780822,105.272638 303.085825,105.958762 C302.390829,106.644886 301.472547,106.987948 300.330979,106.987948 Z M313.060746,108.407515 C314.001209,108.407515 314.78345,108.216761 315.407468,107.835252 C316.031486,107.453744 316.49876,106.925842 316.80929,106.251548 C317.11982,105.577254 317.275085,104.574685 317.275085,103.243841 L317.275085,103.243841 L317.275085,98.5060369 L316.006347,98.5060369 L316.006347,103.013161 C316.006347,104.219793 315.944241,105.009427 315.820029,105.382063 C315.636669,105.926231 315.303958,106.365409 314.821896,106.699599 C314.339835,107.033789 313.752785,107.200883 313.060746,107.200883 C312.368708,107.200883 311.772785,107.029352 311.272979,106.68629 C310.773174,106.343228 310.434548,105.875954 310.257102,105.284468 C310.138805,104.870428 310.079656,104.113326 310.079656,103.013161 L310.079656,103.013161 L310.079656,98.5060369 L308.828663,98.5060369 L308.828663,103.155118 C308.828663,104.527366 308.983928,105.555073 309.294458,106.23824 C309.604988,106.921406 310.07522,107.453744 310.705153,107.835252 C311.335085,108.216761 312.120283,108.407515 313.060746,108.407515 Z M322.099641,108.159091 L322.099641,94.7796742 L320.85752,94.7796742 L320.85752,108.159091 L322.099641,108.159091 Z M330.206944,108.407515 C330.975876,108.407515 331.684181,108.247814 332.331858,107.928411 C332.979535,107.609009 333.563628,107.132862 334.084136,106.499972 L334.084136,106.499972 L334.084136,108.159091 L335.308512,108.159091 L335.308512,98.5060369 L334.084136,98.5060369 L334.084136,100.280495 C333.599117,99.6062012 333.035727,99.1004805 332.393964,98.7633334 C331.752202,98.4261863 331.035025,98.2576127 330.242433,98.2576127 C328.870185,98.2576127 327.696085,98.7515037 326.720133,99.7392856 C325.744181,100.727067 325.256205,101.915955 325.256205,103.305947 C325.256205,104.725514 325.739745,105.930667 326.706825,106.921406 C327.673905,107.912145 328.840611,108.407515 330.206944,108.407515 Z M330.331156,107.271862 C329.656862,107.271862 329.02545,107.098852 328.436922,106.752833 C327.848393,106.406813 327.37964,105.923273 327.030663,105.302213 C326.681687,104.681152 326.507198,104.030518 326.507198,103.350309 C326.507198,102.664185 326.680208,102.01355 327.026227,101.398404 C327.372247,100.783259 327.838042,100.305634 328.423613,99.965529 C329.009185,99.6254245 329.64799,99.4553722 330.340028,99.4553722 C331.416533,99.4553722 332.322986,99.8309659 333.059386,100.582153 C333.795786,101.333341 334.163986,102.267889 334.163986,103.385798 C334.163986,104.119241 333.999849,104.778748 333.671574,105.364319 C333.343299,105.94989 332.874547,106.414207 332.265316,106.757269 C331.656085,107.100331 331.011365,107.271862 330.331156,107.271862 Z M339.91126,108.159091 L339.91126,104.894087 C339.91126,103.220182 339.988153,102.108188 340.14194,101.558105 C340.343045,100.842407 340.635831,100.314506 341.020297,99.9744013 C341.404763,99.6342968 341.804016,99.4642445 342.218056,99.4642445 C342.395502,99.4642445 342.614352,99.5204357 342.874606,99.632818 L342.874606,99.632818 L343.522283,98.5858876 C343.131902,98.3670377 342.765181,98.2576127 342.422119,98.2576127 C341.966674,98.2576127 341.528975,98.3951333 341.10902,98.6701743 C340.689064,98.9452154 340.289811,99.3607344 339.91126,99.9167314 L339.91126,99.9167314 L339.91126,98.5060369 L338.642522,98.5060369 L338.642522,108.159091 L339.91126,108.159091 Z M356.170229,108.159091 L356.170229,95.107949 L353.606136,95.107949 L352.825374,96.3855591 L354.874874,96.3855591 L354.874874,108.159091 L356.170229,108.159091 Z M366.247181,108.487366 C367.081176,108.487366 367.835321,108.304005 368.509615,107.937284 C369.18391,107.570562 369.716247,107.051533 370.106628,106.380196 C370.497009,105.70886 370.692199,105.003512 370.692199,104.264155 C370.692199,103.4065 370.408286,102.631653 369.840459,101.939614 C369.438249,101.448681 368.923656,101.076044 368.29668,100.821705 C369.414589,100.165156 369.973544,99.2749689 369.973544,98.1511452 C369.973544,97.5774037 369.812364,97.0273216 369.490004,96.5008989 C369.167644,95.9744762 368.712199,95.5559998 368.123671,95.2454695 C367.535142,94.9349393 366.900773,94.7796742 366.220564,94.7796742 C365.286016,94.7796742 364.47568,95.0695024 363.789556,95.6491588 C363.103432,96.2288153 362.639115,97.0568959 362.396606,98.1334007 L362.396606,98.1334007 L363.72745,98.1334007 C364.011363,97.3762984 364.357383,96.8395247 364.765508,96.5230796 C365.173634,96.2066345 365.658652,96.048412 366.220564,96.048412 C366.912603,96.048412 367.484866,96.2554321 367.937353,96.6694724 C368.38984,97.0835127 368.616083,97.5744462 368.616083,98.1422729 C368.616083,98.5267389 368.505179,98.8816306 368.283372,99.206948 C368.061565,99.5322654 367.705194,99.7999129 367.214261,100.00989 C366.723327,100.219868 366.17916,100.324857 365.581759,100.324857 L365.581759,100.324857 L365.581759,101.522616 C366.5932,101.57585 367.339952,101.714849 367.822013,101.939614 C368.304074,102.164379 368.68854,102.498568 368.975411,102.942183 C369.262282,103.385798 369.405717,103.861944 369.405717,104.370622 C369.405717,105.133639 369.118846,105.799061 368.545105,106.366888 C367.971363,106.934715 367.211303,107.218628 366.264926,107.218628 C365.43093,107.218628 364.744806,106.979076 364.206554,106.499972 C363.786599,106.121421 363.464239,105.509233 363.239474,104.663408 L363.239474,104.663408 L361.961864,104.663408 C362.192543,105.917358 362.683477,106.868172 363.434664,107.51585 C364.185852,108.163527 365.123357,108.487366 366.247181,108.487366 Z" id="Hyperlink|CenturyGothicRegular13" fill="#E25819"></path>
            <path d="M2.28170499,69.1590909 L2.28170499,62.3751998 L9.42867765,62.3751998 L9.42867765,69.1590909 L10.8427845,69.1590909 L10.8427845,55.104015 L9.42867765,55.104015 L9.42867765,60.999312 L2.28170499,60.999312 L2.28170499,55.104015 L0.8675981,55.104015 L0.8675981,69.1590909 L2.28170499,69.1590909 Z M22.2490641,69.1590909 L22.2490641,65.8913574 L23.9498143,65.8913574 L23.9498143,64.544134 L22.2490641,64.544134 L22.2490641,54.7504883 L21.9624208,54.7504883 L14.1275043,65.8913574 L20.844512,65.8913574 L20.844512,69.1590909 L22.2490641,69.1590909 Z M20.844512,64.544134 L16.7072939,64.544134 L20.844512,58.6870561 L20.844512,64.544134 Z M39.3192028,72.9618919 L39.3192028,54.7504883 L37.9528698,54.7504883 L37.9528698,72.9618919 L39.3192028,72.9618919 Z M61.4724824,69.5126176 C62.7655621,69.5126176 63.9360222,69.2689708 64.9838627,68.7816772 C66.0317031,68.2943837 66.9059652,67.6048473 67.6066488,66.7130682 L67.6066488,66.7130682 L66.4982947,65.8722479 C65.1733657,67.4137518 63.5267593,68.1845037 61.5584754,68.1845037 C59.7685473,68.1845037 58.2859645,67.6112172 57.110727,66.464644 C55.9354895,65.3180708 55.3478708,63.8880393 55.3478708,62.1745494 C55.3478708,61.040716 55.6106271,60.0199474 56.1361398,59.1122437 C56.6616525,58.2045399 57.4021477,57.4815618 58.3576253,56.9433094 C59.3131029,56.405057 60.3513886,56.1359308 61.4724824,56.1359308 C62.4980284,56.1359308 63.4391738,56.3413585 64.2959188,56.7522139 C65.1526637,57.1630693 65.886789,57.7666127 66.4982947,58.562844 L66.4982947,58.562844 L67.6066488,57.7124689 C66.9314446,56.7761009 66.0651449,56.0483454 65.0077496,55.5292025 C63.9503544,55.0100597 62.7655621,54.7504883 61.4533728,54.7504883 C59.2812537,54.7504883 57.4738085,55.4527643 56.0310373,56.8573165 C54.5882661,58.2618686 53.8668805,59.9928755 53.8668805,62.0503374 C53.8668805,64.0058816 54.4624615,65.6747825 55.6536236,67.0570401 C57.0741004,68.6940918 59.01372,69.5126176 61.4724824,69.5126176 Z M76.2038241,69.4266246 C76.9682062,69.4266246 77.6529652,69.3103749 78.258101,69.0778753 C78.8632369,68.8453758 79.4078591,68.5061812 79.8919678,68.0602916 C80.3760764,67.6144021 80.8028564,67.0283758 81.1723078,66.3022128 L81.1723078,66.3022128 L80.0448442,65.7098167 C79.6371737,66.3913907 79.2581676,66.8850542 78.9078258,67.190807 C78.557484,67.4965598 78.1322965,67.7417991 77.6322632,67.9265248 C77.1322299,68.1112504 76.6178644,68.2036133 76.0891668,68.2036133 C74.9935525,68.2036133 74.073109,67.8166448 73.3278365,67.042708 C72.5825639,66.2687711 72.1971879,65.2766668 72.1717085,64.0663952 L72.1717085,64.0663952 L81.5162797,64.0663952 C81.50354,62.6459184 81.121349,61.4611262 80.3697066,60.5120184 C79.3123113,59.1679798 77.8982044,58.4959606 76.1273859,58.4959606 C74.4075262,58.4959606 73.0348233,59.1520552 72.0092773,60.4642445 C71.2003063,61.4961603 70.7958207,62.6713978 70.7958207,63.9899569 C70.7958207,65.3913241 71.2735596,66.6477772 72.2290372,67.7593162 C73.1845148,68.8708552 74.5094438,69.4266246 76.2038241,69.4266246 Z M80.0448442,62.9102672 L72.3054754,62.9102672 C72.579379,61.9547896 72.9838645,61.2381814 73.518932,60.7604426 C74.2514648,60.1043479 75.1273193,59.7763006 76.1464955,59.7763006 C76.764371,59.7763006 77.3535822,59.9068825 77.9141291,60.1680464 C78.474676,60.4292103 78.9253429,60.7731823 79.2661299,61.1999623 C79.6069169,61.6267423 79.8664884,62.1968439 80.0448442,62.9102672 L80.0448442,62.9102672 Z M86.4348662,69.1590909 L86.4348662,65.3467352 C86.4348662,63.9772172 86.4985647,63.0344793 86.6259618,62.5185214 C86.829797,61.7286599 87.2517996,61.0661954 87.8919696,60.5311279 C88.5321396,59.9960605 89.2567102,59.7285267 90.0656812,59.7285267 C90.7727347,59.7285267 91.3460212,59.9021052 91.7855409,60.249262 C92.2250607,60.5964189 92.5244436,61.1139693 92.6836899,61.8019132 C92.7856075,62.2032138 92.8365663,63.0026301 92.8365663,64.200162 L92.8365663,64.200162 L92.8365663,69.1590909 L94.1646802,69.1590909 L94.1646802,63.8084162 C94.1646802,62.3943093 94.0213586,61.3528387 93.7347153,60.6840044 C93.448072,60.01517 93.0037749,59.4832875 92.401824,59.0883567 C91.7998731,58.693426 91.1103368,58.4959606 90.333215,58.4959606 C89.5688329,58.4959606 88.8617794,58.6727239 88.2120546,59.0262507 C87.5623298,59.3797774 86.9699337,59.9132524 86.4348662,60.6266757 L86.4348662,60.6266757 L86.4348662,58.7634943 L85.0971976,58.7634943 L85.0971976,69.1590909 L86.4348662,69.1590909 Z M100.63114,69.1590909 L100.63114,59.9100675 L102.752301,59.9100675 L102.752301,58.7634943 L100.63114,58.7634943 L100.63114,54.9033647 L99.283917,54.9033647 L99.283917,58.7634943 L97.4589548,58.7634943 L97.4589548,59.9100675 L99.283917,59.9100675 L99.283917,69.1590909 L100.63114,69.1590909 Z M110.222013,69.4266246 C111.234819,69.4266246 112.077232,69.221197 112.749251,68.8103416 C113.42127,68.3994862 113.924488,67.830977 114.258906,67.104814 C114.593323,66.378651 114.760531,65.2989613 114.760531,63.8657449 L114.760531,63.8657449 L114.760531,58.7634943 L113.394198,58.7634943 L113.394198,63.6173207 C113.394198,64.9167702 113.327315,65.7671453 113.193548,66.1684459 C112.996083,66.7544722 112.637779,67.2274336 112.118636,67.5873302 C111.599493,67.9472268 110.967285,68.1271751 110.222013,68.1271751 C109.47674,68.1271751 108.834978,67.9424494 108.296725,67.572998 C107.758473,67.2035467 107.393799,66.7003285 107.202703,66.0633434 C107.075306,65.6174538 107.011608,64.8021129 107.011608,63.6173207 L107.011608,63.6173207 L107.011608,58.7634943 L105.664384,58.7634943 L105.664384,63.7701971 C105.664384,65.2480025 105.831593,66.3547641 106.16601,67.0904818 C106.500427,67.8261996 107.00683,68.3994862 107.685219,68.8103416 C108.363609,69.221197 109.209206,69.4266246 110.222013,69.4266246 Z M119.679118,69.1590909 L119.679118,65.6429332 C119.679118,63.8402654 119.761926,62.6427335 119.927542,62.0503374 C120.144117,61.2795854 120.459425,60.7110762 120.873465,60.3448098 C121.287505,59.9785434 121.71747,59.7954102 122.16336,59.7954102 C122.354455,59.7954102 122.59014,59.8559237 122.870413,59.9769509 L122.870413,59.9769509 L123.567912,58.8494873 C123.147502,58.6138028 122.752571,58.4959606 122.38312,58.4959606 C121.892641,58.4959606 121.421272,58.6440596 120.969013,58.9402577 C120.516753,59.2364557 120.086788,59.6839378 119.679118,60.2827037 L119.679118,60.2827037 L119.679118,58.7634943 L118.312785,58.7634943 L118.312785,69.1590909 L119.679118,69.1590909 Z M128.352731,72.9618919 L134.553781,58.7634943 L133.13012,58.7634943 L129.661736,66.7703968 L126.088249,58.7634943 L124.674143,58.7634943 L128.945128,68.3755993 L126.938625,72.9618919 L128.352731,72.9618919 Z M151.42327,69.5126176 C153.563539,69.5126176 155.272252,68.8740401 156.549407,67.596885 C157.826562,66.3197299 158.47151,64.5950928 158.484249,62.4229736 L158.484249,62.4229736 L152.426521,62.4229736 L152.426521,63.7797519 L156.907711,63.7797519 C156.722985,65.0792014 156.130589,66.1365967 155.130523,66.9519376 C154.130456,67.7672785 152.907445,68.174949 151.461489,68.174949 C150.270327,68.174949 149.174712,67.9026378 148.174646,67.3580156 C147.174579,66.8133933 146.391087,66.0649359 145.824171,65.1126432 C145.257254,64.1603505 144.973796,63.1555065 144.973796,62.0981112 C144.973796,61.0661954 145.247699,60.0868308 145.795506,59.1600175 C146.343313,58.2332042 147.115658,57.4990789 148.11254,56.9576416 C149.109421,56.4162043 150.158854,56.1454856 151.260838,56.1454856 C152.146248,56.1454856 153.055544,56.3445435 153.988727,56.7426591 C154.92191,57.1407748 155.780248,57.7252086 156.563739,58.4959606 L156.563739,58.4959606 L157.652984,57.4640447 C156.652917,56.514937 155.627371,55.8254006 154.576346,55.3954357 C153.52532,54.9654707 152.404227,54.7504883 151.213064,54.7504883 C149.741629,54.7504883 148.42307,55.0737582 147.257387,55.7202981 C146.091704,56.3668379 145.174446,57.2633944 144.505612,58.4099676 C143.836777,59.5565407 143.50236,60.7954767 143.50236,62.1267756 C143.50236,63.9167037 144.085201,65.4932417 145.250884,66.8563898 C146.766909,68.6272084 148.82437,69.5126176 151.42327,69.5126176 Z M166.947658,69.4266246 C168.533751,69.4266246 169.831608,68.8835949 170.841229,67.7975353 C171.85085,66.7114757 172.355661,65.4422829 172.355661,63.9899569 C172.355661,62.5440008 171.877922,61.2923251 170.922445,60.2349299 C169.871419,59.075617 168.54649,58.4959606 166.947658,58.4959606 C165.342455,58.4959606 164.014341,59.0788019 162.963316,60.2444846 C162.007838,61.3018799 161.5301,62.5503706 161.5301,63.9899569 C161.5301,65.4422829 162.03491,66.7114757 163.044532,67.7975353 C164.054153,68.8835949 165.355195,69.4266246 166.947658,69.4266246 Z M166.947658,68.1558394 C166.208755,68.1558394 165.530366,67.979076 164.91249,67.6255493 C164.294615,67.2720226 163.804136,66.7703968 163.441055,66.1206721 C163.077973,65.4709473 162.896433,64.7702637 162.896433,64.0186213 C162.896433,62.8529386 163.294548,61.8592418 164.09078,61.0375311 C164.887011,60.2158203 165.839304,59.8049649 166.947658,59.8049649 C168.049642,59.8049649 169.000342,60.2158203 169.799758,61.0375311 C170.599175,61.8592418 170.998883,62.8529386 170.998883,64.0186213 C170.998883,64.7702637 170.817342,65.4709473 170.454261,66.1206721 C170.091179,66.7703968 169.600701,67.2720226 168.982825,67.6255493 C168.36495,67.979076 167.68656,68.1558394 166.947658,68.1558394 Z M178.43993,69.1590909 L178.43993,59.9100675 L180.561091,59.9100675 L180.561091,58.7634943 L178.43993,58.7634943 L178.43993,54.9033647 L177.092707,54.9033647 L177.092707,58.7634943 L175.267745,58.7634943 L175.267745,59.9100675 L177.092707,59.9100675 L177.092707,69.1590909 L178.43993,69.1590909 Z M184.982829,69.1590909 L184.982829,65.3467352 C184.982829,63.9708474 185.046527,63.0281095 185.173924,62.5185214 C185.37776,61.7286599 185.799762,61.0661954 186.439932,60.5311279 C187.080102,59.9960605 187.804673,59.7285267 188.613644,59.7285267 C189.320697,59.7285267 189.892391,59.9021052 190.328726,60.249262 C190.765061,60.5964189 191.066036,61.1139693 191.231652,61.8019132 C191.3272,62.2032138 191.374974,63.0026301 191.374974,64.200162 L191.374974,64.200162 L191.374974,69.1590909 L192.712643,69.1590909 L192.712643,63.8084162 C192.712643,62.3879395 192.569321,61.3448764 192.282678,60.679227 C191.996035,60.0135775 191.551737,59.4832875 190.949787,59.0883567 C190.347836,58.693426 189.658299,58.4959606 188.881177,58.4959606 C188.123165,58.4959606 187.419297,58.6727239 186.769572,59.0262507 C186.119847,59.3797774 185.524266,59.9132524 184.982829,60.6266757 L184.982829,60.6266757 L184.982829,54.7504883 L183.64516,54.7504883 L183.64516,69.1590909 L184.982829,69.1590909 Z M197.134381,56.6901079 C197.440134,56.6901079 197.701298,56.5818204 197.917873,56.3652455 C198.134447,56.1486705 198.242735,55.8906916 198.242735,55.5913086 C198.242735,55.2855558 198.134447,55.0243919 197.917873,54.8078169 C197.701298,54.591242 197.440134,54.4829545 197.134381,54.4829545 C196.834998,54.4829545 196.577019,54.591242 196.360444,54.8078169 C196.143869,55.0243919 196.035582,55.2855558 196.035582,55.5913086 C196.035582,55.8906916 196.143869,56.1486705 196.360444,56.3652455 C196.577019,56.5818204 196.834998,56.6901079 197.134381,56.6901079 Z M197.81277,69.1590909 L197.81277,58.7634943 L196.465547,58.7634943 L196.465547,69.1590909 L197.81277,69.1590909 Z M206.897239,69.4266246 C207.967374,69.4266246 208.921259,69.221197 209.758894,68.8103416 C210.59653,68.3994862 211.263772,67.8214222 211.76062,67.0761497 L211.76062,67.0761497 L210.70004,66.378651 C209.731823,67.5952925 208.483332,68.2036133 206.954568,68.2036133 C206.120117,68.2036133 205.366882,68.0188876 204.694863,67.6494363 C204.022844,67.2799849 203.494146,66.7608421 203.10877,66.0920077 C202.723394,65.4231734 202.530706,64.7097501 202.530706,63.9517378 C202.530706,62.7860551 202.949524,61.7955433 203.787159,60.9802024 C204.624795,60.1648615 205.677413,59.7571911 206.945013,59.7571911 C208.531106,59.7571911 209.782781,60.3655118 210.70004,61.5821533 L210.70004,61.5821533 L211.76062,60.9228738 C211.448497,60.400546 211.069491,59.9705811 210.623602,59.632979 C210.177712,59.2953769 209.634682,59.0214733 208.994512,58.8112682 C208.354342,58.6010631 207.690285,58.4959606 207.002342,58.4959606 C205.906727,58.4959606 204.916215,58.7380149 204.030806,59.2221236 C203.145397,59.7062322 202.449491,60.379844 201.943087,61.2429588 C201.436684,62.1060736 201.183483,63.0408492 201.183483,64.0472856 C201.183483,65.5442006 201.72492,66.8149858 202.807795,67.8596413 C203.890669,68.9042969 205.253817,69.4266246 206.897239,69.4266246 Z M223.623406,69.1590909 L223.623406,62.6236239 L224.426007,62.6236239 L229.470929,69.1590909 L231.209898,69.1590909 L226.155421,62.6236239 C227.333844,62.6172541 228.257472,62.4659701 228.926306,62.1697721 C229.595141,61.873574 230.109506,61.4356468 230.469403,60.8559903 C230.829299,60.2763339 231.009248,59.6043146 231.009248,58.8399325 C231.009248,57.922674 230.748084,57.1503296 230.225756,56.5228993 C229.703428,55.895469 229.025039,55.4862061 228.190589,55.2951105 C227.636412,55.1677135 226.579016,55.104015 225.018403,55.104015 L225.018403,55.104015 L222.218854,55.104015 L222.218854,69.1590909 L223.623406,69.1590909 Z M226.040764,61.2764005 L223.623406,61.2572909 L223.623406,56.4799028 L226.098093,56.4799028 C227.05994,56.4799028 227.747884,56.5627108 228.161924,56.728327 C228.575965,56.8939431 228.910382,57.1694391 229.165176,57.5548151 C229.41997,57.9401911 229.547367,58.3685636 229.547367,58.8399325 C229.547367,59.3240412 229.421562,59.7619684 229.169953,60.1537143 C228.918344,60.5454601 228.568002,60.8305109 228.118928,61.0088667 C227.669853,61.1872226 226.977132,61.2764005 226.040764,61.2764005 L226.040764,61.2764005 Z M239.797519,69.4266246 C240.561901,69.4266246 241.24666,69.3103749 241.851796,69.0778753 C242.456931,68.8453758 243.001554,68.5061812 243.485662,68.0602916 C243.969771,67.6144021 244.396551,67.0283758 244.766002,66.3022128 L244.766002,66.3022128 L243.638539,65.7098167 C243.230868,66.3913907 242.851862,66.8850542 242.50152,67.190807 C242.151179,67.4965598 241.725991,67.7417991 241.225958,67.9265248 C240.725924,68.1112504 240.211559,68.2036133 239.682861,68.2036133 C238.587247,68.2036133 237.666804,67.8166448 236.921531,67.042708 C236.176258,66.2687711 235.790882,65.2766668 235.765403,64.0663952 L235.765403,64.0663952 L245.109974,64.0663952 C245.097235,62.6459184 244.715043,61.4611262 243.963401,60.5120184 C242.906006,59.1679798 241.491899,58.4959606 239.72108,58.4959606 C238.001221,58.4959606 236.628518,59.1520552 235.602972,60.4642445 C234.794001,61.4961603 234.389515,62.6713978 234.389515,63.9899569 C234.389515,65.3913241 234.867254,66.6477772 235.822732,67.7593162 C236.778209,68.8708552 238.103138,69.4266246 239.797519,69.4266246 Z M243.638539,62.9102672 L235.89917,62.9102672 C236.173073,61.9547896 236.577559,61.2381814 237.112626,60.7604426 C237.845159,60.1043479 238.721014,59.7763006 239.74019,59.7763006 C240.358065,59.7763006 240.947277,59.9068825 241.507824,60.1680464 C242.06837,60.4292103 242.519037,60.7731823 242.859824,61.1999623 C243.200611,61.6267423 243.460183,62.1968439 243.638539,62.9102672 L243.638539,62.9102672 Z M253.659376,73.2294256 C254.876017,73.2294256 255.917488,72.9714466 256.783788,72.4554887 C257.650087,71.9395308 258.258408,71.203813 258.60875,70.2483354 C258.863544,69.5731312 258.990941,68.5061812 258.990941,67.0474854 L258.990941,67.0474854 L258.990941,58.7634943 L257.643717,58.7634943 L257.643717,60.569347 C257.019472,59.8304443 256.37134,59.3001543 255.69932,58.9784768 C255.027301,58.6567993 254.302731,58.4959606 253.525609,58.4959606 C252.589241,58.4959606 251.699054,58.7380149 250.855049,59.2221236 C250.011044,59.7062322 249.350172,60.3639193 248.872433,61.1951849 C248.394694,62.0264504 248.155825,62.9230069 248.155825,63.8848544 C248.155825,64.8467019 248.385139,65.7289262 248.843768,66.5315274 C249.302398,67.3341286 249.952123,67.9727062 250.792943,68.4472601 C251.633763,68.921814 252.531912,69.1590909 253.48739,69.1590909 C254.302731,69.1590909 255.073483,68.9886974 255.799646,68.6479104 C256.525809,68.3071234 257.140499,67.8182373 257.643717,67.1812522 L257.643717,67.1812522 L257.643717,67.7163197 C257.643717,68.8628928 257.509951,69.6941584 257.242417,70.2101163 C256.974883,70.7260742 256.527401,71.1544467 255.899971,71.4952337 C255.27254,71.8360207 254.503381,72.0064142 253.592492,72.0064142 C252.668864,72.0064142 251.894927,71.8407981 251.270682,71.5095659 C250.646436,71.1783336 250.136848,70.6687456 249.741917,69.9808017 L249.741917,69.9808017 L248.289591,69.9808017 C248.665413,70.7961426 249.076268,71.4156106 249.522158,71.8392057 C249.968047,72.2628007 250.546111,72.6004028 251.256349,72.8520119 C251.966588,73.103621 252.767597,73.2294256 253.659376,73.2294256 Z M253.621157,67.8978604 C252.404515,67.8978604 251.414003,67.5252242 250.649621,66.7799516 C249.885239,66.0346791 249.503048,65.0919411 249.503048,63.9517378 C249.503048,63.2000954 249.687774,62.5010043 250.057225,61.8544644 C250.426676,61.2079246 250.936264,60.7015214 251.585989,60.335255 C252.235714,59.9689886 252.939583,59.7858554 253.697595,59.7858554 C254.423758,59.7858554 255.102147,59.9642112 255.732762,60.3209229 C256.363377,60.6776345 256.850671,61.1633356 257.194643,61.7780262 C257.538615,62.3927168 257.710601,63.091808 257.710601,63.8752996 C257.710601,65.0792014 257.336372,66.0506037 256.587915,66.7895064 C255.839457,67.5284091 254.850538,67.8978604 253.621157,67.8978604 Z M267.330137,69.4266246 C268.342944,69.4266246 269.185356,69.221197 269.857376,68.8103416 C270.529395,68.3994862 271.032613,67.830977 271.36703,67.104814 C271.701447,66.378651 271.868656,65.2989613 271.868656,63.8657449 L271.868656,63.8657449 L271.868656,58.7634943 L270.502323,58.7634943 L270.502323,63.6173207 C270.502323,64.9167702 270.43544,65.7671453 270.301673,66.1684459 C270.104207,66.7544722 269.745903,67.2274336 269.22676,67.5873302 C268.707618,67.9472268 268.07541,68.1271751 267.330137,68.1271751 C266.584865,68.1271751 265.943102,67.9424494 265.40485,67.572998 C264.866597,67.2035467 264.501924,66.7003285 264.310828,66.0633434 C264.183431,65.6174538 264.119732,64.8021129 264.119732,63.6173207 L264.119732,63.6173207 L264.119732,58.7634943 L262.772509,58.7634943 L262.772509,63.7701971 C262.772509,65.2480025 262.939718,66.3547641 263.274135,67.0904818 C263.608552,67.8261996 264.114955,68.3994862 264.793344,68.8103416 C265.471733,69.221197 266.317331,69.4266246 267.330137,69.4266246 Z M277.064331,69.1590909 L277.064331,54.7504883 L275.726662,54.7504883 L275.726662,69.1590909 L277.064331,69.1590909 Z M285.795273,69.4266246 C286.623354,69.4266246 287.386144,69.2546387 288.083642,68.9106667 C288.781141,68.5666948 289.410164,68.0539218 289.97071,67.3723477 L289.97071,67.3723477 L289.97071,69.1590909 L291.28927,69.1590909 L291.28927,58.7634943 L289.97071,58.7634943 L289.97071,60.6744496 C289.448383,59.9482866 288.841654,59.4036643 288.150526,59.0405828 C287.459397,58.6775013 286.687052,58.4959606 285.833492,58.4959606 C284.355687,58.4959606 283.091272,59.0278431 282.040246,60.0916082 C280.989221,61.1553733 280.463708,62.4357133 280.463708,63.9326283 C280.463708,65.4613925 280.984443,66.7592496 282.025914,67.8261996 C283.067385,68.8931496 284.323838,69.4266246 285.795273,69.4266246 Z M285.92904,68.2036133 C285.202877,68.2036133 284.522896,68.0172951 283.889095,67.6446589 C283.255295,67.2720226 282.750485,66.7512873 282.374663,66.0824529 C281.998842,65.4136186 281.810932,64.712935 281.810932,63.9804022 C281.810932,63.2414995 281.99725,62.5408159 282.369886,61.8783514 C282.742522,61.2158869 283.244148,60.7015214 283.874763,60.335255 C284.505378,59.9689886 285.193322,59.7858554 285.938595,59.7858554 C287.097908,59.7858554 288.074087,60.1903409 288.867134,60.999312 C289.66018,61.808283 290.056703,62.8147195 290.056703,64.0186213 C290.056703,64.8084828 289.87994,65.5187211 289.526413,66.1493364 C289.172887,66.7799516 288.668076,67.2799849 288.011981,67.6494363 C287.355887,68.0188876 286.661573,68.2036133 285.92904,68.2036133 Z M296.246075,69.1590909 L296.246075,65.6429332 C296.246075,63.8402654 296.328883,62.6427335 296.494499,62.0503374 C296.711074,61.2795854 297.026382,60.7110762 297.440422,60.3448098 C297.854463,59.9785434 298.284427,59.7954102 298.730317,59.7954102 C298.921413,59.7954102 299.157097,59.8559237 299.43737,59.9769509 L299.43737,59.9769509 L300.134869,58.8494873 C299.714459,58.6138028 299.319528,58.4959606 298.950077,58.4959606 C298.459598,58.4959606 297.988229,58.6440596 297.53597,58.9402577 C297.083711,59.2364557 296.653746,59.6839378 296.246075,60.2827037 L296.246075,60.2827037 L296.246075,58.7634943 L294.879742,58.7634943 L294.879742,69.1590909 L296.246075,69.1590909 Z M313.755734,69.1590909 L313.755734,55.104015 L310.994403,55.104015 L310.153583,56.4799028 L312.360736,56.4799028 L312.360736,69.1590909 L313.755734,69.1590909 Z M327.923344,69.1590909 L327.923344,65.8913574 L329.624094,65.8913574 L329.624094,64.544134 L327.923344,64.544134 L327.923344,54.7504883 L327.6367,54.7504883 L319.801784,65.8913574 L326.518791,65.8913574 L326.518791,69.1590909 L327.923344,69.1590909 Z M326.518791,64.544134 L322.381573,64.544134 L326.518791,58.6870561 L326.518791,64.544134 Z M334.074496,72.9618919 L334.074496,67.3723477 C334.635043,68.0539218 335.262473,68.5666948 335.956787,68.9106667 C336.651101,69.2546387 337.412298,69.4266246 338.240379,69.4266246 C339.711814,69.4266246 340.968267,68.8931496 342.009738,67.8261996 C343.051208,66.7592496 343.571944,65.4613925 343.571944,63.9326283 C343.571944,62.4357133 343.046431,61.1553733 341.995406,60.0916082 C340.94438,59.0278431 339.679965,58.4959606 338.202159,58.4959606 C337.354969,58.4959606 336.587402,58.6775013 335.899458,59.0405828 C335.211515,59.4036643 334.603194,59.9482866 334.074496,60.6744496 L334.074496,60.6744496 L334.074496,58.7634943 L332.746382,58.7634943 L332.746382,72.9618919 L334.074496,72.9618919 Z M338.116167,68.2036133 C337.383634,68.2036133 336.687727,68.0188876 336.028448,67.6494363 C335.369168,67.2799849 334.862765,66.7799516 334.509238,66.1493364 C334.155712,65.5187211 333.978948,64.8084828 333.978948,64.0186213 C333.978948,62.8147195 334.375472,61.808283 335.168518,60.999312 C335.961564,60.1903409 336.937744,59.7858554 338.097057,59.7858554 C338.84233,59.7858554 339.530273,59.9689886 340.160889,60.335255 C340.791504,60.7015214 341.29313,61.2158869 341.665766,61.8783514 C342.038402,62.5408159 342.22472,63.2414995 342.22472,63.9804022 C342.22472,64.712935 342.03681,65.4136186 341.660989,66.0824529 C341.285167,66.7512873 340.780357,67.2720226 340.146556,67.6446589 C339.512756,68.0172951 338.83596,68.2036133 338.116167,68.2036133 Z M347.200635,69.1590909 L350.334602,64.7925581 L353.516343,69.1590909 L355.140655,69.1590909 L351.137203,63.7033137 L354.69158,58.7634943 L353.086378,58.7634943 L350.334602,62.6140692 L347.582827,58.7634943 L345.977624,58.7634943 L349.541556,63.7033137 L345.604988,69.1590909 L347.200635,69.1590909 Z" id="H4|CenturyGothicRegular14px" fill="#100E2B"></path>
            <path d="M5.58629261,25.1590909 C7.17329545,25.1590909 8.43816584,24.7132013 9.38090376,23.8214222 C10.3236417,22.9296431 10.7950107,21.8394886 10.7950107,20.5509588 C10.7950107,19.9176136 10.6694336,19.3297674 10.4182795,18.7874201 C10.1671254,18.2450728 9.81587358,17.7828036 9.36452415,17.4006126 C8.91317472,17.0184215 8.2689098,16.6853693 7.4317294,16.401456 C8.10875355,16.0374645 8.62198153,15.5624556 8.97141335,14.9764293 C9.32084517,14.3904031 9.49556108,13.7406783 9.49556108,13.027255 C9.49556108,12.2628729 9.29718572,11.5676491 8.90043501,10.9415838 C8.5036843,10.3155185 7.96315696,9.85142933 7.27885298,9.54931641 C6.59454901,9.24720348 5.61541193,9.09614702 4.34144176,9.09614702 L4.34144176,9.09614702 L1.17471591,9.09614702 L1.17471591,25.1590909 L5.58629261,25.1590909 Z M3.66441761,15.8117898 L2.74715909,15.8117898 L2.74715909,10.6685902 L4.60351562,10.6685902 C5.72460937,10.6685902 6.54177024,10.8778853 7.05499822,11.2964755 C7.56822621,11.7150657 7.8248402,12.2919922 7.8248402,13.027255 C7.8248402,13.5732422 7.67196378,14.0700906 7.36621094,14.5178001 C7.0604581,14.9655096 6.64550781,15.2931019 6.12136009,15.5005771 C5.59721236,15.7080522 4.77823153,15.8117898 3.66441761,15.8117898 L3.66441761,15.8117898 Z M4.73455256,23.5866477 L2.74715909,23.5866477 L2.74715909,17.4279119 L3.65349787,17.4279119 C5.00754616,17.4279119 5.95756392,17.4934304 6.50355114,17.6244673 C7.31889205,17.8210227 7.95951705,18.1850142 8.42542614,18.7164418 C8.89133523,19.2478693 9.12428977,19.8702947 9.12428977,20.583718 C9.12428977,21.1515447 8.95867365,21.6793324 8.62744141,22.167081 C8.29620916,22.6548295 7.85759943,23.0133612 7.31161222,23.2426758 C6.765625,23.4719904 5.90660511,23.5866477 4.73455256,23.5866477 L4.73455256,23.5866477 Z M19.9042614,25.4648438 C21.7169389,25.4648438 23.2002042,24.8442383 24.3540572,23.6030273 C25.5079102,22.3618164 26.0848367,20.9113104 26.0848367,19.2515092 C26.0848367,17.5989879 25.5388495,16.1685014 24.446875,14.9600497 C23.2457032,13.6351207 21.7314986,12.9726563 19.9042614,12.9726563 C18.0697443,12.9726563 16.5518999,13.6387607 15.350728,14.9709695 C14.2587536,16.1794212 13.7127664,17.6062678 13.7127664,19.2515092 C13.7127664,20.9113104 14.2896929,22.3618164 15.4435458,23.6030273 C16.5973988,24.8442383 18.084304,25.4648438 19.9042614,25.4648438 Z M19.9042614,24.0125178 C19.0598012,24.0125178 18.2844993,23.8105025 17.5783558,23.4064719 C16.8722124,23.0024414 16.3116655,22.4291548 15.8967152,21.6866122 C15.4817649,20.9440696 15.2742898,20.1432884 15.2742898,19.2842685 C15.2742898,17.9520597 15.7292791,16.8164062 16.6392578,15.8773082 C17.5492365,14.9382102 18.637571,14.4686612 19.9042614,14.4686612 C21.1636719,14.4686612 22.2501865,14.9382102 23.1638051,15.8773082 C24.0774237,16.8164062 24.534233,17.9520597 24.534233,19.2842685 C24.534233,20.1432884 24.3267578,20.9440696 23.9118076,21.6866122 C23.4968573,22.4291548 22.9363104,23.0024414 22.2301669,23.4064719 C21.5240235,23.8105025 20.7487216,24.0125178 19.9042614,24.0125178 Z M35.0630505,25.4648438 C36.0094283,25.4648438 36.8811879,25.2682884 37.6783292,24.8751776 C38.4754706,24.4820668 39.1943537,23.8960405 39.8349787,23.1170987 L39.8349787,23.1170987 L39.8349787,25.1590909 L41.3419035,25.1590909 L41.3419035,8.69211648 L39.8349787,8.69211648 L39.8349787,15.462358 C39.2380327,14.6324574 38.544629,14.010032 37.7547675,13.5950817 C36.9649059,13.1801314 36.0822266,12.9726563 35.1067295,12.9726563 C33.417809,12.9726563 31.9727628,13.580522 30.771591,14.7962536 C29.5704191,16.0119851 28.9698331,17.4752308 28.9698331,19.1859908 C28.9698331,20.9331499 29.5649592,22.4164151 30.7552113,23.6357866 C31.9454635,24.855158 33.3814099,25.4648438 35.0630505,25.4648438 Z M35.2159269,24.0671165 C34.3860263,24.0671165 33.6089045,23.8541815 32.8845615,23.4283114 C32.1602184,23.0024414 31.583292,22.4073153 31.153782,21.6429332 C30.7242721,20.8785511 30.5095171,20.0777699 30.5095171,19.2405895 C30.5095171,18.3961293 30.7224521,17.595348 31.1483221,16.8382457 C31.5741922,16.0811435 32.1474787,15.4932972 32.8681819,15.074707 C33.588885,14.6561168 34.3751066,14.4468217 35.2268466,14.4468217 C36.5517756,14.4468217 37.6674095,14.9090909 38.5737483,15.8336293 C39.4800871,16.7581676 39.9332564,17.9083807 39.9332564,19.2842685 C39.9332564,20.1869673 39.7312412,20.9986683 39.3272106,21.7193714 C38.9231801,22.4400746 38.3462536,23.0115412 37.5964312,23.4337713 C36.8466087,23.8560014 36.0531073,24.0671165 35.2159269,24.0671165 Z M48.2890448,29.5051491 L55.3759589,13.2784091 L53.748917,13.2784091 L49.7850498,22.4291548 L45.7010654,13.2784091 L44.0849433,13.2784091 L48.966069,24.2636719 L46.6729227,29.5051491 L48.2890448,29.5051491 Z M67.5340023,25.1590909 L67.5340023,14.5887784 L69.9581855,14.5887784 L69.9581855,13.2784091 L67.5340023,13.2784091 L67.5340023,8.86683239 L65.9943183,8.86683239 L65.9943183,13.2784091 L63.9086471,13.2784091 L63.9086471,14.5887784 L65.9943183,14.5887784 L65.9943183,25.1590909 L67.5340023,25.1590909 Z M78.4122516,25.4648438 C79.2858311,25.4648438 80.0684128,25.3319869 80.7599966,25.0662731 C81.4515804,24.8005593 82.0740058,24.4129084 82.6272729,23.9033203 C83.1805399,23.3937322 83.6682885,22.7239879 84.0905186,21.8940874 L84.0905186,21.8940874 L82.8019888,21.2170632 C82.3360797,21.996005 81.9029298,22.5601918 81.5025392,22.9096236 C81.1021486,23.2590554 80.61622,23.5393288 80.0447534,23.7504439 C79.4732867,23.9615589 78.8854405,24.0671165 78.2812146,24.0671165 C77.029084,24.0671165 75.9771486,23.6248668 75.1254085,22.7403675 C74.2736685,21.8558683 73.8332388,20.7220348 73.8041195,19.3388672 L73.8041195,19.3388672 L84.4836294,19.3388672 C84.4690698,17.7154652 84.03228,16.3614169 83.1732601,15.2767223 C81.9648084,13.7406783 80.3486862,12.9726563 78.3248936,12.9726563 C76.3593396,12.9726563 74.7905364,13.7224787 73.6184838,15.2221236 C72.6939455,16.401456 72.2316763,17.7445845 72.2316763,19.2515092 C72.2316763,20.8530717 72.7776635,22.2890181 73.8696379,23.5593484 C74.9616124,24.8296786 76.4758169,25.4648438 78.4122516,25.4648438 Z M82.8019888,18.0175781 L73.9569959,18.0175781 C74.2700286,16.9256037 74.7322977,16.1066229 75.3438034,15.5606357 C76.1809838,14.8108132 77.1819604,14.435902 78.3467331,14.435902 C79.0528766,14.435902 79.7262608,14.5851385 80.3668858,14.8836115 C81.0075108,15.1820845 81.5225587,15.5751953 81.9120296,16.0629439 C82.3015005,16.5506925 82.5981536,17.2022372 82.8019888,18.0175781 L82.8019888,18.0175781 Z M87.9364526,25.1590909 L91.5181287,20.1687678 L95.1544036,25.1590909 L97.0107601,25.1590909 L92.4353873,18.9239169 L96.4975321,13.2784091 L94.6630151,13.2784091 L91.5181287,17.6790661 L88.3732424,13.2784091 L86.5387253,13.2784091 L90.61179,18.9239169 L86.1128553,25.1590909 L87.9364526,25.1590909 Z M102.057866,25.1590909 L102.057866,14.5887784 L104.482049,14.5887784 L104.482049,13.2784091 L102.057866,13.2784091 L102.057866,8.86683239 L100.518182,8.86683239 L100.518182,13.2784091 L98.4325109,13.2784091 L98.4325109,14.5887784 L100.518182,14.5887784 L100.518182,25.1590909 L102.057866,25.1590909 Z M127.409144,29.5051491 L127.409144,8.69211648 L125.847621,8.69211648 L125.847621,29.5051491 L127.409144,29.5051491 Z M158.111098,25.5631214 C159.588903,25.5631214 160.926572,25.284668 162.124104,24.727761 C163.321636,24.170854 164.320792,23.3828125 165.121574,22.3636364 L165.121574,22.3636364 L163.854883,21.4026989 C162.340679,23.1644176 160.458843,24.045277 158.209375,24.045277 C156.163743,24.045277 154.469363,23.3900923 153.126234,22.079723 C151.783106,20.7693537 151.111542,19.135032 151.111542,17.1767578 C151.111542,15.8809482 151.411835,14.7143555 152.01242,13.6769798 C152.613006,12.639604 153.459287,11.8133434 154.551261,11.1981978 C155.643235,10.5830522 156.829848,10.2754794 158.111098,10.2754794 C159.28315,10.2754794 160.358745,10.5102539 161.337882,10.9798029 C162.317019,11.4493519 163.15602,12.1391158 163.854883,13.0490945 L163.854883,13.0490945 L165.121574,12.0772372 C164.349912,11.0071023 163.359855,10.1753817 162.151403,9.58207564 C160.942951,8.98876953 159.588903,8.69211648 158.089258,8.69211648 C155.606836,8.69211648 153.541185,9.49471768 151.892303,11.0999201 C150.243422,12.7051225 149.418981,14.6834162 149.418981,17.0348011 C149.418981,19.2697088 150.099645,21.1770241 151.460973,22.7567472 C153.084375,24.6276634 155.301083,25.5631214 158.111098,25.5631214 Z M174.263583,25.4648438 C175.137163,25.4648438 175.919745,25.3319869 176.611329,25.0662731 C177.302912,24.8005593 177.925338,24.4129084 178.478605,23.9033203 C179.031872,23.3937322 179.51962,22.7239879 179.941851,21.8940874 L179.941851,21.8940874 L178.653321,21.2170632 C178.187412,21.996005 177.754262,22.5601918 177.353871,22.9096236 C176.953481,23.2590554 176.467552,23.5393288 175.896085,23.7504439 C175.324619,23.9615589 174.736772,24.0671165 174.132547,24.0671165 C172.880416,24.0671165 171.828481,23.6248668 170.97674,22.7403675 C170.125,21.8558683 169.684571,20.7220348 169.655451,19.3388672 L169.655451,19.3388672 L180.334961,19.3388672 C180.320402,17.7154652 179.883612,16.3614169 179.024592,15.2767223 C177.81614,13.7406783 176.200018,12.9726563 174.176226,12.9726563 C172.210672,12.9726563 170.641868,13.7224787 169.469816,15.2221236 C168.545277,16.401456 168.083008,17.7445845 168.083008,19.2515092 C168.083008,20.8530717 168.628995,22.2890181 169.72097,23.5593484 C170.812944,24.8296786 172.327149,25.4648438 174.263583,25.4648438 Z M178.653321,18.0175781 L169.808328,18.0175781 C170.12136,16.9256037 170.58363,16.1066229 171.195135,15.5606357 C172.032316,14.8108132 173.033292,14.435902 174.198065,14.435902 C174.904208,14.435902 175.577593,14.5851385 176.218218,14.8836115 C176.858843,15.1820845 177.373891,15.5751953 177.763362,16.0629439 C178.152832,16.5506925 178.449485,17.2022372 178.653321,18.0175781 L178.653321,18.0175781 Z M185.27287,25.1590909 L185.27287,20.8021129 C185.27287,19.2369496 185.345668,18.1595348 185.491265,17.5698686 C185.724219,16.6671697 186.206508,15.9100675 186.938131,15.2985618 C187.669754,14.6870561 188.497834,14.3813033 189.422373,14.3813033 C190.230434,14.3813033 190.885618,14.5796786 191.387927,14.9764293 C191.890235,15.37318 192.232387,15.9646662 192.414383,16.7508878 C192.53086,17.209517 192.589098,18.1231357 192.589098,19.4917436 L192.589098,19.4917436 L192.589098,25.1590909 L194.106943,25.1590909 L194.106943,19.0440341 C194.106943,17.4279119 193.943147,16.2376598 193.615554,15.4732777 C193.287962,14.7088956 192.780194,14.1010298 192.09225,13.6496804 C191.404306,13.198331 190.616265,12.9726563 189.728125,12.9726563 C188.854546,12.9726563 188.046485,13.1746715 187.303942,13.5787021 C186.5614,13.9827326 185.884375,14.5924183 185.27287,15.4077592 L185.27287,15.4077592 L185.27287,13.2784091 L183.744106,13.2784091 L183.744106,25.1590909 L185.27287,25.1590909 Z M200.81385,25.1590909 L200.81385,14.5887784 L203.238033,14.5887784 L203.238033,13.2784091 L200.81385,13.2784091 L200.81385,8.86683239 L199.274166,8.86683239 L199.274166,13.2784091 L197.188495,13.2784091 L197.188495,14.5887784 L199.274166,14.5887784 L199.274166,25.1590909 L200.81385,25.1590909 Z M211.091513,25.4648438 C212.249006,25.4648438 213.211764,25.2300692 213.979786,24.7605202 C214.747808,24.2909712 215.322914,23.6412464 215.705105,22.8113459 C216.087296,21.9814453 216.278392,20.7475142 216.278392,19.1095526 L216.278392,19.1095526 L216.278392,13.2784091 L214.716868,13.2784091 L214.716868,18.8256392 C214.716868,20.3107244 214.64043,21.2825817 214.487554,21.7412109 C214.261879,22.4109553 213.852389,22.9514826 213.259082,23.362793 C212.665776,23.7741033 211.943253,23.9797585 211.091513,23.9797585 C210.239773,23.9797585 209.50633,23.7686435 208.891185,23.3464134 C208.276039,22.9241832 207.859269,22.3490767 207.640874,21.6210938 C207.495277,21.1115057 207.422479,20.1796875 207.422479,18.8256392 L207.422479,18.8256392 L207.422479,13.2784091 L205.882795,13.2784091 L205.882795,19.0003551 C205.882795,20.6892756 206.073891,21.954146 206.456082,22.7949663 C206.838273,23.6357866 207.417019,24.2909712 208.192321,24.7605202 C208.967623,25.2300692 209.93402,25.4648438 211.091513,25.4648438 Z M221.2163,25.1590909 L221.2163,21.140625 C221.2163,19.0804332 221.310938,17.7118253 221.500214,17.0348011 C221.747728,16.1539418 222.108079,15.504217 222.581268,15.0856268 C223.054457,14.6670366 223.545846,14.4577415 224.055434,14.4577415 C224.273829,14.4577415 224.543182,14.5268999 224.863495,14.6652166 L224.863495,14.6652166 L225.660636,13.3766868 C225.180167,13.1073331 224.728818,12.9726563 224.306588,12.9726563 C223.746041,12.9726563 223.207334,13.1419123 222.690466,13.4804244 C222.173598,13.8189364 221.682209,14.3303445 221.2163,15.0146484 L221.2163,15.0146484 L221.2163,13.2784091 L219.654777,13.2784091 L219.654777,25.1590909 L221.2163,25.1590909 Z M230.445668,29.5051491 L237.532582,13.2784091 L235.90554,13.2784091 L231.941673,22.4291548 L227.857689,13.2784091 L226.241567,13.2784091 L231.122692,24.2636719 L228.829546,29.5051491 L230.445668,29.5051491 Z M255.445331,25.5631214 C257.891354,25.5631214 259.844168,24.8333185 261.303774,23.3737127 C262.763379,21.9141069 263.500462,19.943093 263.515022,17.4606712 L263.515022,17.4606712 L256.591904,17.4606712 L256.591904,19.0112749 L261.713264,19.0112749 C261.502149,20.4963601 260.825125,21.7048118 259.682192,22.63663 C258.539258,23.5684482 257.141531,24.0343572 255.48901,24.0343572 C254.127682,24.0343572 252.875551,23.7231445 251.732618,23.1007191 C250.589685,22.4782937 249.694265,21.6229137 249.046361,20.5345792 C248.398456,19.4462447 248.074503,18.2978516 248.074503,17.0893999 C248.074503,15.9100675 248.387536,14.7907937 249.013601,13.7315785 C249.639667,12.6723633 250.522346,11.8333629 251.661639,11.2145774 C252.800933,10.5957919 254.000285,10.2863991 255.259695,10.2863991 C256.271591,10.2863991 257.310787,10.5138938 258.377282,10.9688832 C259.443777,11.4238725 260.424734,12.0917969 261.320153,12.9726563 L261.320153,12.9726563 L262.565004,11.7933239 C261.422071,10.7086293 260.250018,9.92058771 259.048846,9.42919922 C257.847675,8.93781072 256.566425,8.69211648 255.205096,8.69211648 C253.523456,8.69211648 252.016531,9.06156783 250.684322,9.80047053 C249.352113,10.5393732 248.303818,11.5640092 247.539436,12.8743786 C246.775054,14.1847479 246.392863,15.6006747 246.392863,17.1221591 C246.392863,19.1677912 247.058967,20.969549 248.391176,22.5274325 C250.123775,24.5512251 252.47516,25.5631214 255.445331,25.5631214 Z M272.504155,25.4648438 C274.316833,25.4648438 275.800098,24.8442383 276.953951,23.6030273 C278.107804,22.3618164 278.684731,20.9113104 278.684731,19.2515092 C278.684731,17.5989879 278.138743,16.1685014 277.046769,14.9600497 C275.845597,13.6351207 274.331393,12.9726563 272.504155,12.9726563 C270.669638,12.9726563 269.151794,13.6387607 267.950622,14.9709695 C266.858648,16.1794212 266.31266,17.6062678 266.31266,19.2515092 C266.31266,20.9113104 266.889587,22.3618164 268.04344,23.6030273 C269.197293,24.8442383 270.684198,25.4648438 272.504155,25.4648438 Z M272.504155,24.0125178 C271.659695,24.0125178 270.884393,23.8105025 270.17825,23.4064719 C269.472106,23.0024414 268.91156,22.4291548 268.496609,21.6866122 C268.081659,20.9440696 267.874184,20.1432884 267.874184,19.2842685 C267.874184,17.9520597 268.329173,16.8164062 269.239152,15.8773082 C270.149131,14.9382102 271.237465,14.4686612 272.504155,14.4686612 C273.763566,14.4686612 274.85008,14.9382102 275.763699,15.8773082 C276.677318,16.8164062 277.134127,17.9520597 277.134127,19.2842685 C277.134127,20.1432884 276.926652,20.9440696 276.511702,21.6866122 C276.096751,22.4291548 275.536204,23.0024414 274.830061,23.4064719 C274.123918,23.8105025 273.348616,24.0125178 272.504155,24.0125178 Z M284.954848,25.1590909 L284.954848,14.5887784 L287.379031,14.5887784 L287.379031,13.2784091 L284.954848,13.2784091 L284.954848,8.86683239 L283.415164,8.86683239 L283.415164,13.2784091 L281.329493,13.2784091 L281.329493,14.5887784 L283.415164,14.5887784 L283.415164,25.1590909 L284.954848,25.1590909 Z M291.749113,25.1590909 L291.749113,20.8021129 C291.749113,19.2296697 291.821911,18.152255 291.967508,17.5698686 C292.200462,16.6671697 292.682751,15.9100675 293.414374,15.2985618 C294.145997,14.6870561 294.974077,14.3813033 295.898616,14.3813033 C296.706677,14.3813033 297.360041,14.5796786 297.85871,14.9764293 C298.357378,15.37318 298.70135,15.9646662 298.890626,16.7508878 C298.999823,17.209517 299.054422,18.1231357 299.054422,19.4917436 L299.054422,19.4917436 L299.054422,25.1590909 L300.583186,25.1590909 L300.583186,19.0440341 C300.583186,17.4206321 300.41939,16.22856 300.091798,15.4678178 C299.764205,14.7070756 299.256437,14.1010298 298.568493,13.6496804 C297.880549,13.198331 297.092508,12.9726563 296.204369,12.9726563 C295.338069,12.9726563 294.533648,13.1746715 293.791105,13.5787021 C293.048562,13.9827326 292.367898,14.5924183 291.749113,15.4077592 L291.749113,15.4077592 L291.749113,8.69211648 L290.220349,8.69211648 L290.220349,25.1590909 L291.749113,25.1590909 Z M304.953268,10.9088246 C305.3027,10.9088246 305.601173,10.7850675 305.848687,10.5375533 C306.096201,10.2900391 306.219958,9.99520597 306.219958,9.65305398 C306.219958,9.30362216 306.096201,9.00514915 305.848687,8.75763494 C305.601173,8.51012074 305.3027,8.38636364 304.953268,8.38636364 C304.611116,8.38636364 304.316283,8.51012074 304.068768,8.75763494 C303.821254,9.00514915 303.697497,9.30362216 303.697497,9.65305398 C303.697497,9.99520597 303.821254,10.2900391 304.068768,10.5375533 C304.316283,10.7850675 304.611116,10.9088246 304.953268,10.9088246 Z M305.72857,25.1590909 L305.72857,13.2784091 L304.188886,13.2784091 L304.188886,25.1590909 L305.72857,25.1590909 Z M315.427486,25.4648438 C316.650498,25.4648438 317.740652,25.2300692 318.69795,24.7605202 C319.655248,24.2909712 320.41781,23.6303267 320.985636,22.7785866 L320.985636,22.7785866 L319.773545,21.9814453 C318.667011,23.3718928 317.240164,24.0671165 315.493005,24.0671165 C314.539347,24.0671165 313.678507,23.8560014 312.910485,23.4337713 C312.142463,23.0115412 311.538238,22.4182351 311.097808,21.653853 C310.657378,20.8894709 310.437163,20.07413 310.437163,19.2078303 C310.437163,17.8756214 310.915812,16.743608 311.87311,15.8117898 C312.830407,14.8799716 314.033399,14.4140625 315.482085,14.4140625 C317.294763,14.4140625 318.725249,15.1092862 319.773545,16.4997337 L319.773545,16.4997337 L320.985636,15.7462713 C320.628925,15.1493253 320.195775,14.6579368 319.686187,14.2721058 C319.176599,13.8862749 318.555993,13.5732422 317.82437,13.3330078 C317.092748,13.0927734 316.333825,12.9726563 315.547604,12.9726563 C314.295473,12.9726563 313.16346,13.2492898 312.151563,13.8025568 C311.139667,14.3558239 310.344346,15.1256658 309.765599,16.1120827 C309.186853,17.0984996 308.897479,18.1668146 308.897479,19.3170277 C308.897479,21.0277876 309.516265,22.4801136 310.753836,23.6740057 C311.991407,24.8678977 313.54929,25.4648438 315.427486,25.4648438 Z M333.176439,25.1590909 L333.176439,17.6899858 L334.093697,17.6899858 L339.859322,25.1590909 L341.846716,25.1590909 L336.070171,17.6899858 C337.41694,17.682706 338.472515,17.50981 339.236897,17.1712979 C340.001279,16.8327859 340.589125,16.3322976 341.000436,15.6698331 C341.411746,15.0073686 341.617401,14.2393466 341.617401,13.365767 C341.617401,12.3174716 341.318928,11.4347923 340.721982,10.717729 C340.125036,10.0006658 339.349734,9.53293679 338.396077,9.3145419 C337.762732,9.16894531 336.55428,9.09614702 334.770722,9.09614702 L331.571237,9.09614702 L331.571237,25.1590909 L333.176439,25.1590909 Z M335.939134,16.1503018 L333.176439,16.1284624 L333.176439,10.6685902 L336.004653,10.6685902 C337.103907,10.6685902 337.890129,10.763228 338.363318,10.9525036 C338.836506,11.1417791 339.218697,11.4566317 339.509891,11.8970614 C339.801084,12.3374911 339.94668,12.8270597 339.94668,13.365767 C339.94668,13.9190341 339.802904,14.4195224 339.515351,14.8672319 C339.227797,15.3149414 338.827407,15.6407138 338.314179,15.844549 C337.800951,16.0483842 337.009269,16.1503018 335.939134,16.1503018 L335.939134,16.1503018 Z M350.977806,25.4648438 C351.851386,25.4648438 352.633967,25.3319869 353.325551,25.0662731 C354.017135,24.8005593 354.63956,24.4129084 355.192827,23.9033203 C355.746095,23.3937322 356.233843,22.7239879 356.656073,21.8940874 L356.656073,21.8940874 L355.367543,21.2170632 C354.901634,21.996005 354.468484,22.5601918 354.068094,22.9096236 C353.667703,23.2590554 353.181775,23.5393288 352.610308,23.7504439 C352.038841,23.9615589 351.450995,24.0671165 350.846769,24.0671165 C349.594639,24.0671165 348.542703,23.6248668 347.690963,22.7403675 C346.839223,21.8558683 346.398793,20.7220348 346.369674,19.3388672 L346.369674,19.3388672 L357.049184,19.3388672 C357.034624,17.7154652 356.597835,16.3614169 355.738815,15.2767223 C354.530363,13.7406783 352.914241,12.9726563 350.890448,12.9726563 C348.924894,12.9726563 347.356091,13.7224787 346.184038,15.2221236 C345.2595,16.401456 344.797231,17.7445845 344.797231,19.2515092 C344.797231,20.8530717 345.343218,22.2890181 346.435193,23.5593484 C347.527167,24.8296786 349.041372,25.4648438 350.977806,25.4648438 Z M355.367543,18.0175781 L346.52255,18.0175781 C346.835583,16.9256037 347.297852,16.1066229 347.909358,15.5606357 C348.746538,14.8108132 349.747515,14.435902 350.912288,14.435902 C351.618431,14.435902 352.291815,14.5851385 352.93244,14.8836115 C353.573065,15.1820845 354.088113,15.5751953 354.477584,16.0629439 C354.867055,16.5506925 355.163708,17.2022372 355.367543,18.0175781 L355.367543,18.0175781 Z M366.136595,29.810902 C367.527043,29.810902 368.717295,29.5160689 369.707352,28.9264027 C370.697408,28.3367365 371.392632,27.4959162 371.793023,26.4039418 C372.084216,25.6322798 372.229813,24.4129084 372.229813,22.7458274 L372.229813,22.7458274 L372.229813,13.2784091 L370.690129,13.2784091 L370.690129,15.3422408 C369.976705,14.4977805 369.235983,13.8917347 368.467961,13.5241033 C367.699939,13.1564719 366.871858,12.9726563 365.983719,12.9726563 C364.913584,12.9726563 363.896228,13.2492898 362.93165,13.8025568 C361.967073,14.3558239 361.211791,15.1074663 360.665803,16.057484 C360.119816,17.0075018 359.846823,18.0321378 359.846823,19.131392 C359.846823,20.2306463 360.108896,21.2389027 360.633044,22.1561612 C361.157192,23.0734197 361.899734,23.8032227 362.860672,24.34557 C363.821609,24.8879173 364.848065,25.1590909 365.94004,25.1590909 C366.871858,25.1590909 367.752717,24.9643555 368.582618,24.5748846 C369.412519,24.1854137 370.115022,23.6266868 370.690129,22.8987038 L370.690129,22.8987038 L370.690129,23.5102095 C370.690129,24.8205788 370.537252,25.7705966 370.231499,26.3602628 C369.925747,26.949929 369.414339,27.4394975 368.697275,27.8289684 C367.980212,28.2184393 367.101173,28.4131747 366.060157,28.4131747 C365.004582,28.4131747 364.120082,28.2238991 363.406659,27.845348 C362.693236,27.4667969 362.11085,26.8844105 361.6595,26.0981889 L361.6595,26.0981889 L359.999699,26.0981889 C360.429209,27.0300071 360.898758,27.7379705 361.408346,28.2220792 C361.917934,28.7061879 362.578579,29.0920188 363.39028,29.3795721 C364.201981,29.6671254 365.117419,29.810902 366.136595,29.810902 Z M366.092916,23.7176847 C364.702469,23.7176847 363.570455,23.2918146 362.696876,22.4400746 C361.823296,21.5883345 361.386506,20.5109197 361.386506,19.2078303 C361.386506,18.3488104 361.597622,17.5498491 362.019852,16.8109464 C362.442082,16.0720437 363.024468,15.4932972 363.767011,15.074707 C364.509553,14.6561168 365.313975,14.4468217 366.180274,14.4468217 C367.010175,14.4468217 367.785477,14.650657 368.50618,15.0583274 C369.226883,15.4659979 369.78379,16.0210849 370.176901,16.7235884 C370.570011,17.426092 370.766567,18.2250533 370.766567,19.1204723 C370.766567,20.4963601 370.338877,21.6065341 369.483497,22.4509943 C368.628117,23.2954545 367.497923,23.7176847 366.092916,23.7176847 Z M381.076989,25.4648438 C382.234482,25.4648438 383.19724,25.2300692 383.965262,24.7605202 C384.733284,24.2909712 385.30839,23.6412464 385.690581,22.8113459 C386.072772,21.9814453 386.263868,20.7475142 386.263868,19.1095526 L386.263868,19.1095526 L386.263868,13.2784091 L384.702345,13.2784091 L384.702345,18.8256392 C384.702345,20.3107244 384.625906,21.2825817 384.47303,21.7412109 C384.247355,22.4109553 383.837865,22.9514826 383.244559,23.362793 C382.651253,23.7741033 381.92873,23.9797585 381.076989,23.9797585 C380.225249,23.9797585 379.491807,23.7686435 378.876661,23.3464134 C378.261515,22.9241832 377.844745,22.3490767 377.62635,21.6210938 C377.480754,21.1115057 377.407955,20.1796875 377.407955,18.8256392 L377.407955,18.8256392 L377.407955,13.2784091 L375.868271,13.2784091 L375.868271,19.0003551 C375.868271,20.6892756 376.059367,21.954146 376.441558,22.7949663 C376.823749,23.6357866 377.402496,24.2909712 378.177797,24.7605202 C378.953099,25.2300692 379.919497,25.4648438 381.076989,25.4648438 Z M391.518449,25.1590909 L391.518449,8.69211648 L389.989685,8.69211648 L389.989685,25.1590909 L391.518449,25.1590909 Z M400.813335,25.4648438 C401.759713,25.4648438 402.631473,25.2682884 403.428614,24.8751776 C404.225755,24.4820668 404.944639,23.8960405 405.585264,23.1170987 L405.585264,23.1170987 L405.585264,25.1590909 L407.092188,25.1590909 L407.092188,13.2784091 L405.585264,13.2784091 L405.585264,15.462358 C404.988318,14.6324574 404.294914,14.010032 403.505052,13.5950817 C402.715191,13.1801314 401.832512,12.9726563 400.857014,12.9726563 C399.168094,12.9726563 397.723048,13.580522 396.521876,14.7962536 C395.320704,16.0119851 394.720118,17.4752308 394.720118,19.1859908 C394.720118,20.9331499 395.315244,22.4164151 396.505496,23.6357866 C397.695748,24.855158 399.131695,25.4648438 400.813335,25.4648438 Z M400.966212,24.0671165 C400.136311,24.0671165 399.359189,23.8541815 398.634846,23.4283114 C397.910503,23.0024414 397.333577,22.4073153 396.904067,21.6429332 C396.474557,20.8785511 396.259802,20.0777699 396.259802,19.2405895 C396.259802,18.3961293 396.472737,17.595348 396.898607,16.8382457 C397.324477,16.0811435 397.897764,15.4932972 398.618467,15.074707 C399.33917,14.6561168 400.125392,14.4468217 400.977132,14.4468217 C402.302061,14.4468217 403.417694,14.9090909 404.324033,15.8336293 C405.230372,16.7581676 405.683541,17.9083807 405.683541,19.2842685 C405.683541,20.1869673 405.481526,20.9986683 405.077496,21.7193714 C404.673465,22.4400746 404.096539,23.0115412 403.346716,23.4337713 C402.596894,23.8560014 401.803392,24.0671165 400.966212,24.0671165 Z M412.073776,25.1590909 L412.073776,21.140625 C412.073776,19.0804332 412.168414,17.7118253 412.357689,17.0348011 C412.605203,16.1539418 412.965555,15.504217 413.438744,15.0856268 C413.911933,14.6670366 414.403321,14.4577415 414.912909,14.4577415 C415.131304,14.4577415 415.400658,14.5268999 415.72097,14.6652166 L415.72097,14.6652166 L416.518112,13.3766868 C416.037643,13.1073331 415.586294,12.9726563 415.164063,12.9726563 C414.603517,12.9726563 414.064809,13.1419123 413.547941,13.4804244 C413.031073,13.8189364 412.539685,14.3303445 412.073776,15.0146484 L412.073776,15.0146484 L412.073776,13.2784091 L410.512252,13.2784091 L410.512252,25.1590909 L412.073776,25.1590909 Z M430.718147,25.1590909 L430.718147,9.09614702 L427.562341,9.09614702 L426.601404,10.6685902 L429.123865,10.6685902 L429.123865,25.1590909 L430.718147,25.1590909 Z M442.753889,25.5631214 C443.663868,25.5631214 444.513788,25.3429066 445.30365,24.9024769 C446.093511,24.4620472 446.703197,23.8687411 447.132707,23.1225586 C447.562217,22.3763761 447.776972,21.5410156 447.776972,20.6164773 C447.776972,19.2697088 447.332902,18.1358754 446.444763,17.2149769 C445.556624,16.2940785 444.475569,15.8336293 443.201599,15.8336293 C442.692011,15.8336293 442.146024,15.931907 441.563637,16.1284624 L441.563637,16.1284624 L445.898776,9.55477628 L444.577487,8.69211648 L439.707281,15.9646662 C439.022977,16.9838423 438.547968,17.8556019 438.282254,18.579945 C438.01654,19.304288 437.883684,19.9940518 437.883684,20.6492365 C437.883684,21.5300959 438.098438,22.3563565 438.527948,23.1280185 C438.957458,23.8996804 439.548945,24.4984464 440.302407,24.9243164 C441.055869,25.3501864 441.87303,25.5631214 442.753889,25.5631214 Z M442.819408,24.001598 C441.88759,24.001598 441.092268,23.6721857 440.433444,23.0133612 C439.774619,22.3545366 439.445207,21.5592152 439.445207,20.627397 C439.445207,19.688299 439.774619,18.8893377 440.433444,18.2305131 C441.092268,17.5716886 441.88759,17.2422763 442.819408,17.2422763 C443.751226,17.2422763 444.546548,17.5716886 445.205372,18.2305131 C445.864197,18.8893377 446.193609,19.688299 446.193609,20.627397 C446.193609,21.5592152 445.864197,22.3545366 445.205372,23.0133612 C444.546548,23.6721857 443.751226,24.001598 442.819408,24.001598 Z" id="Bodytext|CenturyGothicRegular16" fill="#100E2B"></path>
        </g>
    </g>
</svg>