<?xml version="1.0" encoding="UTF-8"?>
<svg width="527px" height="121px" viewBox="0 0 527 121" version="1.1" xmlns="http://www.w3.org/2000/svg" xmlns:xlink="http://www.w3.org/1999/xlink">
    <title>h1</title>
    <g id="h1" stroke="none" stroke-width="1" fill="none" fill-rule="evenodd">
        <g id="typography" transform="translate(1.823597, 8.840909)" fill="#100E2B" fill-rule="nonzero">
            <path d="M3.10120739,108.159091 L3.10120739,101.115856 L8.47372159,101.115856 L8.47372159,108.159091 L11.5640092,108.159091 L11.5640092,92.096147 L8.47372159,92.096147 L8.47372159,98.1566051 L3.10120739,98.1566051 L3.10120739,92.096147 L0,92.096147 L0,108.159091 L3.10120739,108.159091 Z M20.7232481,108.563121 C22.3684896,108.563121 23.7225379,108.062633 24.785393,107.061657 C25.8482481,106.06068 26.3796757,104.839489 26.3796757,103.398082 C26.3796757,102.415305 26.1048621,101.561745 25.555235,100.837402 C25.0056079,100.113059 24.2430457,99.6052912 23.2675485,99.314098 C24.0100912,98.9501065 24.5760979,98.4732777 24.9655688,97.8836115 C25.3550397,97.2939453 25.5497751,96.6424006 25.5497751,95.9289773 C25.5497751,94.7787642 25.1038856,93.7850675 24.2121064,92.9478871 C23.3203273,92.1107067 22.2156132,91.6921165 20.897964,91.6921165 C19.4201586,91.6921165 18.1935074,92.1944247 17.2180102,93.1990412 C16.5191466,93.9197443 16.0932765,94.873402 15.9404001,96.0600142 L15.9404001,96.0600142 L18.8778113,96.0600142 C19.0088483,95.6377841 19.2527226,95.2938121 19.6094342,95.0280984 C19.9661458,94.7623846 20.3628966,94.6295277 20.7996863,94.6295277 C21.2947147,94.6295277 21.6951054,94.7733043 22.0008582,95.0608576 C22.306611,95.3484109 22.4594875,95.7105824 22.4594875,96.1473722 C22.4594875,96.4822443 22.3593898,96.7989169 22.1591945,97.0973899 C21.9589992,97.3958629 21.6787258,97.6306374 21.3183742,97.8017134 C20.9580226,97.9727894 20.4102155,98.0874467 19.6749527,98.1456854 L19.6749527,98.1456854 L19.6749527,100.766424 C20.8688447,100.780984 21.7824633,101.039418 22.4158085,101.541726 C23.0491537,102.044034 23.3658262,102.65918 23.3658262,103.387163 C23.3658262,104.049627 23.1310517,104.610174 22.6615027,105.068803 C22.1919537,105.527433 21.6004676,105.756747 20.8870443,105.756747 C20.2027403,105.756747 19.6367336,105.554732 19.189024,105.150701 C18.7413145,104.746671 18.4519413,104.129705 18.3209044,103.299805 L18.3209044,103.299805 L15.2961352,103.299805 C15.390773,104.923207 15.9294804,106.206277 16.9122574,107.149015 C17.8950343,108.091752 19.1653646,108.563121 20.7232481,108.563121 Z M43.4751421,112.505149 L43.4751421,91.6921165 L41.7498225,91.6921165 L41.7498225,112.505149 L43.4751421,112.505149 Z M67.6138436,108.563121 C68.9678919,108.563121 70.1727037,108.339267 71.228279,107.891557 C72.2838542,107.443848 73.404948,106.641246 74.5915602,105.483754 L74.5915602,105.483754 L72.5168088,103.321644 C71.6359494,104.195224 70.8278883,104.79763 70.0926256,105.128862 C69.3573628,105.460094 68.5456618,105.62571 67.6575226,105.62571 C66.6165069,105.62571 65.6701291,105.389116 64.818389,104.915927 C63.966649,104.442738 63.3078244,103.791193 62.8419153,102.961293 C62.3760062,102.131392 62.1430517,101.181374 62.1430517,100.111239 C62.1430517,98.5751953 62.6690194,97.2830256 63.7209547,96.2347301 C64.7728901,95.1864347 66.0668798,94.6622869 67.6029239,94.6622869 C69.4228812,94.6622869 71.0608429,95.4303089 72.5168088,96.966353 L72.5168088,96.966353 L74.6570787,94.9243608 C73.7689395,93.890625 72.7115442,93.0934837 71.484893,92.5329368 C70.2582417,91.9723899 68.9824515,91.6921165 67.6575226,91.6921165 C66.099639,91.6921165 64.6454931,92.0706676 63.2950847,92.8277699 C61.9446763,93.5848722 60.9073006,94.5858487 60.1829576,95.8306996 C59.4586145,97.0755504 59.096443,98.4987571 59.096443,100.10032 C59.096443,102.575462 59.8917644,104.604714 61.4824072,106.188077 C63.0730499,107.77144 65.1168621,108.563121 67.6138436,108.563121 Z M84.0019532,108.464844 C85.2031251,108.464844 86.2405008,108.251909 87.1140804,107.826039 C87.9876599,107.400169 88.7374823,106.743164 89.3635477,105.855025 L89.3635477,105.855025 L86.8520065,104.675692 C86.0512252,105.454634 85.0939277,105.844105 83.9801137,105.844105 C83.0482956,105.844105 82.2820935,105.594771 81.6815076,105.096103 C81.0809216,104.597434 80.7114703,103.92587 80.5731535,103.08141 L80.5731535,103.08141 L90.1497693,103.08141 L90.160689,102.513583 C90.160689,100.548029 89.5746627,98.9664862 88.4026102,97.7689542 C87.2305576,96.5714222 85.7090733,95.9726563 83.8381571,95.9726563 C82.0764383,95.9726563 80.6113726,96.5714222 79.44296,97.7689542 C78.2745473,98.9664862 77.690341,100.471591 77.690341,102.284268 C77.690341,104.053267 78.2763673,105.525613 79.4484198,106.701305 C80.6204724,107.876998 82.1383169,108.464844 84.0019532,108.464844 Z M87.1577593,100.733665 L80.7041904,100.733665 C81.0390626,99.998402 81.4030541,99.485174 81.7961649,99.1939808 C82.4222302,98.7280717 83.1502132,98.4951172 83.9801137,98.4951172 C84.7444958,98.4951172 85.4160601,98.7025923 85.9948066,99.1175426 C86.573553,99.5324929 86.9612039,100.0712 87.1577593,100.733665 L87.1577593,100.733665 Z M96.7756275,108.159091 L96.776296,103.128599 C96.7820902,102.036884 96.8255463,101.318651 96.9066644,100.973899 C97.0741005,100.260476 97.3743935,99.7017489 97.8075433,99.2977184 C98.2406932,98.8936879 98.759381,98.6916726 99.3636069,98.6916726 C99.829516,98.6916726 100.220807,98.8136097 100.537479,99.057484 C100.854152,99.3013583 101.076187,99.65625 101.203584,100.122159 C101.330981,100.588068 101.394679,101.530806 101.394679,102.950373 L101.394679,102.950373 L101.394679,108.159091 L104.34301,108.159091 L104.34301,100.307795 C104.34301,98.9391868 103.997218,97.905451 103.305635,97.2065874 C102.483014,96.3839666 101.482037,95.9726563 100.302705,95.9726563 C99.7275984,95.9726563 99.1652315,96.0836737 98.6156044,96.3057085 C98.0659773,96.5277433 97.4526516,96.922674 96.7756275,97.4905007 L96.7756275,97.4905007 L96.7756275,96.2784091 L93.805457,96.2784091 L93.805457,108.159091 L96.7756275,108.159091 Z M111.798769,108.159091 L111.798769,98.844549 L113.567768,98.844549 L113.567768,96.2784091 L111.798769,96.2784091 L111.798769,91.8995916 L108.828599,91.8995916 L108.828599,96.2784091 L107.299834,96.2784091 L107.299834,98.844549 L108.828599,98.844549 L108.828599,108.159091 L111.798769,108.159091 Z M121.613193,108.464844 C122.814364,108.464844 123.804421,108.21551 124.583363,107.716841 C125.362305,107.218173 125.951971,106.50293 126.352362,105.571112 C126.679954,104.806729 126.84375,103.387163 126.84375,101.312411 L126.84375,101.312411 L126.84375,96.2784091 L123.85174,96.2784091 L123.85174,102.098633 C123.85174,103.219727 123.789862,103.951349 123.666105,104.293501 C123.498668,104.752131 123.242054,105.099743 122.896263,105.336337 C122.550471,105.572931 122.130061,105.691229 121.635032,105.691229 C121.140004,105.691229 120.723233,105.571112 120.384721,105.330877 C120.046209,105.090643 119.800515,104.753951 119.647639,104.320801 C119.494762,103.887651 119.418324,103.114169 119.418324,102.000355 L119.418324,102.000355 L119.418324,96.2784091 L116.404475,96.2784091 L116.404475,101.225053 C116.404475,103.125089 116.520952,104.435458 116.753906,105.156161 C117.081499,106.197177 117.647505,107.008878 118.451927,107.591264 C119.256348,108.173651 120.310103,108.464844 121.613193,108.464844 Z M133.338571,108.159091 L133.338571,103.354403 L133.327652,102.775657 C133.327652,101.115856 133.485988,100.002042 133.802661,99.4342152 C134.119333,98.8663885 134.506984,98.5824751 134.965613,98.5824751 C135.191288,98.5824751 135.478841,98.6698331 135.828273,98.844549 L135.828273,98.844549 L136.756451,96.2784091 C136.334221,96.0745739 135.930191,95.9726563 135.54436,95.9726563 C134.998373,95.9726563 134.496064,96.1255327 134.037435,96.4312855 C133.578806,96.7370384 133.211174,97.1847479 132.934541,97.7744141 L132.934541,97.7744141 L132.934541,96.2784091 L130.379321,96.2784091 L130.379321,108.159091 L133.338571,108.159091 Z M143.305871,112.505149 L150.753137,96.2784091 L147.695609,96.2784091 L144.288648,103.736594 L141.198361,96.2784091 L138.151752,96.2784091 L142.672526,107.274592 L140.226503,112.505149 L143.305871,112.505149 Z M169.497485,108.563121 C171.055368,108.563121 172.413057,108.231889 173.570549,107.569425 C174.728042,106.90696 175.67078,105.946023 176.398763,104.686612 C177.126746,103.427202 177.490738,102.094993 177.490738,100.689986 L177.490738,100.689986 L177.468898,100.012962 L169.388287,100.012962 L169.388287,102.884854 L174.040098,102.884854 C173.596029,103.831232 173.011823,104.526456 172.287479,104.970526 C171.563136,105.414595 170.673177,105.63663 169.617602,105.63663 C167.9942,105.63663 166.629232,105.097923 165.522698,104.020508 C164.416164,102.943093 163.862897,101.629084 163.862897,100.07848 C163.862897,98.5788352 164.396144,97.3048651 165.462639,96.2565696 C166.529134,95.2082741 167.852243,94.6841264 169.431966,94.6841264 C171.244644,94.6841264 172.831647,95.4048295 174.192975,96.8462358 L174.192975,96.8462358 L176.344165,94.7168857 C175.361388,93.6540305 174.356771,92.9042081 173.330315,92.4674183 C172.114584,91.9505504 170.807854,91.6921165 169.410127,91.6921165 C166.738429,91.6921165 164.56904,92.6275746 162.901959,94.4984908 C161.496952,96.0709339 160.794449,97.9200107 160.794449,100.045721 C160.794449,101.596325 161.17482,103.041371 161.935562,104.380859 C162.696304,105.720348 163.73004,106.752264 165.036769,107.476607 C166.343499,108.20095 167.830404,108.563121 169.497485,108.563121 Z M186.802853,108.464844 C187.960346,108.464844 189.019561,108.19003 189.980499,107.640403 C190.941436,107.090776 191.700358,106.328214 192.257265,105.352717 C192.814172,104.377219 193.092626,103.328924 193.092626,102.20783 C193.092626,101.094016 192.815992,100.056641 192.262725,99.0957031 C191.709458,98.1347656 190.939616,97.3740234 189.953199,96.8134766 C188.966782,96.2529297 187.913027,95.9726563 186.791933,95.9726563 C185.24133,95.9726563 183.869082,96.5113636 182.67519,97.5887784 C181.313861,98.8263494 180.633197,100.373313 180.633197,102.22967 C180.633197,103.962269 181.235603,105.434615 182.440415,106.646706 C183.645227,107.858798 185.099373,108.464844 186.802853,108.464844 Z M186.824692,105.691229 C185.892874,105.691229 185.123032,105.370916 184.515167,104.730291 C183.907301,104.089666 183.603368,103.252486 183.603368,102.21875 C183.603368,101.214134 183.910941,100.389693 184.526086,99.7454279 C185.141232,99.101163 185.911074,98.7790305 186.835612,98.7790305 C187.78199,98.7790305 188.559112,99.0975231 189.166978,99.7345082 C189.774843,100.371493 190.078776,101.199574 190.078776,102.21875 C190.078776,103.237926 189.769384,104.071467 189.150598,104.719371 C188.531812,105.367276 187.756511,105.691229 186.824692,105.691229 Z M200.100675,108.159091 L200.100675,98.844549 L201.869674,98.844549 L201.869674,96.2784091 L200.100675,96.2784091 L200.100675,91.8995916 L197.130505,91.8995916 L197.130505,96.2784091 L195.60174,96.2784091 L195.60174,98.844549 L197.130505,98.844549 L197.130505,108.159091 L200.100675,108.159091 Z M207.687471,108.159091 L207.688139,103.121189 C207.693933,101.999055 207.737389,101.272372 207.818508,100.94114 C207.985944,100.249556 208.286237,99.7035689 208.719387,99.3031783 C209.152536,98.9027876 209.671224,98.7025923 210.27545,98.7025923 C210.741359,98.7025923 211.13265,98.8227095 211.449323,99.0629439 C211.765995,99.3031783 211.98985,99.6671697 212.120887,100.154918 C212.251924,100.642667 212.317442,101.574485 212.317442,102.950373 L212.317442,102.950373 L212.317442,108.159091 L215.254853,108.159091 L215.254853,100.307795 C215.254853,98.9391868 214.909062,97.9018111 214.217478,97.1956676 C213.409417,96.3803267 212.41572,95.9726563 211.236388,95.9726563 C210.632162,95.9726563 210.035216,96.0982333 209.44555,96.3493874 C208.855883,96.6005415 208.269857,96.9772727 207.687471,97.479581 L207.687471,97.479581 L207.687471,91.6921165 L204.72822,91.6921165 L204.72822,108.159091 L207.687471,108.159091 Z M220.570342,95.2519531 C221.08721,95.2519531 221.53128,95.0644975 221.902551,94.6895863 C222.273822,94.3146751 222.459458,93.8615057 222.459458,93.3300781 C222.459458,92.7913707 222.272003,92.3327415 221.897091,91.9541903 C221.52218,91.5756392 221.072651,91.3863636 220.548503,91.3863636 C220.024355,91.3863636 219.576646,91.5719993 219.205374,91.9432706 C218.834103,92.3145419 218.648467,92.7622514 218.648467,93.2863991 C218.648467,93.8323864 218.835923,94.2964755 219.210834,94.6786665 C219.585745,95.0608576 220.038915,95.2519531 220.570342,95.2519531 Z M222.044508,108.159091 L222.044508,96.2784091 L219.052498,96.2784091 L219.052498,108.159091 L222.044508,108.159091 Z M232.088246,108.464844 C234.410512,108.464844 236.20863,107.638583 237.4826,105.986062 L237.4826,105.986062 L235.134855,104.380859 C234.392312,105.290838 233.354936,105.745827 232.022728,105.745827 C230.945313,105.745827 230.075373,105.425515 229.412909,104.78489 C228.750444,104.144265 228.419212,103.318004 228.419212,102.306108 C228.419212,101.265092 228.763184,100.411532 229.451128,99.7454279 C230.139072,99.0793235 231.039951,98.7462713 232.153764,98.7462713 C232.76527,98.7462713 233.298518,98.8409091 233.753507,99.0301847 C234.208496,99.2194602 234.668946,99.5579723 235.134855,100.045721 L235.134855,100.045721 L237.613637,98.6807528 C237.016691,97.8144531 236.248669,97.1465288 235.309571,96.6769798 C234.370473,96.2074308 233.311257,95.9726563 232.131925,95.9726563 C230.857955,95.9726563 229.705922,96.2492898 228.675826,96.8025568 C227.64573,97.3558239 226.843129,98.1165661 226.268022,99.0847834 C225.692916,100.053001 225.405363,101.112216 225.405363,102.262429 C225.405363,103.92223 225.996849,105.370916 227.179821,106.608487 C228.362793,107.846058 229.998935,108.464844 232.088246,108.464844 Z M253.868283,108.159091 C255.164092,108.159091 256.179629,107.975275 256.914891,107.607644 C257.650154,107.240012 258.25074,106.684925 258.716649,105.942383 C259.182558,105.19984 259.415513,104.377219 259.415513,103.474521 C259.415513,102.535423 259.189838,101.721902 258.738489,101.033958 C258.287139,100.346014 257.573716,99.7727273 256.598219,99.314098 C257.180605,98.8773082 257.601015,98.4095792 257.859449,97.9109109 C258.117883,97.4122425 258.2471,96.8571555 258.2471,96.2456499 C258.2471,95.3065518 257.963187,94.4912109 257.39536,93.7996271 C256.827533,93.1080433 256.063151,92.6348544 255.102214,92.3800604 C254.42519,92.1907848 253.355055,92.096147 251.891809,92.096147 L251.891809,92.096147 L249.369348,92.096147 L249.369348,108.159091 L253.868283,108.159091 Z M253.092981,98.3968395 L252.426877,98.3968395 L252.426877,95.0117188 L253.213098,95.0117188 C253.911962,95.0117188 254.43247,95.1591353 254.774622,95.4539684 C255.116774,95.7488015 255.28785,96.1473722 255.28785,96.6496804 C255.28785,97.1883878 255.107674,97.6142578 254.747322,97.9272905 C254.386971,98.2403232 253.835524,98.3968395 253.092981,98.3968395 L253.092981,98.3968395 Z M253.191259,105.243519 L252.426877,105.243519 L252.426877,101.126776 L253.060222,101.126776 C254.261394,101.126776 255.120413,101.326971 255.637281,101.727362 C256.154149,102.127752 256.412583,102.673739 256.412583,103.365323 C256.412583,103.976829 256.192368,104.442738 255.751939,104.76305 C255.311509,105.083363 254.457949,105.243519 253.191259,105.243519 L253.191259,105.243519 Z M268.847745,108.464844 C270.005238,108.464844 271.064453,108.19003 272.025391,107.640403 C272.986328,107.090776 273.745251,106.328214 274.302158,105.352717 C274.859065,104.377219 275.137518,103.328924 275.137518,102.20783 C275.137518,101.094016 274.860885,100.056641 274.307618,99.0957031 C273.75435,98.1347656 272.984509,97.3740234 271.998092,96.8134766 C271.011675,96.2529297 269.957919,95.9726563 268.836826,95.9726563 C267.286222,95.9726563 265.913974,96.5113636 264.720082,97.5887784 C263.358754,98.8263494 262.67809,100.373313 262.67809,102.22967 C262.67809,103.962269 263.280496,105.434615 264.485308,106.646706 C265.690119,107.858798 267.144265,108.464844 268.847745,108.464844 Z M268.869585,105.691229 C267.937767,105.691229 267.167925,105.370916 266.560059,104.730291 C265.952193,104.089666 265.64826,103.252486 265.64826,102.21875 C265.64826,101.214134 265.955833,100.389693 266.570979,99.7454279 C267.186124,99.101163 267.955966,98.7790305 268.880505,98.7790305 C269.826882,98.7790305 270.604004,99.0975231 271.21187,99.7345082 C271.819736,100.371493 272.123669,101.199574 272.123669,102.21875 C272.123669,103.237926 271.814276,104.071467 271.19549,104.719371 C270.576705,105.367276 269.801403,105.691229 268.869585,105.691229 Z M281.479463,108.159091 L281.479463,91.6921165 L278.498373,91.6921165 L278.498373,108.159091 L281.479463,108.159091 Z M290.540424,108.464844 C291.224728,108.464844 291.859893,108.342907 292.44592,108.099032 C293.031946,107.855158 293.616152,107.456587 294.198538,106.90332 L294.198538,106.90332 L294.198538,108.159091 L297.168709,108.159091 L297.168709,91.6921165 L294.198538,91.6921165 L294.198538,97.5887784 C293.667111,97.050071 293.088364,96.6460405 292.462299,96.3766868 C291.836234,96.1073331 291.166489,95.9726563 290.453066,95.9726563 C288.902462,95.9726563 287.584813,96.5586825 286.500119,97.7307351 C285.415424,98.9027876 284.873077,100.406072 284.873077,102.240589 C284.873077,104.009588 285.433624,105.489213 286.554717,106.679466 C287.675811,107.869718 289.00438,108.464844 290.540424,108.464844 Z M291.075492,105.734908 C290.165513,105.734908 289.399311,105.403675 288.776885,104.741211 C288.15446,104.078746 287.843247,103.234286 287.843247,102.20783 C287.843247,101.188654 288.149,100.353294 288.760506,99.7017489 C289.372012,99.0502042 290.140034,98.7244318 291.064572,98.7244318 C292.01095,98.7244318 292.793531,99.0447443 293.412317,99.6853693 C294.031102,100.325994 294.340495,101.163175 294.340495,102.196911 C294.340495,103.252486 294.031102,104.106046 293.412317,104.757591 C292.793531,105.409135 292.01459,105.734908 291.075492,105.734908 Z M315.672822,108.159091 L315.672822,92.096147 L311.09745,92.096147 L309.328451,94.9680398 L312.637133,94.9680398 L312.637133,108.159091 L315.672822,108.159091 Z M327.354522,108.563121 C328.73769,108.563121 329.918842,108.077193 330.897979,107.105336 C331.877116,106.133478 332.366685,104.948686 332.366685,103.550959 C332.366685,102.102273 331.889856,100.890181 330.936198,99.9146839 C329.982541,98.9391868 328.825048,98.4514382 327.46372,98.4514382 L327.46372,98.4514382 L330.270094,92.9915661 L327.671195,91.6921165 L323.543531,99.7727273 C323.004824,100.813743 322.660852,101.585405 322.511616,102.087713 C322.362379,102.590021 322.287761,103.08869 322.287761,103.583718 C322.287761,104.886808 322.77005,106.04248 323.734627,107.050737 C324.699204,108.058993 325.905836,108.563121 327.354522,108.563121 Z M327.299923,105.702148 C326.761216,105.702148 326.289847,105.491033 325.885817,105.068803 C325.481786,104.646573 325.279771,104.126065 325.279771,103.50728 C325.279771,102.888494 325.472686,102.373446 325.858517,101.962136 C326.244348,101.550826 326.721177,101.34517 327.289004,101.34517 C327.88595,101.34517 328.382798,101.550826 328.779549,101.962136 C329.1763,102.373446 329.374675,102.888494 329.374675,103.50728 C329.374675,104.140625 329.17084,104.664773 328.763169,105.079723 C328.355499,105.494673 327.86775,105.702148 327.299923,105.702148 Z M339.418413,112.505149 L339.418413,106.90332 C340.000799,107.456587 340.586826,107.855158 341.176492,108.099032 C341.766158,108.342907 342.403143,108.464844 343.087447,108.464844 C344.623491,108.464844 345.95206,107.869718 347.073154,106.679466 C348.194248,105.489213 348.754794,104.009588 348.754794,102.240589 C348.754794,100.406072 348.212447,98.9027876 347.127753,97.7307351 C346.043058,96.5586825 344.725409,95.9726563 343.174805,95.9726563 C342.461382,95.9726563 341.791638,96.1073331 341.165572,96.3766868 C340.539507,96.6460405 339.95712,97.050071 339.418413,97.5887784 L339.418413,97.5887784 L339.418413,96.2784091 L336.459162,96.2784091 L336.459162,112.505149 L339.418413,112.505149 Z M342.55238,105.734908 C341.613282,105.734908 340.83434,105.409135 340.215554,104.757591 C339.596769,104.106046 339.287376,103.252486 339.287376,102.196911 C339.287376,101.163175 339.596769,100.325994 340.215554,99.6853693 C340.83434,99.0447443 341.613282,98.7244318 342.55238,98.7244318 C343.484198,98.7244318 344.25586,99.0502042 344.867365,99.7017489 C345.478871,100.353294 345.784624,101.188654 345.784624,102.20783 C345.784624,103.234286 345.473411,104.078746 344.850986,104.741211 C344.22856,105.403675 343.462358,105.734908 342.55238,105.734908 Z M354.386956,108.159091 L357.18241,104.260742 L360.010624,108.159091 L363.472183,108.159091 L358.90773,101.902077 L362.969875,96.2784091 L359.541075,96.2784091 L357.18241,99.5215732 L354.856505,96.2784091 L351.394946,96.2784091 L355.468011,101.902077 L350.969076,108.159091 L354.386956,108.159091 Z" id="H3|CenturyGothicBold16px"></path>
            <path d="M2.61254883,69.1590909 L2.61254883,59.4678178 L12.8225098,59.4678178 L12.8225098,69.1590909 L14.8426625,69.1590909 L14.8426625,49.080411 L12.8225098,49.080411 L12.8225098,57.5022638 L2.61254883,57.5022638 L2.61254883,49.080411 L0.592396129,49.080411 L0.592396129,69.1590909 L2.61254883,69.1590909 Z M32.4398305,69.1590909 L32.4398305,67.2208363 L23.1716975,67.2208363 L28.1674805,61.8292125 C29.7417436,60.1275524 30.8018688,58.778509 31.347856,57.7820823 C31.8938432,56.7856556 32.1668368,55.7187056 32.1668368,54.5812322 C32.1668368,52.9614702 31.5958252,51.5555531 30.453802,50.363481 C29.3117787,49.1714089 27.8171387,48.5753729 25.9698819,48.5753729 C24.1044256,48.5753729 22.5369873,49.212358 21.267567,50.4863281 C19.9981468,51.7602983 19.3361373,53.3891602 19.2815385,55.3729137 L19.2815385,55.3729137 L21.2061435,55.3729137 C21.3244407,53.8259499 21.8090044,52.6247781 22.6598344,51.7693981 C23.5106645,50.9140181 24.5776145,50.4863281 25.8606845,50.4863281 C27.0800559,50.4863281 28.1106068,50.8935436 28.9523371,51.7079745 C29.7940674,52.5224055 30.2149325,53.4938077 30.2149325,54.6221813 C30.2149325,55.5139604 29.980613,56.3625155 29.511974,57.1678467 C29.043335,57.9731778 28.0309837,59.2084739 26.4749201,60.8737349 L26.4749201,60.8737349 L18.8037997,69.1590909 L32.4398305,69.1590909 Z M52.96076,74.5916637 L52.96076,48.5753729 L51.0088557,48.5753729 L51.0088557,74.5916637 L52.96076,74.5916637 Z M82.899969,69.6641291 C84.7472258,69.6641291 86.4193116,69.3160622 87.9162266,68.6199285 C89.4131415,67.9237948 90.6620873,66.9387429 91.6630638,65.6647727 L91.6630638,65.6647727 L90.0797009,64.4636009 C88.1869452,66.6657493 85.8346503,67.7668235 83.0228161,67.7668235 C80.465776,67.7668235 78.3478006,66.9478427 76.6688899,65.309881 C74.9899792,63.6719194 74.1505239,61.6290172 74.1505239,59.1811745 C74.1505239,57.5614125 74.5258901,56.1031716 75.2766225,54.806452 C76.0273549,53.5097323 77.0852052,52.4769065 78.4501732,51.7079745 C79.8151412,50.9390425 81.2984065,50.5545765 82.899969,50.5545765 C84.3650347,50.5545765 85.7095282,50.8480447 86.9334496,51.4349809 C88.1573709,52.0219172 89.2061214,52.884122 90.0797009,54.0215953 L90.0797009,54.0215953 L91.6630638,52.8067738 C90.6984864,51.4691051 89.4609154,50.4294545 87.9503508,49.6878218 C86.4397861,48.9461892 84.7472258,48.5753729 82.8726697,48.5753729 C79.7696423,48.5753729 77.1875778,49.5786244 75.126476,51.5851274 C73.0653743,53.5916304 72.0348234,56.0644975 72.0348234,59.0037287 C72.0348234,61.7973633 72.8856535,64.1815075 74.5873137,66.1561612 C76.6165661,68.4948065 79.3874513,69.6641291 82.899969,69.6641291 Z M103.090576,69.541282 C104.182551,69.541282 105.160778,69.3752108 106.025258,69.0430686 C106.889737,68.7109264 107.667769,68.2263627 108.359353,67.5893777 C109.050937,66.9523926 109.660622,66.1152122 110.18841,65.0778365 L110.18841,65.0778365 L108.577748,64.2315563 C107.995361,65.2052335 107.453924,65.910467 106.953436,66.3472567 C106.452948,66.7840465 105.845537,67.1343883 105.131203,67.3982821 C104.41687,67.662176 103.682062,67.7941229 102.92678,67.7941229 C101.361617,67.7941229 100.046698,67.2413108 98.9820225,66.1356867 C97.9173474,65.0300626 97.3668103,63.6127708 97.3304111,61.8838113 L97.3304111,61.8838113 L110.679799,61.8838113 C110.661599,59.8545588 110.115612,58.1619984 109.041837,56.8061301 C107.531272,54.8860751 105.51112,53.9260476 102.981379,53.9260476 C100.524436,53.9260476 98.5634323,54.8633256 97.0983666,56.7378817 C95.9426936,58.2120472 95.3648572,59.8909579 95.3648572,61.7746138 C95.3648572,63.7765669 96.0473412,65.5714999 97.4123092,67.1594127 C98.7772773,68.7473256 100.670033,69.541282 103.090576,69.541282 Z M108.577748,60.2321999 L97.5215067,60.2321999 C97.9127975,58.8672319 98.490634,57.8435059 99.2550161,57.1610218 C100.301492,56.2237438 101.552712,55.7551048 103.008678,55.7551048 C103.891358,55.7551048 104.733088,55.9416504 105.533869,56.3147417 C106.33465,56.6878329 106.97846,57.1792214 107.465299,57.7889071 C107.952137,58.3985929 108.322954,59.2130238 108.577748,60.2321999 L108.577748,60.2321999 Z M116.852184,69.1590909 L116.852184,63.7128684 C116.852184,61.7564142 116.943182,60.4096458 117.125178,59.672563 C117.416371,58.5441895 118.019232,57.5978116 118.93376,56.8334295 C119.848289,56.0690474 120.88339,55.6868564 122.039063,55.6868564 C123.049139,55.6868564 123.86812,55.9348256 124.496005,56.4307639 C125.12389,56.9267023 125.55158,57.66606 125.779075,58.648837 C125.924672,59.2221236 125.99747,60.3641468 125.99747,62.0749068 L125.99747,62.0749068 L125.99747,69.1590909 L127.894776,69.1590909 L127.894776,61.5152699 C127.894776,59.4951172 127.69003,58.007302 127.28054,57.0518244 C126.871049,56.0963468 126.236339,55.3365146 125.376409,54.7723278 C124.51648,54.208141 123.531428,53.9260476 122.421254,53.9260476 C121.329279,53.9260476 120.319203,54.1785667 119.391025,54.6836048 C118.462846,55.188643 117.616566,55.9507502 116.852184,56.9699263 L116.852184,56.9699263 L116.852184,54.3082386 L114.941229,54.3082386 L114.941229,69.1590909 L116.852184,69.1590909 Z M136.278409,69.1590909 L136.278409,55.9462003 L139.308638,55.9462003 L139.308638,54.3082386 L136.278409,54.3082386 L136.278409,48.7937678 L134.353804,48.7937678 L134.353804,54.3082386 L131.746715,54.3082386 L131.746715,55.9462003 L134.353804,55.9462003 L134.353804,69.1590909 L136.278409,69.1590909 Z M149.125488,69.541282 C150.572355,69.541282 151.775801,69.2478138 152.735829,68.6608776 C153.695856,68.0739413 154.41474,67.2617853 154.892478,66.2244096 C155.370217,65.1870339 155.609087,63.64462 155.609087,61.597168 L155.609087,61.597168 L155.609087,54.3082386 L153.657182,54.3082386 L153.657182,61.2422763 C153.657182,63.0986328 153.561635,64.3134544 153.370539,64.8867409 C153.088446,65.7239213 152.576583,66.3995805 151.83495,66.9137185 C151.093317,67.4278564 150.190164,67.6849254 149.125488,67.6849254 C148.060813,67.6849254 147.14401,67.4210316 146.375078,66.893244 C145.606146,66.3654563 145.085183,65.6465732 144.812189,64.7365945 C144.630194,64.0996094 144.539196,62.9348366 144.539196,61.2422763 L144.539196,61.2422763 L144.539196,54.3082386 L142.614591,54.3082386 L142.614591,61.4606712 C142.614591,63.5718217 142.85346,65.1529097 143.331199,66.2039351 C143.808938,67.2549605 144.532371,68.0739413 145.501498,68.6608776 C146.470626,69.2478138 147.678622,69.541282 149.125488,69.541282 Z M161.781472,69.1590909 L161.782277,63.773998 C161.793007,61.3997996 161.911036,59.8097098 162.136364,59.0037287 C162.445757,57.9026545 162.896196,57.0904985 163.487682,56.5672607 C164.079168,56.044023 164.693404,55.7824041 165.330389,55.7824041 C165.603383,55.7824041 165.940075,55.8688521 166.340465,56.041748 L166.340465,56.041748 L167.336892,54.4310858 C166.736306,54.0943936 166.172119,53.9260476 165.644332,53.9260476 C164.943648,53.9260476 164.270264,54.1376176 163.624179,54.5607577 C162.978094,54.9838978 162.363858,55.6231578 161.781472,56.4785378 L161.781472,56.4785378 L161.781472,54.3082386 L159.829568,54.3082386 L159.829568,69.1590909 L161.781472,69.1590909 Z M173.318182,74.5916637 L182.176825,54.3082386 L180.143022,54.3082386 L175.188188,65.7466708 L170.083208,54.3082386 L168.063055,54.3082386 L174.164462,68.0398171 L171.298029,74.5916637 L173.318182,74.5916637 Z M204.56776,69.6641291 C207.625289,69.6641291 210.066307,68.7518754 211.890814,66.9273682 C213.715321,65.1028609 214.636675,62.6390936 214.654874,59.5360662 L214.654874,59.5360662 L206.000977,59.5360662 L206.000977,61.4743208 L212.402677,61.4743208 C212.138783,63.3306774 211.292503,64.841242 209.863836,66.0060147 C208.43517,67.1707875 206.688011,67.7531738 204.622359,67.7531738 C202.920699,67.7531738 201.355536,67.3641579 199.926869,66.5861262 C198.498202,65.8080944 197.378929,64.7388694 196.569048,63.3784513 C195.759167,62.0180331 195.354226,60.5825417 195.354226,59.0719771 C195.354226,57.5978116 195.745517,56.1987194 196.528099,54.8747004 C197.31068,53.5506814 198.414029,52.5019309 199.838146,51.728449 C201.262263,50.9549672 202.761453,50.5682262 204.335716,50.5682262 C205.600586,50.5682262 206.899581,50.8525945 208.2327,51.4213312 C209.565818,51.9900679 210.792015,52.8249734 211.911288,53.9260476 L211.911288,53.9260476 L213.467352,52.4518821 C212.038685,51.0960138 210.57362,50.1109619 209.072155,49.4967263 C207.57069,48.8824907 205.969128,48.5753729 204.267467,48.5753729 C202.165417,48.5753729 200.281761,49.0371871 198.6165,49.9608154 C196.951239,50.8844438 195.640869,52.1652388 194.685392,53.8032005 C193.729914,55.4411621 193.252175,57.2110707 193.252175,59.1129261 C193.252175,61.6699663 194.084806,63.9221635 195.750067,65.8695179 C197.915816,68.3992587 200.855047,69.6641291 204.56776,69.6641291 Z M225.891291,69.541282 C228.157138,69.541282 230.01122,68.7655251 231.453536,67.2140115 C232.895852,65.6624978 233.61701,63.8493652 233.61701,61.7746138 C233.61701,59.7089622 232.934526,57.920854 231.569558,56.4102894 C230.068093,54.7541282 228.175338,53.9260476 225.891291,53.9260476 C223.598145,53.9260476 221.700839,54.7586781 220.199374,56.4239391 C218.834406,57.9345037 218.151922,59.718062 218.151922,61.7746138 C218.151922,63.8493652 218.87308,65.6624978 220.315397,67.2140115 C221.757713,68.7655251 223.616344,69.541282 225.891291,69.541282 Z M225.891291,67.7258745 C224.835716,67.7258745 223.866588,67.4733554 222.983909,66.9683172 C222.10123,66.463279 221.400546,65.7466708 220.881858,64.8184925 C220.363171,63.8903143 220.103827,62.8893377 220.103827,61.8155629 C220.103827,60.1503018 220.672563,58.7307351 221.810037,57.5568626 C222.94751,56.3829901 224.307928,55.7960538 225.891291,55.7960538 C227.465554,55.7960538 228.823697,56.3829901 229.965721,57.5568626 C231.107744,58.7307351 231.678756,60.1503018 231.678756,61.8155629 C231.678756,62.8893377 231.419412,63.8903143 230.900724,64.8184925 C230.382036,65.7466708 229.681352,66.463279 228.798673,66.9683172 C227.915994,67.4733554 226.946866,67.7258745 225.891291,67.7258745 Z M241.454657,69.1590909 L241.454657,55.9462003 L244.484886,55.9462003 L244.484886,54.3082386 L241.454657,54.3082386 L241.454657,48.7937678 L239.530052,48.7937678 L239.530052,54.3082386 L236.922963,54.3082386 L236.922963,55.9462003 L239.530052,55.9462003 L239.530052,69.1590909 L241.454657,69.1590909 Z M249.947488,69.1590909 L249.947488,63.7128684 C249.947488,61.7473145 250.038486,60.400546 250.220481,59.672563 C250.511675,58.5441895 251.114536,57.5978116 252.029064,56.8334295 C252.943593,56.0690474 253.978693,55.6868564 255.134366,55.6868564 C256.144443,55.6868564 256.961149,55.9348256 257.584484,56.4307639 C258.207819,56.9267023 258.637784,57.66606 258.874379,58.648837 C259.010876,59.2221236 259.079124,60.3641468 259.079124,62.0749068 L259.079124,62.0749068 L259.079124,69.1590909 L260.990079,69.1590909 L260.990079,61.5152699 C260.990079,59.4860174 260.785334,57.9959273 260.375844,57.0449996 C259.966353,56.0940718 259.331643,55.3365146 258.471713,54.7723278 C257.611783,54.208141 256.626731,53.9260476 255.516557,53.9260476 C254.433683,53.9260476 253.428156,54.1785667 252.499978,54.6836048 C251.5718,55.188643 250.72097,55.9507502 249.947488,56.9699263 L249.947488,56.9699263 L249.947488,48.5753729 L248.036533,48.5753729 L248.036533,69.1590909 L249.947488,69.1590909 Z M266.452681,51.346258 C266.889471,51.346258 267.262562,51.1915616 267.571955,50.8821689 C267.881348,50.5727761 268.036044,50.2042347 268.036044,49.7765447 C268.036044,49.339755 267.881348,48.9666637 267.571955,48.657271 C267.262562,48.3478782 266.889471,48.1931818 266.452681,48.1931818 C266.024991,48.1931818 265.65645,48.3478782 265.347057,48.657271 C265.037665,48.9666637 264.882968,49.339755 264.882968,49.7765447 C264.882968,50.2042347 265.037665,50.5727761 265.347057,50.8821689 C265.65645,51.1915616 266.024991,51.346258 266.452681,51.346258 Z M267.421809,69.1590909 L267.421809,54.3082386 L265.497204,54.3082386 L265.497204,69.1590909 L267.421809,69.1590909 Z M279.545455,69.541282 C281.074219,69.541282 282.436912,69.2478138 283.633534,68.6608776 C284.830156,68.0739413 285.783359,67.2481357 286.493142,66.1834606 L286.493142,66.1834606 L284.978028,65.1870339 C283.59486,66.9250932 281.811302,67.7941229 279.627353,67.7941229 C278.435281,67.7941229 277.359231,67.530229 276.399204,67.0024414 C275.439176,66.4746538 274.683894,65.7330211 274.133357,64.7775435 C273.582819,63.8220659 273.307551,62.8028897 273.307551,61.7200151 C273.307551,60.0547541 273.905862,58.6397372 275.102484,57.4749645 C276.299106,56.3101918 277.802846,55.7278054 279.613703,55.7278054 C281.87955,55.7278054 283.667658,56.596835 284.978028,58.3348944 L284.978028,58.3348944 L286.493142,57.3930664 C286.047253,56.6468839 285.505815,56.0326483 284.86883,55.5503596 C284.231845,55.0680708 283.456088,54.67678 282.54156,54.376487 C281.627031,54.0761941 280.678378,53.9260476 279.695601,53.9260476 C278.130438,53.9260476 276.715421,54.2718395 275.450551,54.9634233 C274.18568,55.6550071 273.191529,56.6173096 272.468096,57.8503307 C271.744663,59.0833518 271.382946,60.4187456 271.382946,61.8565119 C271.382946,63.9949618 272.156428,65.8103693 273.703392,67.3027344 C275.250355,68.7950994 277.19771,69.541282 279.545455,69.541282 Z M301.731645,69.1590909 L301.731645,59.8227095 L302.878219,59.8227095 L310.08525,69.1590909 L312.569492,69.1590909 L305.348811,59.8227095 C307.032271,59.8136097 308.35174,59.5974898 309.307218,59.1743497 C310.262696,58.7512096 310.997503,58.1255993 311.511641,57.2975186 C312.025779,56.469438 312.282848,55.5094105 312.282848,54.4174361 C312.282848,53.1070668 311.909757,52.0037176 311.163575,51.1073886 C310.417392,50.2110596 309.448265,49.6263983 308.256193,49.3534047 C307.464511,49.1714089 305.953947,49.080411 303.724499,49.080411 L303.724499,49.080411 L299.725142,49.080411 L299.725142,69.1590909 L301.731645,69.1590909 Z M305.185015,57.8981046 L301.731645,57.8708052 L301.731645,51.045965 L305.266913,51.045965 C306.64098,51.045965 307.623757,51.1642623 308.215244,51.4008567 C308.80673,51.6374512 309.284469,52.031017 309.64846,52.5815541 C310.012452,53.1320912 310.194447,53.7440518 310.194447,54.4174361 C310.194447,55.1090199 310.014726,55.7346302 309.655285,56.2942671 C309.295843,56.853904 308.795355,57.2611195 308.15382,57.5159135 C307.512285,57.7707076 306.522683,57.8981046 305.185015,57.8981046 L305.185015,57.8981046 Z M323.983354,69.541282 C325.075329,69.541282 326.053556,69.3752108 326.918036,69.0430686 C327.782515,68.7109264 328.560547,68.2263627 329.252131,67.5893777 C329.943715,66.9523926 330.553401,66.1152122 331.081188,65.0778365 L331.081188,65.0778365 L329.470526,64.2315563 C328.88814,65.2052335 328.346702,65.910467 327.846214,66.3472567 C327.345726,66.7840465 326.738315,67.1343883 326.023982,67.3982821 C325.309648,67.662176 324.574841,67.7941229 323.819558,67.7941229 C322.254395,67.7941229 320.939476,67.2413108 319.874801,66.1356867 C318.810126,65.0300626 318.259588,63.6127708 318.223189,61.8838113 L318.223189,61.8838113 L331.572577,61.8838113 C331.554377,59.8545588 331.00839,58.1619984 329.934615,56.8061301 C328.42405,54.8860751 326.403898,53.9260476 323.874157,53.9260476 C321.417214,53.9260476 319.45621,54.8633256 317.991145,56.7378817 C316.835472,58.2120472 316.257635,59.8909579 316.257635,61.7746138 C316.257635,63.7765669 316.940119,65.5714999 318.305087,67.1594127 C319.670055,68.7473256 321.562811,69.541282 323.983354,69.541282 Z M329.470526,60.2321999 L318.414285,60.2321999 C318.805576,58.8672319 319.383412,57.8435059 320.147794,57.1610218 C321.19427,56.2237438 322.44549,55.7551048 323.901456,55.7551048 C324.784136,55.7551048 325.625866,55.9416504 326.426647,56.3147417 C327.227428,56.6878329 327.871238,57.1792214 328.358077,57.7889071 C328.844916,58.3985929 329.215732,59.2130238 329.470526,60.2321999 L329.470526,60.2321999 Z M342.931841,74.9738548 C344.6699,74.9738548 346.157715,74.6053134 347.395286,73.8682306 C348.632857,73.1311479 349.501887,72.0801225 350.002375,70.7151545 C350.366367,69.7505771 350.548362,68.2263627 350.548362,66.1425115 L350.548362,66.1425115 L350.548362,54.3082386 L348.623757,54.3082386 L348.623757,56.8880282 C347.731978,55.8324529 346.806075,55.0748957 345.846048,54.6153564 C344.88602,54.1558172 343.850919,53.9260476 342.740745,53.9260476 C341.403077,53.9260476 340.131381,54.2718395 338.92566,54.9634233 C337.719938,55.6550071 336.775835,56.5945601 336.093351,57.7820823 C335.410867,58.9696045 335.069625,60.2503995 335.069625,61.6244673 C335.069625,62.9985352 335.397217,64.2588556 336.052402,65.4054288 C336.707586,66.552002 337.635765,67.4642556 338.836937,68.1421897 C340.038109,68.8201238 341.321178,69.1590909 342.686147,69.1590909 C343.850919,69.1590909 344.951993,68.9156716 345.989369,68.428833 C347.026745,67.9419944 347.904874,67.2435858 348.623757,66.3336071 L348.623757,66.3336071 L348.623757,67.0979892 C348.623757,68.7359508 348.432662,69.923473 348.050471,70.6605558 C347.66828,71.3976385 347.02902,72.0095992 346.132691,72.4964378 C345.236362,72.9832764 344.137563,73.2266957 342.836293,73.2266957 C341.516824,73.2266957 340.4112,72.9901012 339.519421,72.5169123 C338.627642,72.0437234 337.899659,71.3157404 337.335472,70.3329634 L337.335472,70.3329634 L335.26072,70.3329634 C335.797608,71.4977362 336.384544,72.3826904 337.021529,72.9878263 C337.658514,73.5929621 338.48432,74.0752508 339.498946,74.4346924 C340.513572,74.794134 341.657871,74.9738548 342.931841,74.9738548 Z M342.877242,67.3573331 C341.139183,67.3573331 339.724166,66.8249956 338.632191,65.7603205 C337.540217,64.6956454 336.99423,63.348877 336.99423,61.7200151 C336.99423,60.6462402 337.258124,59.6475386 337.785911,58.7239102 C338.313699,57.8002819 339.041682,57.0768488 339.96986,56.5536111 C340.898038,56.0303733 341.903565,55.7687544 342.986439,55.7687544 C344.023815,55.7687544 344.992942,56.0235485 345.893821,56.5331365 C346.7947,57.0427246 347.490834,57.7365834 347.982222,58.6147128 C348.473611,59.4928422 348.719305,60.4915439 348.719305,61.6108176 C348.719305,63.3306774 348.184693,64.7183949 347.115468,65.7739702 C346.046243,66.8295455 344.633501,67.3573331 342.877242,67.3573331 Z M361.607333,69.541282 C363.0542,69.541282 364.257646,69.2478138 365.217674,68.6608776 C366.177701,68.0739413 366.896585,67.2617853 367.374323,66.2244096 C367.852062,65.1870339 368.090932,63.64462 368.090932,61.597168 L368.090932,61.597168 L368.090932,54.3082386 L366.139027,54.3082386 L366.139027,61.2422763 C366.139027,63.0986328 366.04348,64.3134544 365.852384,64.8867409 C365.570291,65.7239213 365.058428,66.3995805 364.316795,66.9137185 C363.575162,67.4278564 362.672009,67.6849254 361.607333,67.6849254 C360.542658,67.6849254 359.625855,67.4210316 358.856923,66.893244 C358.087991,66.3654563 357.567028,65.6465732 357.294034,64.7365945 C357.112039,64.0996094 357.021041,62.9348366 357.021041,61.2422763 L357.021041,61.2422763 L357.021041,54.3082386 L355.096436,54.3082386 L355.096436,61.4606712 C355.096436,63.5718217 355.335305,65.1529097 355.813044,66.2039351 C356.290783,67.2549605 357.014216,68.0739413 357.983343,68.6608776 C358.952471,69.2478138 360.160467,69.541282 361.607333,69.541282 Z M374.659158,69.1590909 L374.659158,48.5753729 L372.748203,48.5753729 L372.748203,69.1590909 L374.659158,69.1590909 Z M386.277766,69.541282 C387.460738,69.541282 388.550438,69.2955877 389.546864,68.8041992 C390.543291,68.3128107 391.441895,67.5802779 392.242676,66.6066007 L392.242676,66.6066007 L392.242676,69.1590909 L394.126332,69.1590909 L394.126332,54.3082386 L392.242676,54.3082386 L392.242676,57.0381747 C391.496494,56.000799 390.629739,55.2227672 389.642412,54.7040794 C388.655085,54.1853915 387.551736,53.9260476 386.332365,53.9260476 C384.221214,53.9260476 382.414906,54.6858798 380.913441,56.2055442 C379.411977,57.7252086 378.661244,59.5542658 378.661244,61.6927157 C378.661244,63.8766646 379.405152,65.7307462 380.892967,67.2549605 C382.380782,68.7791748 384.175715,69.541282 386.277766,69.541282 Z M386.468861,67.7941229 C385.431486,67.7941229 384.460083,67.5279541 383.554655,66.9956166 C382.649226,66.463279 381.928068,65.7193714 381.39118,64.7638938 C380.854293,63.8084162 380.585849,62.8074396 380.585849,61.7609641 C380.585849,60.7053888 380.852018,59.7044123 381.384355,58.7580344 C381.916693,57.8116566 382.633301,57.0768488 383.53418,56.5536111 C384.435059,56.0303733 385.417836,55.7687544 386.482511,55.7687544 C388.138672,55.7687544 389.533215,56.3465909 390.666138,57.5022638 C391.799062,58.6579368 392.365523,60.0957031 392.365523,61.8155629 C392.365523,62.9439364 392.113004,63.9585627 391.607966,64.8594416 C391.102928,65.7603205 390.38177,66.4746538 389.444492,67.0024414 C388.507214,67.530229 387.515337,67.7941229 386.468861,67.7941229 Z M400.353316,69.1590909 L400.353316,64.1360085 C400.353316,61.5607688 400.471614,59.8500089 400.708208,59.0037287 C401.017601,57.9026545 401.46804,57.0904985 402.059526,56.5672607 C402.651013,56.044023 403.265248,55.7824041 403.902233,55.7824041 C404.175227,55.7824041 404.511919,55.8688521 404.91231,56.041748 L404.91231,56.041748 L405.908736,54.4310858 C405.30815,54.0943936 404.743964,53.9260476 404.216176,53.9260476 C403.515492,53.9260476 402.842108,54.1376176 402.196023,54.5607577 C401.549938,54.9838978 400.935703,55.6231578 400.353316,56.4785378 L400.353316,56.4785378 L400.353316,54.3082386 L398.401412,54.3082386 L398.401412,69.1590909 L400.353316,69.1590909 Z M429.009455,69.1590909 L429.009455,67.2208363 L419.741322,67.2208363 L424.737105,61.8292125 C426.311369,60.1275524 427.371494,58.778509 427.917481,57.7820823 C428.463468,56.7856556 428.736462,55.7187056 428.736462,54.5812322 C428.736462,52.9614702 428.16545,51.5555531 427.023427,50.363481 C425.881404,49.1714089 424.386764,48.5753729 422.539507,48.5753729 C420.674051,48.5753729 419.106612,49.212358 417.837192,50.4863281 C416.567772,51.7602983 415.905762,53.3891602 415.851163,55.3729137 L415.851163,55.3729137 L417.775768,55.3729137 C417.894066,53.8259499 418.378629,52.6247781 419.229459,51.7693981 C420.080289,50.9140181 421.147239,50.4863281 422.430309,50.4863281 C423.649681,50.4863281 424.680232,50.8935436 425.521962,51.7079745 C426.363692,52.5224055 426.784557,53.4938077 426.784557,54.6221813 C426.784557,55.5139604 426.550238,56.3625155 426.081599,57.1678467 C425.61296,57.9731778 424.600609,59.2084739 423.044545,60.8737349 L423.044545,60.8737349 L415.373425,69.1590909 L429.009455,69.1590909 Z M438.362216,69.6641291 C439.663486,69.6641291 440.846458,69.284213 441.911133,68.5243808 C442.975808,67.7645486 443.810714,66.6384499 444.41585,65.1460849 C445.020985,63.6537198 445.323553,61.6472168 445.323553,59.1265758 C445.323553,56.596835 445.016436,54.5812322 444.4022,53.0797674 C443.787964,51.5783026 442.953059,50.4522039 441.897484,49.7014715 C440.841908,48.9507391 439.663486,48.5753729 438.362216,48.5753729 C437.079146,48.5753729 435.918924,48.9484641 434.881548,49.6946467 C433.844172,50.4408292 433.041116,51.5373535 432.472379,52.9842196 C431.903643,54.4310858 431.619274,56.4785378 431.619274,59.1265758 C431.619274,61.7564142 431.908193,63.8015914 432.486029,65.2621072 C433.063865,66.722623 433.866922,67.8214222 434.895198,68.558505 C435.923474,69.2955877 437.079146,69.6641291 438.362216,69.6641291 Z M438.430465,67.8487216 C437.547785,67.8487216 436.710605,67.5484286 435.918924,66.9478427 C435.127242,66.3472567 434.528931,65.4668524 434.123991,64.3066295 C433.71905,63.1464067 433.51658,61.4333718 433.51658,59.1675249 C433.51658,56.8925781 433.721325,55.1749933 434.130815,54.0147705 C434.540306,52.8545477 435.136342,51.9764182 435.918924,51.3803822 C436.701505,50.7843461 437.538686,50.4863281 438.430465,50.4863281 C439.304044,50.4863281 440.1344,50.7843461 440.921531,51.3803822 C441.708663,51.9764182 442.325174,52.9182462 442.771063,54.205866 C443.216953,55.4934859 443.439898,57.1473722 443.439898,59.1675249 C443.439898,61.1785778 443.189653,62.8984375 442.689165,64.327104 C442.288774,65.5009766 441.701838,66.3813809 440.928356,66.9683172 C440.154874,67.5552535 439.322244,67.8487216 438.430465,67.8487216 Z M450.977251,74.5916637 L450.977251,66.6066007 C451.778032,67.5802779 452.674361,68.3128107 453.666238,68.8041992 C454.658115,69.2955877 455.745539,69.541282 456.928512,69.541282 C459.030562,69.541282 460.825495,68.7791748 462.313311,67.2549605 C463.801126,65.7307462 464.545033,63.8766646 464.545033,61.6927157 C464.545033,59.5542658 463.794301,57.7252086 462.292836,56.2055442 C460.791371,54.6858798 458.985064,53.9260476 456.873913,53.9260476 C455.663641,53.9260476 454.567117,54.1853915 453.58434,54.7040794 C452.601563,55.2227672 451.732533,56.000799 450.977251,57.0381747 L450.977251,57.0381747 L450.977251,54.3082386 L449.079945,54.3082386 L449.079945,74.5916637 L450.977251,74.5916637 Z M456.751066,67.7941229 C455.70459,67.7941229 454.710439,67.530229 453.768611,67.0024414 C452.826783,66.4746538 452.10335,65.7603205 451.598311,64.8594416 C451.093273,63.9585627 450.840754,62.9439364 450.840754,61.8155629 C450.840754,60.0957031 451.407216,58.6579368 452.540139,57.5022638 C453.673063,56.3465909 455.067605,55.7687544 456.723766,55.7687544 C457.788442,55.7687544 458.771219,56.0303733 459.672097,56.5536111 C460.572976,57.0768488 461.289585,57.8116566 461.821922,58.7580344 C462.35426,59.7044123 462.620428,60.7053888 462.620428,61.7609641 C462.620428,62.8074396 462.351985,63.8084162 461.815097,64.7638938 C461.27821,65.7193714 460.557052,66.463279 459.651623,66.9956166 C458.746194,67.5279541 457.779342,67.7941229 456.751066,67.7941229 Z M468.874712,69.1590909 L473.351807,62.921187 L477.897151,69.1590909 L480.217596,69.1590909 L474.49838,61.3651234 L479.576061,54.3082386 L477.282915,54.3082386 L473.351807,59.8090598 L469.420699,54.3082386 L467.127553,54.3082386 L472.218884,61.3651234 L466.595215,69.1590909 L468.874712,69.1590909 Z" id="H2|CenturyGothicRegular20px"></path>
            <path d="M6.56360973,25.1590909 L6.56360973,14.5942383 L14.622381,14.5942383 L14.622381,25.1590909 L19.2578125,25.1590909 L19.2578125,1.06467507 L14.622381,1.06467507 L14.622381,10.1553622 L6.56360973,10.1553622 L6.56360973,1.06467507 L1.91179865,1.06467507 L1.91179865,25.1590909 L6.56360973,25.1590909 Z M35.2148349,25.1590909 L35.2148349,1.06467507 L28.3517756,1.06467507 L25.6982777,5.3725142 L30.6613015,5.3725142 L30.6613015,25.1590909 L35.2148349,25.1590909 Z M64.0495117,31.6781783 L64.0495117,0.458629261 L61.4615323,0.458629261 L61.4615323,31.6781783 L64.0495117,31.6781783 Z M98.207564,25.7651367 C100.238636,25.7651367 102.045854,25.4293546 103.629217,24.7577903 C105.21258,24.086226 106.894221,22.8823242 108.674139,21.1460849 L108.674139,21.1460849 L105.562012,17.9029208 C104.240723,19.2132901 103.028631,20.116899 101.925737,20.6137473 C100.822843,21.1105957 99.6052912,21.3590199 98.2730824,21.3590199 C96.711559,21.3590199 95.2919922,21.0041282 94.0143821,20.2943448 C92.7367721,19.5845614 91.7485352,18.6072443 91.0496716,17.3623935 C90.3508079,16.1175426 90.0013761,14.692516 90.0013761,13.0873136 C90.0013761,10.7832475 90.7903276,8.8449929 92.3682307,7.27254972 C93.9461337,5.70010653 95.8871183,4.91388494 98.1911843,4.91388494 C100.92112,4.91388494 103.378063,6.06591797 105.562012,8.36998402 L105.562012,8.36998402 L108.772417,5.30699574 C107.440208,3.75639205 105.854115,2.56068004 104.014138,1.71985973 C102.174161,0.879039418 100.260476,0.458629261 98.2730824,0.458629261 C95.9362571,0.458629261 93.7550382,1.02645597 91.7294256,2.16210937 C89.7038131,3.29776278 88.1477495,4.79922763 87.0612349,6.66650391 C85.9747204,8.53378018 85.4314631,10.6685902 85.4314631,13.0709339 C85.4314631,16.783647 86.6244452,19.8275257 89.0104093,22.2025701 C91.3963734,24.5776145 94.4620917,25.7651367 98.207564,25.7651367 Z M121.764728,25.6177202 C123.566486,25.6177202 125.12255,25.2983176 126.432919,24.6595126 C127.743288,24.0207076 128.868022,23.0352006 129.80712,21.7029918 L129.80712,21.7029918 L126.039808,19.9339933 C124.838636,21.1024059 123.40269,21.6866122 121.731969,21.6866122 C120.334242,21.6866122 119.184939,21.312611 118.28406,20.5646085 C117.383181,19.816606 116.829004,18.8092596 116.621529,17.5425692 L116.621529,17.5425692 L130.986452,17.5425692 L131.002832,16.6908292 C131.002832,13.7424982 130.123793,11.3701838 128.365714,9.57388583 C126.607635,7.77758789 124.325408,6.87943892 121.519034,6.87943892 C118.876456,6.87943892 116.678857,7.77758789 114.926239,9.57388583 C113.17362,11.3701838 112.29731,13.6278409 112.29731,16.3468572 C112.29731,19.0003551 113.176349,21.2088734 114.934428,22.9724121 C116.692507,24.7359508 118.969274,25.6177202 121.764728,25.6177202 Z M126.498438,14.0209517 L116.818084,14.0209517 C117.320392,12.9180575 117.86638,12.1482156 118.456046,11.7114258 C119.395144,11.0125621 120.487118,10.6631303 121.731969,10.6631303 C122.878542,10.6631303 123.885889,10.974343 124.754008,11.5967685 C125.622128,12.2191939 126.203604,13.027255 126.498438,14.0209517 L126.498438,14.0209517 Z M139.90024,25.1590909 L139.90024,18.0011985 C139.90024,16.144842 139.965758,14.9382102 140.096795,14.3813033 C140.347949,13.3111683 140.798389,12.4730779 141.448114,11.8670321 C142.097838,11.2609863 142.87587,10.9579634 143.782209,10.9579634 C144.481072,10.9579634 145.068009,11.1408691 145.543018,11.5066806 C146.018027,11.872492 146.351079,12.4048295 146.542174,13.1036932 C146.73327,13.8025568 146.828818,15.2166637 146.828818,17.3460138 L146.828818,17.3460138 L146.828818,25.1590909 L151.251314,25.1590909 L151.251314,13.3821467 C151.251314,11.3292347 150.732626,9.77863104 149.69525,8.73033558 C148.461319,7.49640447 146.959854,6.87943892 145.190856,6.87943892 C144.328196,6.87943892 143.484646,7.04596502 142.660205,7.37901722 C141.835764,7.71206942 140.915776,8.30446555 139.90024,9.15620561 L139.90024,9.15620561 L139.90024,7.33806818 L135.444984,7.33806818 L135.444984,25.1590909 L139.90024,25.1590909 Z M161.409952,25.1590909 L161.409952,11.1872781 L164.06345,11.1872781 L164.06345,7.33806818 L161.409952,7.33806818 L161.409952,0.769841974 L156.954696,0.769841974 L156.954696,7.33806818 L154.66155,7.33806818 L154.66155,11.1872781 L156.954696,11.1872781 L156.954696,25.1590909 L161.409952,25.1590909 Z M175.106587,25.6177202 C176.908345,25.6177202 178.39343,25.2437189 179.561843,24.4957164 C180.730256,23.747714 181.614755,22.6748491 182.215341,21.2771218 C182.706729,20.1305487 182.952424,18.0011985 182.952424,14.8890714 L182.952424,14.8890714 L182.952424,7.33806818 L178.464409,7.33806818 L178.464409,16.0684038 C178.464409,17.7500444 178.371591,18.8474787 178.185955,19.3607067 C177.934801,20.0486506 177.54988,20.5700684 177.031192,20.92496 C176.512505,21.2798517 175.881889,21.4572976 175.139347,21.4572976 C174.396804,21.4572976 173.771649,21.2771218 173.263881,20.9167702 C172.756112,20.5564187 172.387571,20.0513805 172.158256,19.4016557 C171.928942,18.7519309 171.814285,17.5917081 171.814285,15.9209872 L171.814285,15.9209872 L171.814285,7.33806818 L167.29351,7.33806818 L167.29351,14.7580344 C167.29351,17.6080877 167.468226,19.5736417 167.817658,20.6546964 C168.309047,22.2162198 169.158057,23.4337713 170.364688,24.3073509 C171.57132,25.1809304 173.151953,25.6177202 175.106587,25.6177202 Z M191.669656,25.1590909 L191.669656,17.9520597 L191.653276,17.08394 C191.653276,14.5942383 191.89078,12.9235174 192.365789,12.0717773 C192.840798,11.2200373 193.422275,10.7941673 194.110218,10.7941673 C194.448731,10.7941673 194.88006,10.9252042 195.404208,11.1872781 L195.404208,11.1872781 L196.796476,7.33806818 C196.16313,7.03231534 195.557085,6.87943892 194.978338,6.87943892 C194.159357,6.87943892 193.405895,7.10875355 192.717951,7.56738281 C192.030007,8.02601207 191.47856,8.69757635 191.06361,9.58207564 L191.06361,9.58207564 L191.06361,7.33806818 L187.23078,7.33806818 L187.23078,25.1590909 L191.669656,25.1590909 Z M205.595606,31.6781783 L216.766504,7.33806818 L212.180211,7.33806818 L207.069771,18.5253462 L202.43434,7.33806818 L197.864427,7.33806818 L204.645588,23.832342 L200.976554,31.6781783 L205.595606,31.6781783 Z M242.833026,25.7651367 C245.169851,25.7651367 247.206383,25.2682884 248.942623,24.2745916 C250.678862,23.2808949 252.092969,21.8394886 253.184943,19.9503729 C254.276918,18.0612571 254.822905,16.0629439 254.822905,13.9554332 L254.822905,13.9554332 L254.790146,12.939897 L242.66923,12.939897 L242.66923,17.2477362 L249.646946,17.2477362 C248.980842,18.6673029 248.104532,19.7101385 247.018018,20.3762429 C245.931503,21.0423473 244.596564,21.3753995 243.013201,21.3753995 C240.578098,21.3753995 238.530646,20.5673384 236.870845,18.9512163 C235.211044,17.3350941 234.381144,15.3640803 234.381144,13.0381747 C234.381144,10.7887074 235.181015,8.87775213 236.780757,7.30530895 C238.3805,5.73286577 240.365163,4.94664418 242.734748,4.94664418 C245.453764,4.94664418 247.834269,6.02769886 249.876261,8.18980824 L249.876261,8.18980824 L253.103045,4.99578303 C251.62888,3.40150036 250.121955,2.27676669 248.582271,1.62158203 C246.758674,0.846280185 244.79858,0.458629261 242.701989,0.458629261 C238.694443,0.458629261 235.440359,1.86181641 232.939737,4.6681907 C230.832227,7.02685547 229.778471,9.80047053 229.778471,12.9890359 C229.778471,15.3149414 230.349028,17.4825107 231.490141,19.4917436 C232.631255,21.5009766 234.181858,23.0488503 236.141952,24.1353649 C238.102046,25.2218794 240.332404,25.7651367 242.833026,25.7651367 Z M267.766078,25.6177202 C269.502317,25.6177202 271.09114,25.2054998 272.532546,24.3810591 C273.973953,23.5566184 275.112336,22.4127752 275.947696,20.9495295 C276.783057,19.4862837 277.200737,17.9138406 277.200737,16.2321999 C277.200737,14.561479 276.785787,13.0054155 275.955886,11.5640092 C275.125986,10.122603 273.971223,8.9814897 272.491597,8.14066939 C271.011972,7.29984908 269.431339,6.87943892 267.749698,6.87943892 C265.423793,6.87943892 263.365421,7.6875 261.574583,9.30362216 C259.532591,11.1599787 258.511595,13.4804244 258.511595,16.2649592 C258.511595,18.8638583 259.415203,21.0723766 261.222421,22.890514 C263.029639,24.7086515 265.210858,25.6177202 267.766078,25.6177202 Z M267.798837,21.4572976 C266.40111,21.4572976 265.246347,20.9768288 264.334548,20.0158913 C263.42275,19.0549538 262.96685,17.7991832 262.96685,16.2485795 C262.96685,14.7416548 263.428209,13.5049938 264.350928,12.5385964 C265.273646,11.572199 266.428409,11.0890004 267.815217,11.0890004 C269.234783,11.0890004 270.400466,11.5667392 271.312265,12.5222168 C272.224063,13.4776944 272.679963,14.7198153 272.679963,16.2485795 C272.679963,17.7773438 272.215874,19.0276545 271.287695,19.9995117 C270.359517,20.971369 269.196564,21.4572976 267.798837,21.4572976 Z M286.687811,25.1590909 L286.687811,11.1872781 L289.341309,11.1872781 L289.341309,7.33806818 L286.687811,7.33806818 L286.687811,0.769841974 L282.232555,0.769841974 L282.232555,7.33806818 L279.939409,7.33806818 L279.939409,11.1872781 L282.232555,11.1872781 L282.232555,25.1590909 L286.687811,25.1590909 Z M297.043004,25.1590909 L297.043004,18.0011985 C297.043004,16.0902433 297.108523,14.8672319 297.23956,14.3321644 C297.490714,13.2947887 297.941153,12.4758079 298.590878,11.8752219 C299.240603,11.274636 300.018635,10.974343 300.924973,10.974343 C301.623837,10.974343 302.210773,11.1545188 302.685782,11.5148704 C303.160791,11.8752219 303.496573,12.4212092 303.693129,13.152832 C303.889684,13.8844549 303.987962,15.2821822 303.987962,17.3460138 L303.987962,17.3460138 L303.987962,25.1590909 L308.394079,25.1590909 L308.394079,13.3821467 C308.394079,11.3292347 307.875391,9.77317116 306.838015,8.71395597 C305.625923,7.4909446 304.135378,6.87943892 302.36638,6.87943892 C301.460041,6.87943892 300.564622,7.06780451 299.680123,7.44453569 C298.795623,7.82126687 297.916584,8.38636364 297.043004,9.13982599 L297.043004,9.13982599 L297.043004,0.458629261 L292.604128,0.458629261 L292.604128,25.1590909 L297.043004,25.1590909 Z M315.342312,5.79838423 C316.117614,5.79838423 316.783718,5.51720082 317.340625,4.95483398 C317.897532,4.39246715 318.175986,3.71271307 318.175986,2.91557173 C318.175986,2.10751065 317.894802,1.41956676 317.332435,0.851740057 C316.770068,0.283913352 316.095774,0 315.309553,0 C314.523331,0 313.851767,0.27845348 313.29486,0.83536044 C312.737953,1.3922674 312.459499,2.06383168 312.459499,2.85005327 C312.459499,3.66903409 312.740683,4.36516779 313.30305,4.93845437 C313.865417,5.51174094 314.545171,5.79838423 315.342312,5.79838423 Z M317.55356,25.1590909 L317.55356,7.33806818 L313.065545,7.33806818 L313.065545,25.1590909 L317.55356,25.1590909 Z M331.594167,25.6177202 C335.077566,25.6177202 337.774743,24.3783292 339.685698,21.8995472 L339.685698,21.8995472 L336.16408,19.4917436 C335.050266,20.8567116 333.494203,21.5391957 331.49589,21.5391957 C329.879768,21.5391957 328.574858,21.0587269 327.581161,20.0977894 C326.587465,19.1368519 326.090616,17.8974609 326.090616,16.3796165 C326.090616,14.818093 326.606574,13.537753 327.63849,12.5385964 C328.670406,11.5394398 330.021724,11.0398615 331.692445,11.0398615 C332.609704,11.0398615 333.409575,11.1818182 334.092059,11.4657315 C334.774543,11.7496449 335.465217,12.257413 336.16408,12.9890359 L336.16408,12.9890359 L339.882253,10.9415838 C338.986834,9.64213423 337.834801,8.64024769 336.426154,7.93592418 C335.017507,7.23160067 333.428684,6.87943892 331.659686,6.87943892 C329.748731,6.87943892 328.020681,7.2943892 326.475537,8.12428977 C324.930393,8.95419034 323.726492,10.0953036 322.863832,11.5476296 C322.001172,12.9999556 321.569842,14.5887784 321.569842,16.314098 C321.569842,18.8037997 322.457071,20.9768288 324.23153,22.8331854 C326.005988,24.6895419 328.460201,25.6177202 331.594167,25.6177202 Z M362.214222,25.1590909 C364.157937,25.1590909 365.681241,24.8833674 366.784135,24.3319203 C367.88703,23.7804732 368.787909,22.9478427 369.486772,21.8340288 C370.185636,20.7202148 370.535068,19.4862837 370.535068,18.1322354 C370.535068,16.7235884 370.196556,15.503307 369.519531,14.4713912 C368.842507,13.4394753 367.772372,12.5795455 366.309127,11.8916016 C367.182706,11.2364169 367.813321,10.5348233 368.200972,9.78682085 C368.588623,9.03881836 368.782449,8.20618786 368.782449,7.28892933 C368.782449,5.88028232 368.356579,4.65727095 367.504839,3.61989524 C366.653099,2.58251953 365.506525,1.87273615 364.065119,1.4905451 C363.049583,1.20663175 361.44438,1.06467507 359.249512,1.06467507 L359.249512,1.06467507 L355.46582,1.06467507 L355.46582,25.1590909 L362.214222,25.1590909 Z M361.05127,10.5157138 L360.052113,10.5157138 L360.052113,5.43803267 L361.231445,5.43803267 C362.279741,5.43803267 363.060503,5.65915749 363.573731,6.10140714 C364.086959,6.54365678 364.343573,7.14151278 364.343573,7.89497514 C364.343573,8.70303622 364.073309,9.34184126 363.532782,9.81139027 C362.992254,10.2809393 362.165084,10.5157138 361.05127,10.5157138 L361.05127,10.5157138 Z M361.198686,20.7857333 L360.052113,20.7857333 L360.052113,14.6106179 L361.002131,14.6106179 C362.803889,14.6106179 364.092418,14.9109109 364.86772,15.5114968 C365.643022,16.1120827 366.030673,16.9310636 366.030673,17.9684393 C366.030673,18.8856978 365.700351,19.5845614 365.039706,20.0650302 C364.379062,20.5454989 363.098722,20.7857333 361.198686,20.7857333 L361.198686,20.7857333 Z M383.658416,25.6177202 C385.394656,25.6177202 386.983479,25.2054998 388.424885,24.3810591 C389.866291,23.5566184 391.004674,22.4127752 391.840035,20.9495295 C392.675395,19.4862837 393.093075,17.9138406 393.093075,16.2321999 C393.093075,14.561479 392.678125,13.0054155 391.848225,11.5640092 C391.018324,10.122603 389.863561,8.9814897 388.383936,8.14066939 C386.90431,7.29984908 385.323677,6.87943892 383.642037,6.87943892 C381.316131,6.87943892 379.257759,7.6875 377.466921,9.30362216 C375.424929,11.1599787 374.403933,13.4804244 374.403933,16.2649592 C374.403933,18.8638583 375.307542,21.0723766 377.11476,22.890514 C378.921977,24.7086515 381.103196,25.6177202 383.658416,25.6177202 Z M383.691176,21.4572976 C382.293448,21.4572976 381.138685,20.9768288 380.226887,20.0158913 C379.315088,19.0549538 378.859189,17.7991832 378.859189,16.2485795 C378.859189,14.7416548 379.320548,13.5049938 380.243266,12.5385964 C381.165985,11.572199 382.320748,11.0890004 383.707555,11.0890004 C385.127122,11.0890004 386.292805,11.5667392 387.204603,12.5222168 C388.116402,13.4776944 388.572301,14.7198153 388.572301,16.2485795 C388.572301,17.7773438 388.108212,19.0276545 387.180034,19.9995117 C386.251856,20.971369 385.088903,21.4572976 383.691176,21.4572976 Z M401.580993,25.1590909 L401.580993,0.458629261 L397.109357,0.458629261 L397.109357,25.1590909 L401.580993,25.1590909 Z M414.147434,25.6177202 C415.17389,25.6177202 416.126638,25.4348145 417.005678,25.069003 C417.884717,24.7031916 418.761026,24.1053356 419.634606,23.275435 L419.634606,23.275435 L419.634606,25.1590909 L424.089862,25.1590909 L424.089862,0.458629261 L419.634606,0.458629261 L419.634606,9.30362216 C418.837465,8.49556108 417.969345,7.88951527 417.030247,7.48548473 C416.091149,7.08145419 415.086532,6.87943892 414.016398,6.87943892 C411.690492,6.87943892 409.714018,7.75847834 408.086976,9.51655717 C406.459934,11.274636 405.646414,13.5295632 405.646414,16.2813388 C405.646414,18.9348366 406.487234,21.1542747 408.168874,22.9396529 C409.850515,24.7250311 411.843368,25.6177202 414.147434,25.6177202 Z M414.950036,21.5228161 C413.585068,21.5228161 412.435765,21.0259677 411.502126,20.032271 C410.568488,19.0385742 410.101669,17.7718839 410.101669,16.2321999 C410.101669,14.7034357 410.560298,13.4503951 411.477557,12.4730779 C412.394816,11.4957608 413.546849,11.0071023 414.933656,11.0071023 C416.353223,11.0071023 417.527095,11.487571 418.455274,12.4485085 C419.383452,13.409446 419.847541,14.6652166 419.847541,16.2158203 C419.847541,17.7991832 419.383452,19.0795233 418.455274,20.0568404 C417.527095,21.0341575 416.358683,21.5228161 414.950036,21.5228161 Z M454.824574,25.1590909 L454.824574,20.9167702 L446.241655,20.9167702 L448.944292,18.066717 C451.106401,15.8172496 452.594216,13.8680753 453.407737,12.2191939 C454.221258,10.5703125 454.628019,9.03062855 454.628019,7.60014205 C454.628019,6.39897017 454.292237,5.21690785 453.620672,4.05395508 C452.949108,2.89100231 452.053689,2.00104315 450.934415,1.38407759 C449.815141,0.767112038 448.523882,0.458629261 447.060636,0.458629261 C444.691051,0.458629261 442.750067,1.20390181 441.237682,2.69444691 C439.725298,4.18499201 438.909047,6.22971413 438.78893,8.82861328 L438.78893,8.82861328 L443.260565,8.82861328 C443.304244,7.57284268 443.653676,6.57914595 444.30886,5.84752308 C444.964045,5.11590021 445.783026,4.75008878 446.765803,4.75008878 C447.73766,4.75008878 448.532071,5.05311168 449.149037,5.65915749 C449.766003,6.2652033 450.074485,7.03231534 450.074485,7.96049361 C450.074485,8.85591264 449.776922,9.85779918 449.181796,10.9661532 C448.58667,12.0745073 447.388228,13.540483 445.58647,15.3640803 L445.58647,15.3640803 L438.133745,22.9642223 L438.133745,25.1590909 L454.824574,25.1590909 Z M472.730771,25.1590909 L472.730771,20.2124467 L474.876501,20.2124467 L474.876501,15.9701261 L472.730771,15.9701261 L472.730771,0.458629261 L468.144478,0.458629261 L457.727042,15.9701261 L457.727042,20.2124467 L468.242756,20.2124467 L468.242756,25.1590909 L472.730771,25.1590909 Z M468.242756,15.9701261 L462.739205,15.9701261 L468.242756,7.89497514 L468.242756,15.9701261 Z M483.364418,31.6781783 L483.364418,23.275435 C484.237997,24.1053356 485.117037,24.7031916 486.001536,25.069003 C486.886035,25.4348145 487.841513,25.6177202 488.867969,25.6177202 C491.172035,25.6177202 493.164888,24.7250311 494.846529,22.9396529 C496.52817,21.1542747 497.36899,18.9348366 497.36899,16.2813388 C497.36899,13.5295632 496.555469,11.274636 494.928427,9.51655717 C493.301385,7.75847834 491.324911,6.87943892 488.999006,6.87943892 C487.928871,6.87943892 486.924254,7.08145419 485.985156,7.48548473 C485.046058,7.88951527 484.172479,8.49556108 483.364418,9.30362216 L483.364418,9.30362216 L483.364418,7.33806818 L478.925542,7.33806818 L478.925542,31.6781783 L483.364418,31.6781783 Z M488.065368,21.5228161 C486.656721,21.5228161 485.488308,21.0341575 484.56013,20.0568404 C483.631952,19.0795233 483.167862,17.7991832 483.167862,16.2158203 C483.167862,14.6652166 483.631952,13.409446 484.56013,12.4485085 C485.488308,11.487571 486.656721,11.0071023 488.065368,11.0071023 C489.463095,11.0071023 490.620588,11.4957608 491.537846,12.4730779 C492.455105,13.4503951 492.913734,14.7034357 492.913734,16.2321999 C492.913734,17.7718839 492.446915,19.0385742 491.513277,20.032271 C490.579639,21.0259677 489.430336,21.5228161 488.065368,21.5228161 Z M504.792232,25.1590909 L508.985414,19.3115678 L513.227735,25.1590909 L518.420073,25.1590909 L511.573393,15.7735707 L517.666611,7.33806818 L512.523411,7.33806818 L508.985414,12.2028143 L505.496556,7.33806818 L500.304217,7.33806818 L506.413814,15.7735707 L499.665412,25.1590909 L504.792232,25.1590909 Z" id="H1|CenturyGothicBold24px"></path>
        </g>
    </g>
</svg>