<?xml version="1.0" encoding="UTF-8"?>
<svg width="418px" height="273px" viewBox="0 0 418 273" version="1.1" xmlns="http://www.w3.org/2000/svg" xmlns:xlink="http://www.w3.org/1999/xlink">
    <title>mobile_heirarchy</title>
    <g id="mobile_heirarchy" stroke="none" stroke-width="1" fill="none" fill-rule="evenodd">
        <g id="Group-3" transform="translate(0.000000, -5.000000)" fill="#CF6F30" fill-rule="nonzero">
            <path d="M6.926,38 L6.926,27.562 L18.044,27.562 L18.044,38 L21.92,38 L21.92,14.37 L18.044,14.37 L18.044,24.57 L6.926,24.57 L6.926,14.37 L3.05,14.37 L3.05,38 L6.926,38 Z M33.072,38 L33.072,13.86 L26,13.86 L26,17.396 L29.162,17.396 L29.162,38 L33.072,38 Z M63.502,27.324 L63.502,24.06 L49.528,24.06 L49.528,27.324 L63.502,27.324 Z M83.086,38 L83.086,28.412 L87.37,28.412 C90.2033333,28.412 92.3056667,27.7263333 93.677,26.355 C95.0483333,24.9836667 95.734,23.3063333 95.734,21.323 C95.734,19.3396667 95.0086667,17.685 93.558,16.359 C92.1073333,15.033 90.0446667,14.37 87.37,14.37 L87.37,14.37 L79.21,14.37 L79.21,38 L83.086,38 Z M87.37,25.386 L83.086,25.386 L83.086,17.396 L87.37,17.396 C88.8433333,17.396 89.9426667,17.7473333 90.668,18.45 C91.3933333,19.1526667 91.756,20.133 91.756,21.391 C91.756,22.649 91.3933333,23.6293333 90.668,24.332 C89.9426667,25.0346667 88.8433333,25.386 87.37,25.386 L87.37,25.386 Z M107.566,38.306 C110.308667,38.306 112.615,37.4106667 114.485,35.62 C116.355,33.8293333 117.29,31.4946667 117.29,28.616 C117.29,25.7373333 116.377667,23.4083333 114.553,21.629 C112.728333,19.8496667 110.456,18.96 107.736,18.96 C105.016,18.96 102.743667,19.8496667 100.919,21.629 C99.0943333,23.4083333 98.182,25.743 98.182,28.633 C98.182,31.523 99.066,33.8576667 100.834,35.637 C102.602,37.4163333 104.846,38.306 107.566,38.306 Z M107.583,35.042 C106.030333,35.042 104.732667,34.481 103.69,33.359 C102.647333,32.237 102.126,30.6616667 102.126,28.633 C102.126,26.6043333 102.658667,25.029 103.724,23.907 C104.789333,22.785 106.104,22.224 107.668,22.224 C109.232,22.224 110.563667,22.785 111.663,23.907 C112.762333,25.029 113.312,26.5986667 113.312,28.616 C113.312,30.6333333 112.745333,32.2086667 111.612,33.342 C110.478667,34.4753333 109.135667,35.042 107.583,35.042 Z M125.008,46.908 L125.008,34.498 C125.665333,35.654 126.549333,36.5776667 127.66,37.269 C128.770667,37.9603333 130.062667,38.306 131.536,38.306 C134.029333,38.306 136.120333,37.3936667 137.809,35.569 C139.497667,33.7443333 140.342,31.4096667 140.342,28.565 C140.342,25.7203333 139.503333,23.4083333 137.826,21.629 C136.148667,19.8496667 134.052,18.96 131.536,18.96 C130.062667,18.96 128.765,19.2943333 127.643,19.963 C126.521,20.6316667 125.642667,21.51 125.008,22.598 L125.008,22.598 L125.008,19.266 L121.132,19.266 L121.132,46.908 L125.008,46.908 Z M130.686,34.94 C129.144667,34.94 127.813,34.3676667 126.691,33.223 C125.569,32.0783333 125.008,30.5426667 125.008,28.616 C125.008,26.6893333 125.569,25.1593333 126.691,24.026 C127.813,22.8926667 129.150333,22.326 130.703,22.326 C132.255667,22.326 133.593,22.8813333 134.715,23.992 C135.837,25.1026667 136.398,26.6213333 136.398,28.548 C136.398,30.4746667 135.831333,32.0273333 134.698,33.206 C133.564667,34.362 132.227333,34.94 130.686,34.94 Z M148.06,46.908 L148.06,34.498 C148.717333,35.654 149.601333,36.5776667 150.712,37.269 C151.822667,37.9603333 153.114667,38.306 154.588,38.306 C157.081333,38.306 159.172333,37.3936667 160.861,35.569 C162.549667,33.7443333 163.394,31.4096667 163.394,28.565 C163.394,25.7203333 162.555333,23.4083333 160.878,21.629 C159.200667,19.8496667 157.104,18.96 154.588,18.96 C153.114667,18.96 151.817,19.2943333 150.695,19.963 C149.573,20.6316667 148.694667,21.51 148.06,22.598 L148.06,22.598 L148.06,19.266 L144.184,19.266 L144.184,46.908 L148.06,46.908 Z M153.738,34.94 C152.196667,34.94 150.865,34.3676667 149.743,33.223 C148.621,32.0783333 148.06,30.5426667 148.06,28.616 C148.06,26.6893333 148.621,25.1593333 149.743,24.026 C150.865,22.8926667 152.202333,22.326 153.755,22.326 C155.307667,22.326 156.645,22.8813333 157.767,23.992 C158.889,25.1026667 159.45,26.6213333 159.45,28.548 C159.45,30.4746667 158.883333,32.0273333 157.75,33.206 C156.616667,34.362 155.279333,34.94 153.738,34.94 Z M169.191,16.784 C169.882333,16.784 170.466,16.546 170.942,16.07 C171.418,15.594 171.656,15.0046667 171.656,14.302 C171.656,13.5993333 171.418,13.01 170.942,12.534 C170.466,12.058 169.882333,11.82 169.191,11.82 C168.499667,11.82 167.916,12.058 167.44,12.534 C166.964,13.01 166.726,13.5993333 166.726,14.302 C166.726,15.0046667 166.964,15.594 167.44,16.07 C167.916,16.546 168.499667,16.784 169.191,16.784 Z M171.112,38 L171.112,19.266 L167.236,19.266 L167.236,38 L171.112,38 Z M180.088,38 L180.088,27.528 C180.088,25.8506667 180.513,24.5643333 181.363,23.669 C182.213,22.7736667 183.363333,22.326 184.814,22.326 C186.264667,22.326 187.409333,22.7736667 188.248,23.669 C189.086667,24.5643333 189.506,25.8506667 189.506,27.528 L189.506,27.528 L189.506,38 L193.348,38 L193.348,26.95 C193.348,24.434 192.662333,22.4733333 191.291,21.068 C189.919667,19.6626667 188.18,18.96 186.072,18.96 C183.329333,18.96 181.334667,20.048 180.088,22.224 L180.088,22.224 L180.088,19.266 L176.212,19.266 L176.212,38 L180.088,38 Z M204.84,38.306 C206.993333,38.306 208.755667,37.796 210.127,36.776 C211.498333,35.756 212.184,34.43 212.184,32.798 C212.184,31.4833333 211.81,30.435 211.062,29.653 C210.314,28.871 209.401667,28.3326667 208.325,28.038 C207.248333,27.7433333 206.171667,27.494 205.095,27.29 C204.018333,27.086 203.106,26.7686667 202.358,26.338 C201.61,25.9073333 201.236,25.3123333 201.236,24.553 C201.236,23.7936667 201.530667,23.1816667 202.12,22.717 C202.709333,22.2523333 203.525333,22.02 204.568,22.02 C205.610667,22.02 206.421,22.2806667 206.999,22.802 C207.577,23.3233333 207.9,24.0486667 207.968,24.978 L207.968,24.978 L211.946,24.978 C211.855333,23.1193333 211.169667,21.6516667 209.889,20.575 C208.608333,19.4983333 206.88,18.96 204.704,18.96 C202.528,18.96 200.771333,19.5096667 199.434,20.609 C198.096667,21.7083333 197.428,23.0513333 197.428,24.638 C197.428,25.8846667 197.802,26.882 198.55,27.63 C199.298,28.378 200.210333,28.8936667 201.287,29.177 C202.363667,29.4603333 203.440333,29.7096667 204.517,29.925 C205.593667,30.1403333 206.506,30.4633333 207.254,30.894 C208.002,31.3246667 208.376,31.9253333 208.376,32.696 C208.376,33.4666667 208.064333,34.0843333 207.441,34.549 C206.817667,35.0136667 205.979,35.246 204.925,35.246 C203.871,35.246 203.038,34.9853333 202.426,34.464 C201.814,33.9426667 201.474,33.2173333 201.406,32.288 L201.406,32.288 L197.394,32.288 C197.53,34.2146667 198.266667,35.6993333 199.604,36.742 C200.941333,37.7846667 202.686667,38.306 204.84,38.306 Z M230.51,38 L230.51,21.816 L237.752,38 L240.438,38 L247.646,21.816 L247.646,38 L251.522,38 L251.522,14.37 L247.374,14.37 L239.112,32.9 L230.816,14.37 L226.634,14.37 L226.634,38 L230.51,38 Z M264.51,38.306 C266.708667,38.306 268.556,37.7563333 270.052,36.657 C271.548,35.5576667 272.579333,34.1466667 273.146,32.424 L273.146,32.424 L268.964,32.424 C268.102667,34.1693333 266.618,35.042 264.51,35.042 C263.059333,35.042 261.852333,34.583 260.889,33.665 C259.925667,32.747 259.398667,31.506 259.308,29.942 L259.308,29.942 L273.656,29.942 C273.746667,29.3753333 273.792,28.7633333 273.792,28.106 C273.792,25.386 272.942,23.1816667 271.242,21.493 C269.542,19.8043333 267.326333,18.96 264.595,18.96 C261.863667,18.96 259.636667,19.8383333 257.914,21.595 C256.191333,23.3516667 255.33,25.692 255.33,28.616 C255.33,31.54 256.18,33.886 257.88,35.654 C259.58,37.422 261.79,38.306 264.51,38.306 Z M269.746,27.29 L259.342,27.29 C259.478,25.7486667 260.027667,24.519 260.991,23.601 C261.954333,22.683 263.15,22.224 264.578,22.224 C266.006,22.224 267.218667,22.683 268.216,23.601 C269.213333,24.519 269.723333,25.7486667 269.746,27.29 L269.746,27.29 Z M285.148,38.306 C286.621333,38.306 287.913333,37.9603333 289.024,37.269 C290.134667,36.5776667 291.007333,35.654 291.642,34.498 L291.642,34.498 L291.642,38 L295.552,38 L295.552,12.84 L291.642,12.84 L291.642,22.598 C291.03,21.51 290.163,20.6316667 289.041,19.963 C287.919,19.2943333 286.621333,18.96 285.148,18.96 C282.632,18.96 280.529667,19.8496667 278.841,21.629 C277.152333,23.4083333 276.308,25.7203333 276.308,28.565 C276.308,31.4096667 277.158,33.7443333 278.858,35.569 C280.558,37.3936667 282.654667,38.306 285.148,38.306 Z M285.964,34.94 C284.422667,34.94 283.091,34.3563333 281.969,33.189 C280.847,32.0216667 280.286,30.4746667 280.286,28.548 C280.286,26.6213333 280.847,25.1026667 281.969,23.992 C283.091,22.8813333 284.422667,22.326 285.964,22.326 C287.505333,22.326 288.837,22.8926667 289.959,24.026 C291.081,25.1593333 291.642,26.6893333 291.642,28.616 C291.642,30.5426667 291.075333,32.084 289.942,33.24 C288.831333,34.3733333 287.505333,34.94 285.964,34.94 Z M302.607,16.784 C303.298333,16.784 303.882,16.546 304.358,16.07 C304.834,15.594 305.072,15.0046667 305.072,14.302 C305.072,13.5993333 304.834,13.01 304.358,12.534 C303.882,12.058 303.298333,11.82 302.607,11.82 C301.915667,11.82 301.332,12.058 300.856,12.534 C300.38,13.01 300.142,13.5993333 300.142,14.302 C300.142,15.0046667 300.38,15.594 300.856,16.07 C301.332,16.546 301.915667,16.784 302.607,16.784 Z M304.528,38 L304.528,19.266 L300.652,19.266 L300.652,38 L304.528,38 Z M316.734,38.272 C319.499333,38.272 321.494,37.1953333 322.718,35.042 L322.718,35.042 L322.718,38 L326.594,38 L326.594,19.266 L322.718,19.266 L322.718,29.738 C322.718,31.4153333 322.293,32.7016667 321.443,33.597 C320.593,34.4923333 319.442667,34.94 317.992,34.94 C316.541333,34.94 315.396667,34.4923333 314.558,33.597 C313.719333,32.7016667 313.3,31.4153333 313.3,29.738 L313.3,29.738 L313.3,19.266 L309.458,19.266 L309.458,30.316 C309.458,32.832 310.143667,34.787 311.515,36.181 C312.886333,37.575 314.626,38.272 316.734,38.272 Z M335.57,38 L335.57,27.528 C335.57,25.8506667 335.995,24.5643333 336.845,23.669 C337.695,22.7736667 338.845333,22.326 340.296,22.326 C341.746667,22.326 342.891333,22.7736667 343.73,23.669 C344.568667,24.5643333 344.988,25.8506667 344.988,27.528 L344.988,27.528 L344.988,38 L348.83,38 L348.83,27.528 C348.83,25.8506667 349.249333,24.5643333 350.088,23.669 C350.926667,22.7736667 352.071333,22.326 353.522,22.326 C354.972667,22.326 356.117333,22.7736667 356.956,23.669 C357.794667,24.5643333 358.214,25.8506667 358.214,27.528 L358.214,27.528 L358.214,38 L362.09,38 L362.09,26.95 C362.09,24.4113333 361.398667,22.445 360.016,21.051 C358.633333,19.657 356.865333,18.96 354.712,18.96 C353.238667,18.96 351.918333,19.3113333 350.751,20.014 C349.583667,20.7166667 348.671333,21.6913333 348.014,22.938 C347.424667,21.646 346.563333,20.66 345.43,19.98 C344.296667,19.3 343.004667,18.96 341.554,18.96 C338.811333,18.96 336.816667,20.048 335.57,22.224 L335.57,22.224 L335.57,19.266 L331.694,19.266 L331.694,38 L335.57,38 Z M384.921,38.136 C387.403,38.136 389.341,37.49 390.735,36.198 C392.129,34.906 392.826,33.3306667 392.826,31.472 C392.826,29.6133333 392.452,28.1456667 391.704,27.069 C390.956,25.9923333 389.913333,25.25 388.576,24.842 L388.576,24.842 L388.576,24.706 C389.618667,24.366 390.514,23.6973333 391.262,22.7 C392.01,21.7026667 392.384,20.5013333 392.384,19.096 C392.384,17.2146667 391.709667,15.6676667 390.361,14.455 C389.012333,13.2423333 387.165,12.636 384.819,12.636 C382.473,12.636 380.557667,13.2253333 379.073,14.404 C377.588333,15.5826667 376.778,17.226 376.642,19.334 L376.642,19.334 L380.416,19.334 C380.552,18.382 380.971333,17.583 381.674,16.937 C382.376667,16.291 383.368333,15.968 384.649,15.968 C385.929667,15.968 386.921333,16.291 387.624,16.937 C388.326667,17.583 388.678,18.45 388.678,19.538 C388.678,21.9633333 386.796667,23.1986667 383.034,23.244 L383.034,23.244 L382.116,23.244 L382.116,26.44 L383,26.44 C385.085333,26.44 386.632333,26.7743333 387.641,27.443 C388.649667,28.1116667 389.154,29.2393333 389.154,30.826 C389.154,32.0273333 388.78,33.0076667 388.032,33.767 C387.284,34.5263333 386.207333,34.906 384.802,34.906 C383.396667,34.906 382.274667,34.5263333 381.436,33.767 C380.597333,33.0076667 380.132667,32.0273333 380.042,30.826 L380.042,30.826 L376.302,30.826 C376.415333,33.1833333 377.259667,34.991 378.835,36.249 C380.410333,37.507 382.439,38.136 384.921,38.136 Z M412.546,38 L412.546,32.832 L415.708,32.832 L415.708,29.466 L412.546,29.466 L412.546,13.52 L407.854,13.52 L396.43,29.908 L396.43,32.832 L408.738,32.832 L408.738,38 L412.546,38 Z M408.908,29.466 L400.884,29.466 L408.908,17.464 L408.908,29.466 Z" id="H1-PoppinsMedium34"></path>
            <path d="M5.832,93 L5.832,84.927 L13.932,84.927 L13.932,93 L17.739,93 L17.739,74.154 L13.932,74.154 L13.932,82.011 L5.832,82.011 L5.832,74.154 L2.025,74.154 L2.025,93 L5.832,93 Z M34.317,92.73 L34.317,89.625 L26.46,89.625 C26.712,89.391 27.1665,88.9815 27.8235,88.3965 C28.4805,87.8115 28.971,87.357 29.295,87.033 C29.619,86.709 30.0645,86.259 30.6315,85.683 C31.1985,85.107 31.635,84.5985 31.941,84.1575 C32.247,83.7165 32.562,83.208 32.886,82.632 C33.534,81.552 33.858,80.382 33.858,79.122 C33.858,77.43 33.3,76.026 32.184,74.91 C31.068,73.794 29.529,73.236 27.567,73.236 C25.605,73.236 24.0165,73.785 22.8015,74.883 C21.5865,75.981 20.97,77.583 20.952,79.689 L20.952,79.689 L24.624,79.689 C24.642,78.681 24.894,77.889 25.38,77.313 C25.866,76.737 26.541,76.449 27.405,76.449 C29.169,76.449 30.051,77.403 30.051,79.311 C30.051,80.283 29.61,81.399 28.728,82.659 C28.386,83.145 27.8595,83.7435 27.1485,84.4545 C26.4375,85.1655 25.839,85.737 25.353,86.169 C24.867,86.601 24.138,87.2355 23.166,88.0725 C22.194,88.9095 21.474,89.535 21.006,89.949 L21.006,89.949 L21.006,92.73 L34.317,92.73 Z M56.97,84.954 L56.97,81.795 L45.495,81.795 L45.495,84.954 L56.97,84.954 Z M73.035,93 L73.035,85.494 L76.167,85.494 C77.409,85.494 78.4935,85.3185 79.4205,84.9675 C80.3475,84.6165 81.054,84.144 81.54,83.55 C82.494,82.416 82.971,81.111 82.971,79.635 C82.971,78.159 82.3815,76.8765 81.2025,75.7875 C80.0235,74.6985 78.345,74.154 76.167,74.154 L76.167,74.154 L69.228,74.154 L69.228,93 L73.035,93 Z M76.167,82.578 L73.035,82.578 L73.035,77.07 L76.167,77.07 C77.121,77.07 77.85,77.3175 78.354,77.8125 C78.858,78.3075 79.11,78.978 79.11,79.824 C79.11,80.67 78.858,81.3405 78.354,81.8355 C77.85,82.3305 77.121,82.578 76.167,82.578 L76.167,82.578 Z M92.475,93.216 C94.671,93.216 96.5115,92.505 97.9965,91.083 C99.4815,89.661 100.224,87.798 100.224,85.494 C100.224,83.19 99.486,81.336 98.01,79.932 C96.534,78.528 94.7025,77.826 92.5155,77.826 C90.3285,77.826 88.497,78.528 87.021,79.932 C85.545,81.336 84.807,83.19 84.807,85.494 C84.807,87.798 85.536,89.661 86.994,91.083 C88.452,92.505 90.279,93.216 92.475,93.216 Z M92.475,90.003 C91.413,90.003 90.513,89.616 89.775,88.842 C89.037,88.068 88.668,86.961 88.668,85.521 C88.668,84.081 89.037,82.974 89.775,82.2 C90.513,81.426 91.4175,81.039 92.4885,81.039 C93.5595,81.039 94.473,81.426 95.229,82.2 C95.985,82.974 96.363,84.0765 96.363,85.5075 C96.363,86.9385 95.9805,88.0455 95.2155,88.8285 C94.4505,89.6115 93.537,90.003 92.475,90.003 Z M107.055,100.128 L107.055,90.489 C108.171,92.307 109.7415,93.216 111.7665,93.216 C113.7915,93.216 115.47,92.496 116.802,91.056 C118.134,89.616 118.8,87.7665 118.8,85.5075 C118.8,83.2485 118.134,81.4035 116.802,79.9725 C115.47,78.5415 113.778,77.826 111.726,77.826 C109.674,77.826 108.117,78.672 107.055,80.364 L107.055,80.364 L107.055,78.042 L103.248,78.042 L103.248,100.128 L107.055,100.128 Z M110.997,89.922 C109.935,89.922 109.0125,89.5305 108.2295,88.7475 C107.4465,87.9645 107.055,86.889 107.055,85.521 C107.055,84.153 107.4465,83.0775 108.2295,82.2945 C109.0125,81.5115 109.935,81.12 110.997,81.12 C112.059,81.12 112.9815,81.507 113.7645,82.281 C114.5475,83.055 114.939,84.126 114.939,85.494 C114.939,86.862 114.543,87.942 113.751,88.734 C112.977,89.526 112.059,89.922 110.997,89.922 Z M125.604,100.128 L125.604,90.489 C126.72,92.307 128.2905,93.216 130.3155,93.216 C132.3405,93.216 134.019,92.496 135.351,91.056 C136.683,89.616 137.349,87.7665 137.349,85.5075 C137.349,83.2485 136.683,81.4035 135.351,79.9725 C134.019,78.5415 132.327,77.826 130.275,77.826 C128.223,77.826 126.666,78.672 125.604,80.364 L125.604,80.364 L125.604,78.042 L121.797,78.042 L121.797,100.128 L125.604,100.128 Z M129.546,89.922 C128.484,89.922 127.5615,89.5305 126.7785,88.7475 C125.9955,87.9645 125.604,86.889 125.604,85.521 C125.604,84.153 125.9955,83.0775 126.7785,82.2945 C127.5615,81.5115 128.484,81.12 129.546,81.12 C130.608,81.12 131.5305,81.507 132.3135,82.281 C133.0965,83.055 133.488,84.126 133.488,85.494 C133.488,86.862 133.092,87.942 132.3,88.734 C131.526,89.526 130.608,89.922 129.546,89.922 Z M142.2495,76.557 C142.8885,76.557 143.433,76.332 143.883,75.882 C144.333,75.432 144.558,74.883 144.558,74.235 C144.558,73.587 144.333,73.038 143.883,72.588 C143.433,72.138 142.8885,71.913 142.2495,71.913 C141.6105,71.913 141.066,72.138 140.616,72.588 C140.166,73.038 139.941,73.587 139.941,74.235 C139.941,74.883 140.166,75.432 140.616,75.882 C141.066,76.332 141.6105,76.557 142.2495,76.557 Z M144.153,93 L144.153,78.042 L140.346,78.042 L140.346,93 L144.153,93 Z M152.01,93 L152.01,84.738 C152.01,83.568 152.3115,82.6725 152.9145,82.0515 C153.5175,81.4305 154.332,81.12 155.358,81.12 C156.384,81.12 157.194,81.4305 157.788,82.0515 C158.382,82.6725 158.679,83.568 158.679,84.738 L158.679,84.738 L158.679,93 L162.459,93 L162.459,84.198 C162.459,82.2 161.919,80.6385 160.839,79.5135 C159.759,78.3885 158.364,77.826 156.654,77.826 C154.512,77.826 152.964,78.645 152.01,80.283 L152.01,80.283 L152.01,78.042 L148.203,78.042 L148.203,93 L152.01,93 Z M171.7335,93.216 C173.5065,93.216 174.9645,92.793 176.1075,91.947 C177.2505,91.101 177.822,90.003 177.822,88.653 C177.822,87.627 177.525,86.8035 176.931,86.1825 C176.337,85.5615 175.6215,85.1295 174.7845,84.8865 C173.9475,84.6435 173.106,84.441 172.26,84.279 C171.414,84.117 170.694,83.892 170.1,83.604 C169.506,83.316 169.209,82.92 169.209,82.416 C169.209,81.912 169.407,81.516 169.803,81.228 C170.199,80.94 170.757,80.796 171.477,80.796 C172.917,80.796 173.691,81.426 173.799,82.686 L173.799,82.686 L177.687,82.686 C177.615,81.192 177.03,80.0085 175.932,79.1355 C174.834,78.2625 173.376,77.826 171.558,77.826 C169.74,77.826 168.282,78.267 167.184,79.149 C166.086,80.031 165.537,81.12 165.537,82.416 C165.537,83.388 165.834,84.1755 166.428,84.7785 C167.022,85.3815 167.7375,85.8 168.5745,86.034 C169.4115,86.268 170.253,86.466 171.099,86.628 C171.945,86.79 172.665,87.0195 173.259,87.3165 C173.853,87.6135 174.15,88.0185 174.15,88.5315 C174.15,89.0445 173.934,89.4585 173.502,89.7735 C173.07,90.0885 172.503,90.246 171.801,90.246 C170.343,90.246 169.542,89.616 169.398,88.356 L169.398,88.356 L165.51,88.356 C165.618,89.922 166.239,91.1235 167.373,91.9605 C168.507,92.7975 169.9605,93.216 171.7335,93.216 Z M195.6015,93.189 C197.6445,93.189 199.2825,92.631 200.5155,91.515 C201.7485,90.399 202.365,89.067 202.365,87.519 C202.365,86.583 202.1895,85.7865 201.8385,85.1295 C201.4875,84.4725 201.024,83.973 200.448,83.631 C199.872,83.289 199.242,83.001 198.558,82.767 C197.874,82.533 197.19,82.335 196.506,82.173 C195.822,82.011 195.192,81.8265 194.616,81.6195 C194.04,81.4125 193.5765,81.1155 193.2255,80.7285 C192.8745,80.3415 192.699,79.806 192.699,79.122 C192.699,78.438 192.9375,77.9025 193.4145,77.5155 C193.8915,77.1285 194.508,76.935 195.264,76.935 C196.02,76.935 196.632,77.1465 197.1,77.5695 C197.568,77.9925 197.838,78.564 197.91,79.284 L197.91,79.284 L202.068,79.284 C201.96,77.466 201.312,76.1115 200.124,75.2205 C198.936,74.3295 197.3655,73.884 195.4125,73.884 C193.4595,73.884 191.862,74.397 190.62,75.423 C189.378,76.449 188.757,77.817 188.757,79.527 C188.757,80.787 189.09,81.7995 189.756,82.5645 C190.422,83.3295 191.232,83.865 192.186,84.171 C193.14,84.477 194.0895,84.738 195.0345,84.954 C195.9795,85.17 196.785,85.494 197.451,85.926 C198.117,86.358 198.45,86.9475 198.45,87.6945 C198.45,88.4415 198.198,89.04 197.694,89.49 C197.19,89.94 196.506,90.165 195.642,90.165 C193.896,90.165 192.951,89.337 192.807,87.681 L192.807,87.681 L188.757,87.681 C188.757,89.427 189.387,90.7815 190.647,91.7445 C191.907,92.7075 193.5585,93.189 195.6015,93.189 Z M212.328,93.216 C214.092,93.216 215.595,92.766 216.837,91.866 C218.079,90.966 218.916,89.805 219.348,88.383 L219.348,88.383 L215.244,88.383 C214.614,89.463 213.642,90.003 212.328,90.003 C211.356,90.003 210.555,89.706 209.925,89.112 C209.295,88.518 208.935,87.735 208.845,86.763 L208.845,86.763 L219.753,86.763 C219.825,86.313 219.861,85.827 219.861,85.305 C219.861,83.037 219.159,81.2235 217.755,79.8645 C216.351,78.5055 214.5555,77.826 212.3685,77.826 C210.1815,77.826 208.3995,78.5235 207.0225,79.9185 C205.6455,81.3135 204.957,83.172 204.957,85.494 C204.957,87.816 205.641,89.6835 207.009,91.0965 C208.377,92.5095 210.15,93.216 212.328,93.216 Z M215.919,84.306 L208.845,84.306 C208.971,83.316 209.3535,82.524 209.9925,81.93 C210.6315,81.336 211.428,81.039 212.382,81.039 C213.336,81.039 214.1505,81.336 214.8255,81.93 C215.5005,82.524 215.865,83.316 215.919,84.306 L215.919,84.306 Z M226.665,93 L226.665,84.738 C226.665,83.568 226.9665,82.6725 227.5695,82.0515 C228.1725,81.4305 228.987,81.12 230.013,81.12 C231.039,81.12 231.849,81.4305 232.443,82.0515 C233.037,82.6725 233.334,83.568 233.334,84.738 L233.334,84.738 L233.334,93 L237.114,93 L237.114,84.738 C237.114,83.568 237.4155,82.6725 238.0185,82.0515 C238.6215,81.4305 239.436,81.12 240.462,81.12 C241.488,81.12 242.298,81.4305 242.892,82.0515 C243.486,82.6725 243.783,83.568 243.783,84.738 L243.783,84.738 L243.783,93 L247.563,93 L247.563,84.198 C247.563,82.182 247.0185,80.616 245.9295,79.5 C244.8405,78.384 243.405,77.826 241.623,77.826 C240.489,77.826 239.4675,78.096 238.5585,78.636 C237.6495,79.176 236.934,79.914 236.412,80.85 C235.926,79.878 235.2375,79.131 234.3465,78.609 C233.4555,78.087 232.443,77.826 231.309,77.826 C229.167,77.826 227.619,78.645 226.665,80.283 L226.665,80.283 L226.665,78.042 L222.858,78.042 L222.858,93 L226.665,93 Z M253.3815,76.557 C254.0205,76.557 254.565,76.332 255.015,75.882 C255.465,75.432 255.69,74.883 255.69,74.235 C255.69,73.587 255.465,73.038 255.015,72.588 C254.565,72.138 254.0205,71.913 253.3815,71.913 C252.7425,71.913 252.198,72.138 251.748,72.588 C251.298,73.038 251.073,73.587 251.073,74.235 C251.073,74.883 251.298,75.432 251.748,75.882 C252.198,76.332 252.7425,76.557 253.3815,76.557 Z M255.285,93 L255.285,78.042 L251.478,78.042 L251.478,93 L255.285,93 Z M267.8535,93.216 C269.8785,93.216 271.557,92.496 272.889,91.056 C274.221,89.616 274.887,87.7665 274.887,85.5075 C274.887,83.2485 274.221,81.4035 272.889,79.9725 C271.557,78.5415 269.865,77.826 267.813,77.826 C265.761,77.826 264.204,78.672 263.142,80.364 L263.142,80.364 L263.142,73.02 L259.335,73.02 L259.335,93 L263.142,93 L263.142,90.489 C264.258,92.307 265.8285,93.216 267.8535,93.216 Z M267.084,89.922 C266.022,89.922 265.0995,89.5305 264.3165,88.7475 C263.5335,87.9645 263.142,86.889 263.142,85.521 C263.142,84.153 263.5335,83.0775 264.3165,82.2945 C265.0995,81.5115 266.022,81.12 267.084,81.12 C268.146,81.12 269.0685,81.507 269.8515,82.281 C270.6345,83.055 271.026,84.126 271.026,85.494 C271.026,86.862 270.63,87.942 269.838,88.734 C269.064,89.526 268.146,89.922 267.084,89.922 Z M284.526,93.216 C286.722,93.216 288.5625,92.505 290.0475,91.083 C291.5325,89.661 292.275,87.798 292.275,85.494 C292.275,83.19 291.537,81.336 290.061,79.932 C288.585,78.528 286.7535,77.826 284.5665,77.826 C282.3795,77.826 280.548,78.528 279.072,79.932 C277.596,81.336 276.858,83.19 276.858,85.494 C276.858,87.798 277.587,89.661 279.045,91.083 C280.503,92.505 282.33,93.216 284.526,93.216 Z M284.526,90.003 C283.464,90.003 282.564,89.616 281.826,88.842 C281.088,88.068 280.719,86.961 280.719,85.521 C280.719,84.081 281.088,82.974 281.826,82.2 C282.564,81.426 283.4685,81.039 284.5395,81.039 C285.6105,81.039 286.524,81.426 287.28,82.2 C288.036,82.974 288.414,84.0765 288.414,85.5075 C288.414,86.9385 288.0315,88.0455 287.2665,88.8285 C286.5015,89.6115 285.588,90.003 284.526,90.003 Z M299.106,93 L299.106,73.02 L295.299,73.02 L295.299,93 L299.106,93 Z M309.15,93.216 C311.166,93.216 312.741,92.307 313.875,90.489 L313.875,90.489 L313.875,93 L317.655,93 L317.655,73.02 L313.875,73.02 L313.875,80.364 C312.795,78.672 311.229,77.826 309.177,77.826 C307.125,77.826 305.433,78.5415 304.101,79.9725 C302.769,81.4035 302.103,83.244 302.103,85.494 C302.103,87.744 302.769,89.598 304.101,91.056 C305.451,92.496 307.134,93.216 309.15,93.216 Z M309.9195,89.922 C308.8665,89.922 307.944,89.526 307.152,88.734 C306.36,87.942 305.964,86.862 305.964,85.494 C305.964,84.126 306.3555,83.055 307.1385,82.281 C307.9215,81.507 308.844,81.12 309.906,81.12 C310.968,81.12 311.895,81.5115 312.687,82.2945 C313.479,83.0775 313.875,84.153 313.875,85.521 C313.875,86.889 313.479,87.969 312.687,88.761 C311.895,89.535 310.9725,89.922 309.9195,89.922 Z M342.333,92.73 L342.333,89.625 L334.476,89.625 C334.728,89.391 335.1825,88.9815 335.8395,88.3965 C336.4965,87.8115 336.987,87.357 337.311,87.033 C337.635,86.709 338.0805,86.259 338.6475,85.683 C339.2145,85.107 339.651,84.5985 339.957,84.1575 C340.263,83.7165 340.578,83.208 340.902,82.632 C341.55,81.552 341.874,80.382 341.874,79.122 C341.874,77.43 341.316,76.026 340.2,74.91 C339.084,73.794 337.545,73.236 335.583,73.236 C333.621,73.236 332.0325,73.785 330.8175,74.883 C329.6025,75.981 328.986,77.583 328.968,79.689 L328.968,79.689 L332.64,79.689 C332.658,78.681 332.91,77.889 333.396,77.313 C333.882,76.737 334.557,76.449 335.421,76.449 C337.185,76.449 338.067,77.403 338.067,79.311 C338.067,80.283 337.626,81.399 336.744,82.659 C336.402,83.145 335.8755,83.7435 335.1645,84.4545 C334.4535,85.1655 333.855,85.737 333.369,86.169 C332.883,86.601 332.154,87.2355 331.182,88.0725 C330.21,88.9095 329.49,89.535 329.022,89.949 L329.022,89.949 L329.022,92.73 L342.333,92.73 Z M350.109,93 L357.399,76.26 L357.399,73.452 L344.385,73.452 L344.385,76.584 L353.619,76.584 L345.978,93 L350.109,93 Z" id="H2-PoppinsSemibold27"></path>
            <path d="M5.4,143 L5.4,135.525 L12.9,135.525 L12.9,143 L16.425,143 L16.425,125.55 L12.9,125.55 L12.9,132.825 L5.4,132.825 L5.4,125.55 L1.875,125.55 L1.875,143 L5.4,143 Z M25.85,143.1 C27.7166667,143.1 29.1833333,142.625 30.25,141.675 C31.3166667,140.725 31.85,139.475 31.85,137.925 C31.85,135.591667 30.85,134.083333 28.85,133.4 L28.85,133.4 L28.85,133.3 C29.5333333,133.066667 30.15,132.5875 30.7,131.8625 C31.25,131.1375 31.525,130.241667 31.525,129.175 C31.525,127.791667 31.0166667,126.645833 30,125.7375 C28.9833333,124.829167 27.5791667,124.375 25.7875,124.375 C23.9958333,124.375 22.5458333,124.829167 21.4375,125.7375 C20.3291667,126.645833 19.75,127.916667 19.7,129.55 L19.7,129.55 L23.125,129.55 C23.1916667,129 23.425,128.5 23.825,128.05 C24.225,127.6 24.825,127.375 25.625,127.375 C26.425,127.375 27.0416667,127.575 27.475,127.975 C27.9083333,128.375 28.125,128.916667 28.125,129.6 C28.125,131.183333 26.9416667,131.975 24.575,131.975 L24.575,131.975 L23.85,131.975 L23.85,134.85 L24.575,134.85 C25.925,134.85 26.9125,135.0625 27.5375,135.4875 C28.1625,135.9125 28.475,136.566667 28.475,137.45 C28.475,138.333333 28.2458333,139.0125 27.7875,139.4875 C27.3291667,139.9625 26.6583333,140.2 25.775,140.2 C24.8916667,140.2 24.1875,139.954167 23.6625,139.4625 C23.1375,138.970833 22.8583333,138.316667 22.825,137.5 L22.825,137.5 L19.425,137.5 C19.475,139.333333 20.0916667,140.725 21.275,141.675 C22.4583333,142.625 23.9833333,143.1 25.85,143.1 Z M53.375,135.55 L53.375,132.625 L42.75,132.625 L42.75,135.55 L53.375,135.55 Z M68.25,143 L68.25,136.05 L71.15,136.05 C72.3,136.05 73.3041667,135.8875 74.1625,135.5625 C75.0208333,135.2375 75.675,134.8 76.125,134.25 C77.0083333,133.2 77.45,131.991667 77.45,130.625 C77.45,129.258333 76.9041667,128.070833 75.8125,127.0625 C74.7208333,126.054167 73.1666667,125.55 71.15,125.55 L71.15,125.55 L64.725,125.55 L64.725,143 L68.25,143 Z M71.15,133.35 L68.25,133.35 L68.25,128.25 L71.15,128.25 C72.0333333,128.25 72.7083333,128.479167 73.175,128.9375 C73.6416667,129.395833 73.875,130.016667 73.875,130.8 C73.875,131.583333 73.6416667,132.204167 73.175,132.6625 C72.7083333,133.120833 72.0333333,133.35 71.15,133.35 L71.15,133.35 Z M86.25,143.2 C88.2833333,143.2 89.9875,142.541667 91.3625,141.225 C92.7375,139.908333 93.425,138.183333 93.425,136.05 C93.425,133.916667 92.7416667,132.2 91.375,130.9 C90.0083333,129.6 88.3125,128.95 86.2875,128.95 C84.2625,128.95 82.5666667,129.6 81.2,130.9 C79.8333333,132.2 79.15,133.916667 79.15,136.05 C79.15,138.183333 79.825,139.908333 81.175,141.225 C82.525,142.541667 84.2166667,143.2 86.25,143.2 Z M86.25,140.225 C85.2666667,140.225 84.4333333,139.866667 83.75,139.15 C83.0666667,138.433333 82.725,137.408333 82.725,136.075 C82.725,134.741667 83.0666667,133.716667 83.75,133 C84.4333333,132.283333 85.2708333,131.925 86.2625,131.925 C87.2541667,131.925 88.1,132.283333 88.8,133 C89.5,133.716667 89.85,134.7375 89.85,136.0625 C89.85,137.3875 89.4958333,138.4125 88.7875,139.1375 C88.0791667,139.8625 87.2333333,140.225 86.25,140.225 Z M99.75,149.6 L99.75,140.675 C100.783333,142.358333 102.2375,143.2 104.1125,143.2 C105.9875,143.2 107.541667,142.533333 108.775,141.2 C110.008333,139.866667 110.625,138.154167 110.625,136.0625 C110.625,133.970833 110.008333,132.2625 108.775,130.9375 C107.541667,129.6125 105.975,128.95 104.075,128.95 C102.175,128.95 100.733333,129.733333 99.75,131.3 L99.75,131.3 L99.75,129.15 L96.225,129.15 L96.225,149.6 L99.75,149.6 Z M103.4,140.15 C102.416667,140.15 101.5625,139.7875 100.8375,139.0625 C100.1125,138.3375 99.75,137.341667 99.75,136.075 C99.75,134.808333 100.1125,133.8125 100.8375,133.0875 C101.5625,132.3625 102.416667,132 103.4,132 C104.383333,132 105.2375,132.358333 105.9625,133.075 C106.6875,133.791667 107.05,134.783333 107.05,136.05 C107.05,137.316667 106.683333,138.316667 105.95,139.05 C105.233333,139.783333 104.383333,140.15 103.4,140.15 Z M116.925,149.6 L116.925,140.675 C117.958333,142.358333 119.4125,143.2 121.2875,143.2 C123.1625,143.2 124.716667,142.533333 125.95,141.2 C127.183333,139.866667 127.8,138.154167 127.8,136.0625 C127.8,133.970833 127.183333,132.2625 125.95,130.9375 C124.716667,129.6125 123.15,128.95 121.25,128.95 C119.35,128.95 117.908333,129.733333 116.925,131.3 L116.925,131.3 L116.925,129.15 L113.4,129.15 L113.4,149.6 L116.925,149.6 Z M120.575,140.15 C119.591667,140.15 118.7375,139.7875 118.0125,139.0625 C117.2875,138.3375 116.925,137.341667 116.925,136.075 C116.925,134.808333 117.2875,133.8125 118.0125,133.0875 C118.7375,132.3625 119.591667,132 120.575,132 C121.558333,132 122.4125,132.358333 123.1375,133.075 C123.8625,133.791667 124.225,134.783333 124.225,136.05 C124.225,137.316667 123.858333,138.316667 123.125,139.05 C122.408333,139.783333 121.558333,140.15 120.575,140.15 Z M132.3375,127.775 C132.929167,127.775 133.433333,127.566667 133.85,127.15 C134.266667,126.733333 134.475,126.225 134.475,125.625 C134.475,125.025 134.266667,124.516667 133.85,124.1 C133.433333,123.683333 132.929167,123.475 132.3375,123.475 C131.745833,123.475 131.241667,123.683333 130.825,124.1 C130.408333,124.516667 130.2,125.025 130.2,125.625 C130.2,126.225 130.408333,126.733333 130.825,127.15 C131.241667,127.566667 131.745833,127.775 132.3375,127.775 Z M134.1,143 L134.1,129.15 L130.575,129.15 L130.575,143 L134.1,143 Z M141.375,143 L141.375,135.35 C141.375,134.266667 141.654167,133.4375 142.2125,132.8625 C142.770833,132.2875 143.525,132 144.475,132 C145.425,132 146.175,132.2875 146.725,132.8625 C147.275,133.4375 147.55,134.266667 147.55,135.35 L147.55,135.35 L147.55,143 L151.05,143 L151.05,134.85 C151.05,133 150.55,131.554167 149.55,130.5125 C148.55,129.470833 147.258333,128.95 145.675,128.95 C143.691667,128.95 142.258333,129.708333 141.375,131.225 L141.375,131.225 L141.375,129.15 L137.85,129.15 L137.85,143 L141.375,143 Z M159.6375,143.2 C161.279167,143.2 162.629167,142.808333 163.6875,142.025 C164.745833,141.241667 165.275,140.225 165.275,138.975 C165.275,138.025 165,137.2625 164.45,136.6875 C163.9,136.1125 163.2375,135.7125 162.4625,135.4875 C161.6875,135.2625 160.908333,135.075 160.125,134.925 C159.341667,134.775 158.675,134.566667 158.125,134.3 C157.575,134.033333 157.3,133.666667 157.3,133.2 C157.3,132.733333 157.483333,132.366667 157.85,132.1 C158.216667,131.833333 158.733333,131.7 159.4,131.7 C160.733333,131.7 161.45,132.283333 161.55,133.45 L161.55,133.45 L165.15,133.45 C165.083333,132.066667 164.541667,130.970833 163.525,130.1625 C162.508333,129.354167 161.158333,128.95 159.475,128.95 C157.791667,128.95 156.441667,129.358333 155.425,130.175 C154.408333,130.991667 153.9,132 153.9,133.2 C153.9,134.1 154.175,134.829167 154.725,135.3875 C155.275,135.945833 155.9375,136.333333 156.7125,136.55 C157.4875,136.766667 158.266667,136.95 159.05,137.1 C159.833333,137.25 160.5,137.4625 161.05,137.7375 C161.6,138.0125 161.875,138.3875 161.875,138.8625 C161.875,139.3375 161.675,139.720833 161.275,140.0125 C160.875,140.304167 160.35,140.45 159.7,140.45 C158.35,140.45 157.608333,139.866667 157.475,138.7 L157.475,138.7 L153.875,138.7 C153.975,140.15 154.55,141.2625 155.6,142.0375 C156.65,142.8125 157.995833,143.2 159.6375,143.2 Z M181.7375,143.175 C183.629167,143.175 185.145833,142.658333 186.2875,141.625 C187.429167,140.591667 188,139.358333 188,137.925 C188,137.058333 187.8375,136.320833 187.5125,135.7125 C187.1875,135.104167 186.758333,134.641667 186.225,134.325 C185.691667,134.008333 185.108333,133.741667 184.475,133.525 C183.841667,133.308333 183.208333,133.125 182.575,132.975 C181.941667,132.825 181.358333,132.654167 180.825,132.4625 C180.291667,132.270833 179.8625,131.995833 179.5375,131.6375 C179.2125,131.279167 179.05,130.783333 179.05,130.15 C179.05,129.516667 179.270833,129.020833 179.7125,128.6625 C180.154167,128.304167 180.725,128.125 181.425,128.125 C182.125,128.125 182.691667,128.320833 183.125,128.7125 C183.558333,129.104167 183.808333,129.633333 183.875,130.3 L183.875,130.3 L187.725,130.3 C187.625,128.616667 187.025,127.3625 185.925,126.5375 C184.825,125.7125 183.370833,125.3 181.5625,125.3 C179.754167,125.3 178.275,125.775 177.125,126.725 C175.975,127.675 175.4,128.941667 175.4,130.525 C175.4,131.691667 175.708333,132.629167 176.325,133.3375 C176.941667,134.045833 177.691667,134.541667 178.575,134.825 C179.458333,135.108333 180.3375,135.35 181.2125,135.55 C182.0875,135.75 182.833333,136.05 183.45,136.45 C184.066667,136.85 184.375,137.395833 184.375,138.0875 C184.375,138.779167 184.141667,139.333333 183.675,139.75 C183.208333,140.166667 182.575,140.375 181.775,140.375 C180.158333,140.375 179.283333,139.608333 179.15,138.075 L179.15,138.075 L175.4,138.075 C175.4,139.691667 175.983333,140.945833 177.15,141.8375 C178.316667,142.729167 179.845833,143.175 181.7375,143.175 Z M197.225,143.2 C198.858333,143.2 200.25,142.783333 201.4,141.95 C202.55,141.116667 203.325,140.041667 203.725,138.725 L203.725,138.725 L199.925,138.725 C199.341667,139.725 198.441667,140.225 197.225,140.225 C196.325,140.225 195.583333,139.95 195,139.4 C194.416667,138.85 194.083333,138.125 194,137.225 L194,137.225 L204.1,137.225 C204.166667,136.808333 204.2,136.358333 204.2,135.875 C204.2,133.775 203.55,132.095833 202.25,130.8375 C200.95,129.579167 199.2875,128.95 197.2625,128.95 C195.2375,128.95 193.5875,129.595833 192.3125,130.8875 C191.0375,132.179167 190.4,133.9 190.4,136.05 C190.4,138.2 191.033333,139.929167 192.3,141.2375 C193.566667,142.545833 195.208333,143.2 197.225,143.2 Z M200.55,134.95 L194,134.95 C194.116667,134.033333 194.470833,133.3 195.0625,132.75 C195.654167,132.2 196.391667,131.925 197.275,131.925 C198.158333,131.925 198.9125,132.2 199.5375,132.75 C200.1625,133.3 200.5,134.033333 200.55,134.95 L200.55,134.95 Z M210.5,143 L210.5,135.35 C210.5,134.266667 210.779167,133.4375 211.3375,132.8625 C211.895833,132.2875 212.65,132 213.6,132 C214.55,132 215.3,132.2875 215.85,132.8625 C216.4,133.4375 216.675,134.266667 216.675,135.35 L216.675,135.35 L216.675,143 L220.175,143 L220.175,135.35 C220.175,134.266667 220.454167,133.4375 221.0125,132.8625 C221.570833,132.2875 222.325,132 223.275,132 C224.225,132 224.975,132.2875 225.525,132.8625 C226.075,133.4375 226.35,134.266667 226.35,135.35 L226.35,135.35 L226.35,143 L229.85,143 L229.85,134.85 C229.85,132.983333 229.345833,131.533333 228.3375,130.5 C227.329167,129.466667 226,128.95 224.35,128.95 C223.3,128.95 222.354167,129.2 221.5125,129.7 C220.670833,130.2 220.008333,130.883333 219.525,131.75 C219.075,130.85 218.4375,130.158333 217.6125,129.675 C216.7875,129.191667 215.85,128.95 214.8,128.95 C212.816667,128.95 211.383333,129.708333 210.5,131.225 L210.5,131.225 L210.5,129.15 L206.975,129.15 L206.975,143 L210.5,143 Z M235.2375,127.775 C235.829167,127.775 236.333333,127.566667 236.75,127.15 C237.166667,126.733333 237.375,126.225 237.375,125.625 C237.375,125.025 237.166667,124.516667 236.75,124.1 C236.333333,123.683333 235.829167,123.475 235.2375,123.475 C234.645833,123.475 234.141667,123.683333 233.725,124.1 C233.308333,124.516667 233.1,125.025 233.1,125.625 C233.1,126.225 233.308333,126.733333 233.725,127.15 C234.141667,127.566667 234.645833,127.775 235.2375,127.775 Z M237,143 L237,129.15 L233.475,129.15 L233.475,143 L237,143 Z M248.6375,143.2 C250.5125,143.2 252.066667,142.533333 253.3,141.2 C254.533333,139.866667 255.15,138.154167 255.15,136.0625 C255.15,133.970833 254.533333,132.2625 253.3,130.9375 C252.066667,129.6125 250.5,128.95 248.6,128.95 C246.7,128.95 245.258333,129.733333 244.275,131.3 L244.275,131.3 L244.275,124.5 L240.75,124.5 L240.75,143 L244.275,143 L244.275,140.675 C245.308333,142.358333 246.7625,143.2 248.6375,143.2 Z M247.925,140.15 C246.941667,140.15 246.0875,139.7875 245.3625,139.0625 C244.6375,138.3375 244.275,137.341667 244.275,136.075 C244.275,134.808333 244.6375,133.8125 245.3625,133.0875 C246.0875,132.3625 246.941667,132 247.925,132 C248.908333,132 249.7625,132.358333 250.4875,133.075 C251.2125,133.791667 251.575,134.783333 251.575,136.05 C251.575,137.316667 251.208333,138.316667 250.475,139.05 C249.758333,139.783333 248.908333,140.15 247.925,140.15 Z M264.075,143.2 C266.108333,143.2 267.8125,142.541667 269.1875,141.225 C270.5625,139.908333 271.25,138.183333 271.25,136.05 C271.25,133.916667 270.566667,132.2 269.2,130.9 C267.833333,129.6 266.1375,128.95 264.1125,128.95 C262.0875,128.95 260.391667,129.6 259.025,130.9 C257.658333,132.2 256.975,133.916667 256.975,136.05 C256.975,138.183333 257.65,139.908333 259,141.225 C260.35,142.541667 262.041667,143.2 264.075,143.2 Z M264.075,140.225 C263.091667,140.225 262.258333,139.866667 261.575,139.15 C260.891667,138.433333 260.55,137.408333 260.55,136.075 C260.55,134.741667 260.891667,133.716667 261.575,133 C262.258333,132.283333 263.095833,131.925 264.0875,131.925 C265.079167,131.925 265.925,132.283333 266.625,133 C267.325,133.716667 267.675,134.7375 267.675,136.0625 C267.675,137.3875 267.320833,138.4125 266.6125,139.1375 C265.904167,139.8625 265.058333,140.225 264.075,140.225 Z M277.575,143 L277.575,124.5 L274.05,124.5 L274.05,143 L277.575,143 Z M286.875,143.2 C288.741667,143.2 290.2,142.358333 291.25,140.675 L291.25,140.675 L291.25,143 L294.75,143 L294.75,124.5 L291.25,124.5 L291.25,131.3 C290.25,129.733333 288.8,128.95 286.9,128.95 C285,128.95 283.433333,129.6125 282.2,130.9375 C280.966667,132.2625 280.35,133.966667 280.35,136.05 C280.35,138.133333 280.966667,139.85 282.2,141.2 C283.45,142.533333 285.008333,143.2 286.875,143.2 Z M287.5875,140.15 C286.6125,140.15 285.758333,139.783333 285.025,139.05 C284.291667,138.316667 283.925,137.316667 283.925,136.05 C283.925,134.783333 284.2875,133.791667 285.0125,133.075 C285.7375,132.358333 286.591667,132 287.575,132 C288.558333,132 289.416667,132.3625 290.15,133.0875 C290.883333,133.8125 291.25,134.808333 291.25,136.075 C291.25,137.341667 290.883333,138.341667 290.15,139.075 C289.416667,139.791667 288.5625,140.15 287.5875,140.15 Z M317.6,142.75 L317.6,139.875 L310.325,139.875 C310.558333,139.658333 310.979167,139.279167 311.5875,138.7375 C312.195833,138.195833 312.65,137.775 312.95,137.475 L312.95,137.475 L313.196094,137.228125 C313.463281,136.959375 313.79375,136.625 314.1875,136.225 C314.7125,135.691667 315.116667,135.220833 315.4,134.8125 C315.683333,134.404167 315.975,133.933333 316.275,133.4 C316.875,132.4 317.175,131.316667 317.175,130.15 C317.175,128.583333 316.658333,127.283333 315.625,126.25 C314.591667,125.216667 313.166667,124.7 311.35,124.7 C309.533333,124.7 308.0625,125.208333 306.9375,126.225 C305.8125,127.241667 305.241667,128.725 305.225,130.675 L305.225,130.675 L308.625,130.675 C308.641667,129.741667 308.875,129.008333 309.325,128.475 C309.775,127.941667 310.4,127.675 311.2,127.675 C312.833333,127.675 313.65,128.558333 313.65,130.325 C313.65,131.225 313.241667,132.258333 312.425,133.425 C312.108333,133.875 311.620833,134.429167 310.9625,135.0875 C310.304167,135.745833 309.75,136.275 309.3,136.675 C308.85,137.075 308.175,137.6625 307.275,138.4375 C306.375,139.2125 305.708333,139.791667 305.275,140.175 L305.275,140.175 L305.275,142.75 L317.6,142.75 Z M326.95,143 C328.916667,143 330.454167,142.420833 331.5625,141.2625 C332.670833,140.104167 333.225,138.558333 333.225,136.625 C333.225,135.158333 332.808333,133.825 331.975,132.625 C331.558333,132.008333 330.954167,131.516667 330.1625,131.15 C329.370833,130.783333 328.533333,130.6 327.65,130.6 C326.766667,130.6 326.016667,130.729167 325.4,130.9875 C324.783333,131.245833 324.3,131.566667 323.95,131.95 L323.95,131.95 L323.95,127.8 L331.925,127.8 L331.925,124.725 L320.75,124.725 L320.75,135.475 L324.1,135.475 C324.466667,134.191667 325.45,133.55 327.05,133.55 C327.9,133.55 328.579167,133.825 329.0875,134.375 C329.595833,134.925 329.85,135.708333 329.85,136.725 C329.85,137.741667 329.6,138.558333 329.1,139.175 C328.6,139.791667 327.895833,140.1 326.9875,140.1 C326.079167,140.1 325.354167,139.908333 324.8125,139.525 C324.270833,139.141667 323.925,138.625 323.775,137.975 L323.775,137.975 L320.325,137.975 C320.525,139.475 321.1875,140.6875 322.3125,141.6125 C323.4375,142.5375 324.983333,143 326.95,143 Z" id="H3-PoppinsSemibold25"></path>
            <path d="M2.656,228 L2.656,222.992 L8.24,222.992 L8.24,228 L9.712,228 L9.712,216.912 L8.24,216.912 L8.24,221.84 L2.656,221.84 L2.656,216.912 L1.2,216.912 L1.2,228 L2.656,228 Z M18.992,228 L18.992,225.408 L20.544,225.408 L20.544,224.16 L18.992,224.16 L18.992,216.48 L17.136,216.48 L11.632,224.384 L11.632,225.408 L17.584,225.408 L17.584,228 L18.992,228 Z M17.632,224.16 L13.328,224.16 L17.632,217.824 L17.632,224.16 Z M33.744,222.768 L33.744,221.52 L27.36,221.52 L27.36,222.768 L33.744,222.768 Z M42.704,228 L42.704,223.424 L44.848,223.424 C46.1386667,223.424 47.1013333,223.117333 47.736,222.504 C48.3706667,221.890667 48.688,221.109333 48.688,220.16 C48.688,219.210667 48.36,218.432 47.704,217.824 C47.048,217.216 46.096,216.912 44.848,216.912 L44.848,216.912 L41.248,216.912 L41.248,228 L42.704,228 Z M44.848,222.272 L42.704,222.272 L42.704,218.08 L44.848,218.08 C46.4266667,218.08 47.216,218.778667 47.216,220.176 C47.216,220.837333 47.0213333,221.352 46.632,221.72 C46.2426667,222.088 45.648,222.272 44.848,222.272 L44.848,222.272 Z M54.24,228.144 C55.5093333,228.144 56.584,227.725333 57.464,226.888 C58.344,226.050667 58.784,224.957333 58.784,223.608 C58.784,222.258667 58.3626667,221.165333 57.52,220.328 C56.6773333,219.490667 55.6213333,219.072 54.352,219.072 C53.0826667,219.072 52.0266667,219.490667 51.184,220.328 C50.3413333,221.165333 49.92,222.261333 49.92,223.616 C49.92,224.970667 50.32,226.064 51.12,226.896 C51.9306667,227.728 52.9706667,228.144 54.24,228.144 Z M54.24,226.944 C53.4186667,226.944 52.7413333,226.650667 52.208,226.064 C51.6746667,225.477333 51.408,224.658667 51.408,223.608 C51.408,222.557333 51.6853333,221.738667 52.24,221.152 C52.7946667,220.565333 53.4853333,220.272 54.312,220.272 C55.1386667,220.272 55.84,220.565333 56.416,221.152 C56.992,221.738667 57.28,222.554667 57.28,223.6 C57.28,224.645333 56.9786667,225.464 56.376,226.056 C55.7733333,226.648 55.0613333,226.944 54.24,226.944 Z M62.064,232.16 L62.064,226.208 C62.3626667,226.784 62.792,227.250667 63.352,227.608 C63.912,227.965333 64.5653333,228.144 65.312,228.144 C66.5066667,228.144 67.504,227.714667 68.304,226.856 C69.104,225.997333 69.504,224.898667 69.504,223.56 C69.504,222.221333 69.1066667,221.138667 68.312,220.312 C67.5173333,219.485333 66.5173333,219.072 65.312,219.072 C64.5653333,219.072 63.912,219.248 63.352,219.6 C62.792,219.952 62.3626667,220.410667 62.064,220.976 L62.064,220.976 L62.064,219.216 L60.608,219.216 L60.608,232.16 L62.064,232.16 Z M65.024,226.896 C64.2133333,226.896 63.5173333,226.594667 62.936,225.992 C62.3546667,225.389333 62.064,224.594667 62.064,223.608 C62.064,222.621333 62.3546667,221.829333 62.936,221.232 C63.5173333,220.634667 64.216,220.336 65.032,220.336 C65.848,220.336 66.5466667,220.624 67.128,221.2 C67.7093333,221.776 68,222.562667 68,223.56 C68,224.557333 67.7093333,225.362667 67.128,225.976 C66.5466667,226.589333 65.8453333,226.896 65.024,226.896 Z M72.784,232.16 L72.784,226.208 C73.0826667,226.784 73.512,227.250667 74.072,227.608 C74.632,227.965333 75.2853333,228.144 76.032,228.144 C77.2266667,228.144 78.224,227.714667 79.024,226.856 C79.824,225.997333 80.224,224.898667 80.224,223.56 C80.224,222.221333 79.8266667,221.138667 79.032,220.312 C78.2373333,219.485333 77.2373333,219.072 76.032,219.072 C75.2853333,219.072 74.632,219.248 74.072,219.6 C73.512,219.952 73.0826667,220.410667 72.784,220.976 L72.784,220.976 L72.784,219.216 L71.328,219.216 L71.328,232.16 L72.784,232.16 Z M75.744,226.896 C74.9333333,226.896 74.2373333,226.594667 73.656,225.992 C73.0746667,225.389333 72.784,224.594667 72.784,223.608 C72.784,222.621333 73.0746667,221.829333 73.656,221.232 C74.2373333,220.634667 74.936,220.336 75.752,220.336 C76.568,220.336 77.2666667,220.624 77.848,221.2 C78.4293333,221.776 78.72,222.562667 78.72,223.56 C78.72,224.557333 78.4293333,225.362667 77.848,225.976 C77.2666667,226.589333 76.5653333,226.896 75.744,226.896 Z M82.784,217.808 C83.0613333,217.808 83.296,217.712 83.488,217.52 C83.68,217.328 83.776,217.093333 83.776,216.816 C83.776,216.538667 83.68,216.304 83.488,216.112 C83.296,215.92 83.064,215.824 82.792,215.824 C82.52,215.824 82.288,215.92 82.096,216.112 C81.904,216.304 81.808,216.538667 81.808,216.816 C81.808,217.093333 81.9013333,217.328 82.088,217.52 C82.2746667,217.712 82.5066667,217.808 82.784,217.808 Z M83.504,228 L83.504,219.216 L82.048,219.216 L82.048,228 L83.504,228 Z M87.36,228 L87.36,223.04 C87.36,222.154667 87.576,221.482667 88.008,221.024 C88.44,220.565333 89.032,220.336 89.784,220.336 C90.536,220.336 91.1253333,220.565333 91.552,221.024 C91.9786667,221.482667 92.192,222.154667 92.192,223.04 L92.192,223.04 L92.192,228 L93.632,228 L93.632,222.8 C93.632,221.605333 93.3066667,220.685333 92.656,220.04 C92.0053333,219.394667 91.1946667,219.072 90.224,219.072 C88.912,219.072 87.9573333,219.594667 87.36,220.64 L87.36,220.64 L87.36,219.216 L85.904,219.216 L85.904,228 L87.36,228 Z M98.96,228.144 C99.9413333,228.144 100.738667,227.912 101.352,227.448 C101.965333,226.984 102.272,226.413333 102.272,225.736 C102.272,225.058667 102.093333,224.536 101.736,224.168 C101.378667,223.8 100.946667,223.549333 100.44,223.416 C99.9333333,223.282667 99.4266667,223.165333 98.92,223.064 C98.4133333,222.962667 97.9813333,222.8 97.624,222.576 C97.2666667,222.352 97.088,222.034667 97.088,221.624 C97.088,221.213333 97.2453333,220.877333 97.56,220.616 C97.8746667,220.354667 98.3066667,220.224 98.856,220.224 C99.4053333,220.224 99.8346667,220.373333 100.144,220.672 C100.453333,220.970667 100.618667,221.365333 100.64,221.856 L100.64,221.856 L102.144,221.856 C102.090667,220.992 101.786667,220.312 101.232,219.816 C100.677333,219.32 99.912,219.072 98.936,219.072 C97.96,219.072 97.1653333,219.325333 96.552,219.832 C95.9386667,220.338667 95.632,220.96 95.632,221.696 C95.632,222.197333 95.76,222.613333 96.016,222.944 C96.272,223.274667 96.592,223.506667 96.976,223.64 C97.36,223.773333 97.7786667,223.898667 98.232,224.016 C98.6853333,224.133333 99.104,224.234667 99.488,224.32 C99.872,224.405333 100.192,224.56 100.448,224.784 C100.704,225.008 100.832,225.309333 100.832,225.688 C100.832,226.066667 100.669333,226.378667 100.344,226.624 C100.018667,226.869333 99.5706667,226.992 99,226.992 C98.4293333,226.992 97.9813333,226.845333 97.656,226.552 C97.3306667,226.258667 97.1573333,225.866667 97.136,225.376 L97.136,225.376 L95.632,225.376 C95.6853333,226.24 96.008,226.917333 96.6,227.408 C97.192,227.898667 97.9786667,228.144 98.96,228.144 Z M110.624,228 L110.624,223.424 L112.048,223.424 L114.96,228 L116.784,228 L113.728,223.36 C114.688,223.210667 115.408,222.842667 115.888,222.256 C116.368,221.669333 116.608,220.936 116.608,220.056 C116.608,219.176 116.28,218.432 115.624,217.824 C114.968,217.216 114.016,216.912 112.768,216.912 L112.768,216.912 L109.168,216.912 L109.168,228 L110.624,228 Z M112.768,222.272 L110.624,222.272 L110.624,218.08 L112.768,218.08 C114.346667,218.08 115.136,218.778667 115.136,220.176 C115.136,220.837333 114.941333,221.352 114.552,221.72 C114.162667,222.088 113.568,222.272 112.768,222.272 L112.768,222.272 Z M122.72,228.144 C123.744,228.144 124.594667,227.893333 125.272,227.392 C125.949333,226.890667 126.426667,226.256 126.704,225.488 L126.704,225.488 L125.136,225.488 C124.944,225.925333 124.642667,226.277333 124.232,226.544 C123.821333,226.810667 123.317333,226.944 122.72,226.944 C121.930667,226.944 121.282667,226.690667 120.776,226.184 C120.269333,225.677333 119.994667,224.986667 119.952,224.112 L119.952,224.112 L126.944,224.112 C126.986667,223.845333 127.008,223.557333 127.008,223.248 C127.008,222.032 126.621333,221.032 125.848,220.248 C125.074667,219.464 124.050667,219.072 122.776,219.072 C121.501333,219.072 120.464,219.485333 119.664,220.312 C118.864,221.138667 118.464,222.234667 118.464,223.6 C118.464,224.965333 118.858667,226.064 119.648,226.896 C120.437333,227.728 121.461333,228.144 122.72,228.144 Z M125.488,223.056 L119.968,223.056 C120.021333,222.192 120.304,221.512 120.816,221.016 C121.328,220.52 121.970667,220.272 122.744,220.272 C123.517333,220.272 124.165333,220.525333 124.688,221.032 C125.210667,221.538667 125.477333,222.213333 125.488,223.056 L125.488,223.056 Z M133.008,232.32 C134.202667,232.32 135.189333,231.938667 135.968,231.176 C136.746667,230.413333 137.136,229.429333 137.136,228.224 L137.136,228.224 L137.136,219.216 L135.664,219.216 L135.664,220.976 C135.376,220.410667 134.952,219.952 134.392,219.6 C133.832,219.248 133.178667,219.072 132.432,219.072 C131.226667,219.072 130.226667,219.485333 129.432,220.312 C128.637333,221.138667 128.24,222.221333 128.24,223.56 C128.24,224.898667 128.64,225.997333 129.44,226.856 C130.24,227.714667 131.237333,228.144 132.432,228.144 C133.178667,228.144 133.832,227.965333 134.392,227.608 C134.952,227.250667 135.376,226.784 135.664,226.208 L135.664,226.208 L135.664,228.224 C135.664,229.12 135.410667,229.816 134.904,230.312 C134.397333,230.808 133.765333,231.056 133.008,231.056 C132.250667,231.056 131.616,230.890667 131.104,230.56 C130.592,230.229333 130.266667,229.813333 130.128,229.312 L130.128,229.312 L128.704,229.312 C128.810667,230.208 129.256,230.933333 130.04,231.488 C130.824,232.042667 131.813333,232.32 133.008,232.32 Z M132.704,226.896 C131.893333,226.896 131.194667,226.586667 130.608,225.968 C130.021333,225.349333 129.728,224.544 129.728,223.552 C129.728,222.56 130.018667,221.776 130.6,221.2 C131.181333,220.624 131.88,220.336 132.696,220.336 C133.512,220.336 134.210667,220.634667 134.792,221.232 C135.373333,221.829333 135.664,222.624 135.664,223.616 C135.664,224.608 135.370667,225.402667 134.784,226 C134.208,226.597333 133.514667,226.896 132.704,226.896 Z M142.864,228.144 C144.186667,228.144 145.141333,227.626667 145.728,226.592 L145.728,226.592 L145.728,228 L147.184,228 L147.184,219.216 L145.728,219.216 L145.728,224.192 C145.728,225.066667 145.512,225.736 145.08,226.2 C144.648,226.664 144.058667,226.896 143.312,226.896 C142.565333,226.896 141.976,226.664 141.544,226.2 C141.112,225.736 140.896,225.066667 140.896,224.192 L140.896,224.192 L140.896,219.216 L139.456,219.216 L139.456,224.432 C139.456,225.616 139.781333,226.530667 140.432,227.176 C141.082667,227.821333 141.893333,228.144 142.864,228.144 Z M151.04,228 L151.04,216.16 L149.584,216.16 L149.584,228 L151.04,228 Z M157.056,228.144 C157.802667,228.144 158.456,227.965333 159.016,227.608 C159.576,227.250667 160,226.784 160.288,226.208 L160.288,226.208 L160.288,228 L161.76,228 L161.76,219.216 L160.288,219.216 L160.288,220.976 C160,220.410667 159.576,219.952 159.016,219.6 C158.456,219.248 157.802667,219.072 157.056,219.072 C155.850667,219.072 154.850667,219.485333 154.056,220.312 C153.261333,221.138667 152.864,222.221333 152.864,223.56 C152.864,224.898667 153.264,225.997333 154.064,226.856 C154.864,227.714667 155.861333,228.144 157.056,228.144 Z M157.328,226.896 C156.517333,226.896 155.818667,226.586667 155.232,225.968 C154.645333,225.349333 154.352,224.544 154.352,223.552 C154.352,222.56 154.642667,221.776 155.224,221.2 C155.805333,220.624 156.504,220.336 157.32,220.336 C158.136,220.336 158.834667,220.634667 159.416,221.232 C159.997333,221.829333 160.288,222.624 160.288,223.616 C160.288,224.608 159.994667,225.402667 159.408,226 C158.832,226.597333 158.138667,226.896 157.328,226.896 Z M165.616,228 L165.616,223.2 C165.616,222.24 165.810667,221.565333 166.2,221.176 C166.589333,220.786667 167.157333,220.592 167.904,220.592 L167.904,220.592 L168.288,220.592 L168.288,219.072 C167.029333,219.072 166.138667,219.616 165.616,220.704 L165.616,220.704 L165.616,219.216 L164.16,219.216 L164.16,228 L165.616,228 Z M177.216,228 L177.216,216.64 L174.48,216.64 L174.48,217.936 L175.792,217.936 L175.792,228 L177.216,228 Z M184.256,228 C185.472,228 186.405333,227.637333 187.056,226.912 C187.706667,226.186667 188.032,225.24 188.032,224.072 C188.032,222.904 187.701333,221.976 187.04,221.288 C186.378667,220.6 185.514667,220.256 184.448,220.256 C183.754667,220.256 183.125333,220.402667 182.56,220.696 C181.994667,220.989333 181.568,221.397333 181.28,221.92 C181.312,220.234667 181.557333,219.04 182.016,218.336 C182.474667,217.632 183.184,217.28 184.144,217.28 C184.773333,217.28 185.258667,217.413333 185.6,217.68 C185.941333,217.946667 186.181333,218.357333 186.32,218.912 L186.32,218.912 L187.632,218.912 C187.536,218.101333 187.186667,217.421333 186.584,216.872 C185.981333,216.322667 185.168,216.048 184.144,216.048 C182.746667,216.048 181.717333,216.554667 181.056,217.568 C180.394667,218.581333 180.064,219.930667 180.064,221.616 C180.064,223.301333 180.218667,224.608 180.528,225.536 C181.072,227.178667 182.314667,228 184.256,228 Z M184.096,226.768 C183.274667,226.768 182.634667,226.522667 182.176,226.032 C181.717333,225.541333 181.488,224.88 181.488,224.048 C181.488,223.216 181.752,222.584 182.28,222.152 C182.808,221.72 183.458667,221.504 184.232,221.504 C185.005333,221.504 185.602667,221.741333 186.024,222.216 C186.445333,222.690667 186.656,223.338667 186.656,224.16 C186.656,224.970667 186.434667,225.608 185.992,226.072 C185.549333,226.536 184.917333,226.768 184.096,226.768 Z" id="H4-PoppinsRegular16"></path>
            <path d="M7.632,267 L7.632,265.434 L3.402,265.434 L3.402,254.49 L1.35,254.49 L1.35,267 L7.632,267 Z M10.377,255.768 C10.743,255.768 11.052,255.642 11.304,255.39 C11.556,255.138 11.682,254.826 11.682,254.454 C11.682,254.082 11.556,253.77 11.304,253.518 C11.052,253.266 10.743,253.14 10.377,253.14 C10.011,253.14 9.702,253.266 9.45,253.518 C9.198,253.77 9.072,254.082 9.072,254.454 C9.072,254.826 9.198,255.138 9.45,255.39 C9.702,255.642 10.011,255.768 10.377,255.768 Z M11.394,267 L11.394,257.082 L9.342,257.082 L9.342,267 L11.394,267 Z M16.146,267 L16.146,261.456 C16.146,260.568 16.371,259.887 16.821,259.413 C17.271,258.939 17.88,258.702 18.648,258.702 C19.416,258.702 20.022,258.939 20.466,259.413 C20.91,259.887 21.132,260.568 21.132,261.456 L21.132,261.456 L21.132,267 L23.166,267 L23.166,261.15 C23.166,259.818 22.803,258.78 22.077,258.036 C21.351,257.292 20.43,256.92 19.314,256.92 C17.862,256.92 16.806,257.496 16.146,258.648 L16.146,258.648 L16.146,257.082 L14.094,257.082 L14.094,267 L16.146,267 Z M27.828,267 L27.828,262.734 L31.5,267 L34.272,267 L29.7,262.05 L34.272,257.082 L31.428,257.082 L27.828,261.42 L27.828,253.68 L25.776,253.68 L25.776,267 L27.828,267 Z M48.762,261.348 L48.762,259.62 L41.364,259.62 L41.364,261.348 L48.762,261.348 Z M59.13,267 L59.13,261.924 L61.398,261.924 C62.898,261.924 64.011,261.561 64.737,260.835 C65.463,260.109 65.826,259.221 65.826,258.171 C65.826,257.121 65.442,256.245 64.674,255.543 C63.906,254.841 62.814,254.49 61.398,254.49 L61.398,254.49 L57.078,254.49 L57.078,267 L59.13,267 Z M61.398,260.322 L59.13,260.322 L59.13,256.092 L61.398,256.092 C62.178,256.092 62.76,256.278 63.144,256.65 C63.528,257.022 63.72,257.541 63.72,258.207 C63.72,258.873 63.528,259.392 63.144,259.764 C62.76,260.136 62.178,260.322 61.398,260.322 L61.398,260.322 Z M72.09,267.162 C73.542,267.162 74.763,266.688 75.753,265.74 C76.743,264.792 77.238,263.556 77.238,262.032 C77.238,260.508 76.755,259.275 75.789,258.333 C74.823,257.391 73.62,256.92 72.18,256.92 C70.74,256.92 69.537,257.391 68.571,258.333 C67.605,259.275 67.122,260.511 67.122,262.041 C67.122,263.571 67.59,264.807 68.526,265.749 C69.462,266.691 70.65,267.162 72.09,267.162 Z M72.099,265.434 C71.277,265.434 70.59,265.137 70.038,264.543 C69.486,263.949 69.21,263.115 69.21,262.041 C69.21,260.967 69.492,260.133 70.056,259.539 C70.62,258.945 71.316,258.648 72.144,258.648 C72.972,258.648 73.677,258.945 74.259,259.539 C74.841,260.133 75.132,260.964 75.132,262.032 C75.132,263.1 74.832,263.934 74.232,264.534 C73.632,265.134 72.921,265.434 72.099,265.434 Z M81.324,271.716 L81.324,265.146 C81.672,265.758 82.14,266.247 82.728,266.613 C83.316,266.979 84,267.162 84.78,267.162 C86.1,267.162 87.207,266.679 88.101,265.713 C88.995,264.747 89.442,263.511 89.442,262.005 C89.442,260.499 88.998,259.275 88.11,258.333 C87.222,257.391 86.112,256.92 84.78,256.92 C84,256.92 83.313,257.097 82.719,257.451 C82.125,257.805 81.66,258.27 81.324,258.846 L81.324,258.846 L81.324,257.082 L79.272,257.082 L79.272,271.716 L81.324,271.716 Z M84.33,265.38 C83.514,265.38 82.809,265.077 82.215,264.471 C81.621,263.865 81.324,263.052 81.324,262.032 C81.324,261.012 81.621,260.202 82.215,259.602 C82.809,259.002 83.517,258.702 84.339,258.702 C85.161,258.702 85.869,258.996 86.463,259.584 C87.057,260.172 87.354,260.976 87.354,261.996 C87.354,263.016 87.054,263.838 86.454,264.462 C85.854,265.074 85.146,265.38 84.33,265.38 Z M93.528,271.716 L93.528,265.146 C93.876,265.758 94.344,266.247 94.932,266.613 C95.52,266.979 96.204,267.162 96.984,267.162 C98.304,267.162 99.411,266.679 100.305,265.713 C101.199,264.747 101.646,263.511 101.646,262.005 C101.646,260.499 101.202,259.275 100.314,258.333 C99.426,257.391 98.316,256.92 96.984,256.92 C96.204,256.92 95.517,257.097 94.923,257.451 C94.329,257.805 93.864,258.27 93.528,258.846 L93.528,258.846 L93.528,257.082 L91.476,257.082 L91.476,271.716 L93.528,271.716 Z M96.534,265.38 C95.718,265.38 95.013,265.077 94.419,264.471 C93.825,263.865 93.528,263.052 93.528,262.032 C93.528,261.012 93.825,260.202 94.419,259.602 C95.013,259.002 95.721,258.702 96.543,258.702 C97.365,258.702 98.073,258.996 98.667,259.584 C99.261,260.172 99.558,260.976 99.558,261.996 C99.558,263.016 99.258,263.838 98.658,264.462 C98.058,265.074 97.35,265.38 96.534,265.38 Z M104.715,255.768 C105.081,255.768 105.39,255.642 105.642,255.39 C105.894,255.138 106.02,254.826 106.02,254.454 C106.02,254.082 105.894,253.77 105.642,253.518 C105.39,253.266 105.081,253.14 104.715,253.14 C104.349,253.14 104.04,253.266 103.788,253.518 C103.536,253.77 103.41,254.082 103.41,254.454 C103.41,254.826 103.536,255.138 103.788,255.39 C104.04,255.642 104.349,255.768 104.715,255.768 Z M105.732,267 L105.732,257.082 L103.68,257.082 L103.68,267 L105.732,267 Z M110.484,267 L110.484,261.456 C110.484,260.568 110.709,259.887 111.159,259.413 C111.609,258.939 112.218,258.702 112.986,258.702 C113.754,258.702 114.36,258.939 114.804,259.413 C115.248,259.887 115.47,260.568 115.47,261.456 L115.47,261.456 L115.47,267 L117.504,267 L117.504,261.15 C117.504,259.818 117.141,258.78 116.415,258.036 C115.689,257.292 114.768,256.92 113.652,256.92 C112.2,256.92 111.144,257.496 110.484,258.648 L110.484,258.648 L110.484,257.082 L108.432,257.082 L108.432,267 L110.484,267 Z M123.588,267.162 C124.728,267.162 125.661,266.892 126.387,266.352 C127.113,265.812 127.476,265.11 127.476,264.246 C127.476,263.55 127.278,262.995 126.882,262.581 C126.486,262.167 126.003,261.882 125.433,261.726 C124.863,261.57 124.293,261.438 123.723,261.33 C123.153,261.222 122.67,261.054 122.274,260.826 C121.878,260.598 121.68,260.283 121.68,259.881 C121.68,259.479 121.836,259.155 122.148,258.909 C122.46,258.663 122.892,258.54 123.444,258.54 C123.996,258.54 124.425,258.678 124.731,258.954 C125.037,259.23 125.208,259.614 125.244,260.106 L125.244,260.106 L127.35,260.106 C127.302,259.122 126.939,258.345 126.261,257.775 C125.583,257.205 124.668,256.92 123.516,256.92 C122.364,256.92 121.434,257.211 120.726,257.793 C120.018,258.375 119.664,259.086 119.664,259.926 C119.664,260.586 119.862,261.114 120.258,261.51 C120.654,261.906 121.137,262.179 121.707,262.329 C122.277,262.479 122.847,262.611 123.417,262.725 C123.987,262.839 124.47,263.01 124.866,263.238 C125.262,263.466 125.46,263.784 125.46,264.192 C125.46,264.6 125.295,264.927 124.965,265.173 C124.635,265.419 124.191,265.542 123.633,265.542 C123.075,265.542 122.634,265.404 122.31,265.128 C121.986,264.852 121.806,264.468 121.77,263.976 L121.77,263.976 L119.646,263.976 C119.718,264.996 120.108,265.782 120.816,266.334 C121.524,266.886 122.448,267.162 123.588,267.162 Z M137.178,267 L137.178,258.432 L141.012,267 L142.434,267 L146.25,258.432 L146.25,267 L148.302,267 L148.302,254.49 L146.106,254.49 L141.732,264.3 L137.34,254.49 L135.126,254.49 L135.126,267 L137.178,267 Z M155.178,267.162 C156.342,267.162 157.32,266.871 158.112,266.289 C158.904,265.707 159.45,264.96 159.75,264.048 L159.75,264.048 L157.536,264.048 C157.08,264.972 156.294,265.434 155.178,265.434 C154.41,265.434 153.771,265.191 153.261,264.705 C152.751,264.219 152.472,263.562 152.424,262.734 L152.424,262.734 L160.02,262.734 C160.068,262.434 160.092,262.11 160.092,261.762 C160.092,260.322 159.642,259.155 158.742,258.261 C157.842,257.367 156.669,256.92 155.223,256.92 C153.777,256.92 152.598,257.385 151.686,258.315 C150.774,259.245 150.318,260.484 150.318,262.032 C150.318,263.58 150.768,264.822 151.668,265.758 C152.568,266.694 153.738,267.162 155.178,267.162 Z M157.95,261.33 L152.442,261.33 C152.514,260.514 152.805,259.863 153.315,259.377 C153.825,258.891 154.458,258.648 155.214,258.648 C155.97,258.648 156.612,258.891 157.14,259.377 C157.668,259.863 157.938,260.514 157.95,261.33 L157.95,261.33 Z M166.104,267.162 C166.884,267.162 167.568,266.979 168.156,266.613 C168.744,266.247 169.206,265.758 169.542,265.146 L169.542,265.146 L169.542,267 L171.612,267 L171.612,253.68 L169.542,253.68 L169.542,258.846 C169.218,258.27 168.759,257.805 168.165,257.451 C167.571,257.097 166.884,256.92 166.104,256.92 C164.772,256.92 163.659,257.391 162.765,258.333 C161.871,259.275 161.424,260.499 161.424,262.005 C161.424,263.511 161.874,264.747 162.774,265.713 C163.674,266.679 164.784,267.162 166.104,267.162 Z M166.536,265.38 C165.72,265.38 165.015,265.071 164.421,264.453 C163.827,263.835 163.53,263.016 163.53,261.996 C163.53,260.976 163.827,260.172 164.421,259.584 C165.015,258.996 165.72,258.702 166.536,258.702 C167.352,258.702 168.057,259.002 168.651,259.602 C169.245,260.202 169.542,261.012 169.542,262.032 C169.542,263.052 169.242,263.868 168.642,264.48 C168.054,265.08 167.352,265.38 166.536,265.38 Z M175.347,255.768 C175.713,255.768 176.022,255.642 176.274,255.39 C176.526,255.138 176.652,254.826 176.652,254.454 C176.652,254.082 176.526,253.77 176.274,253.518 C176.022,253.266 175.713,253.14 175.347,253.14 C174.981,253.14 174.672,253.266 174.42,253.518 C174.168,253.77 174.042,254.082 174.042,254.454 C174.042,254.826 174.168,255.138 174.42,255.39 C174.672,255.642 174.981,255.768 175.347,255.768 Z M176.364,267 L176.364,257.082 L174.312,257.082 L174.312,267 L176.364,267 Z M182.826,267.144 C184.29,267.144 185.346,266.574 185.994,265.434 L185.994,265.434 L185.994,267 L188.046,267 L188.046,257.082 L185.994,257.082 L185.994,262.626 C185.994,263.514 185.769,264.195 185.319,264.669 C184.869,265.143 184.26,265.38 183.492,265.38 C182.724,265.38 182.118,265.143 181.674,264.669 C181.23,264.195 181.008,263.514 181.008,262.626 L181.008,262.626 L181.008,257.082 L178.974,257.082 L178.974,262.932 C178.974,264.264 179.337,265.299 180.063,266.037 C180.789,266.775 181.71,267.144 182.826,267.144 Z M192.798,267 L192.798,261.456 C192.798,260.568 193.023,259.887 193.473,259.413 C193.923,258.939 194.532,258.702 195.3,258.702 C196.068,258.702 196.674,258.939 197.118,259.413 C197.562,259.887 197.784,260.568 197.784,261.456 L197.784,261.456 L197.784,267 L199.818,267 L199.818,261.456 C199.818,260.568 200.04,259.887 200.484,259.413 C200.928,258.939 201.534,258.702 202.302,258.702 C203.07,258.702 203.676,258.939 204.12,259.413 C204.564,259.887 204.786,260.568 204.786,261.456 L204.786,261.456 L204.786,267 L206.838,267 L206.838,261.15 C206.838,259.806 206.472,258.765 205.74,258.027 C205.008,257.289 204.072,256.92 202.932,256.92 C202.152,256.92 201.453,257.106 200.835,257.478 C200.217,257.85 199.734,258.366 199.386,259.026 C199.074,258.342 198.618,257.82 198.018,257.46 C197.418,257.1 196.734,256.92 195.966,256.92 C194.514,256.92 193.458,257.496 192.798,258.648 L192.798,258.648 L192.798,257.082 L190.746,257.082 L190.746,267 L192.798,267 Z M218.052,267 L218.052,254.22 L214.308,254.22 L214.308,256.092 L215.982,256.092 L215.982,267 L218.052,267 Z M225.549,267.324 C226.923,267.324 228.042,266.958 228.906,266.226 C229.77,265.494 230.202,264.516 230.202,263.292 C230.202,262.488 230.004,261.798 229.608,261.222 C229.212,260.646 228.672,260.226 227.988,259.962 C228.552,259.686 229.005,259.293 229.347,258.783 C229.689,258.273 229.86,257.682 229.86,257.01 C229.86,256.002 229.485,255.159 228.735,254.481 C227.985,253.803 226.92,253.464 225.54,253.464 C224.16,253.464 223.095,253.803 222.345,254.481 C221.595,255.159 221.22,256.002 221.22,257.01 C221.22,258.354 221.844,259.338 223.092,259.962 C222.42,260.214 221.886,260.628 221.49,261.204 C221.094,261.78 220.896,262.476 220.896,263.292 C220.896,264.516 221.328,265.494 222.192,266.226 C223.056,266.958 224.175,267.324 225.549,267.324 Z M225.54,259.314 C224.856,259.314 224.295,259.125 223.857,258.747 C223.419,258.369 223.2,257.859 223.2,257.217 C223.2,256.575 223.41,256.074 223.83,255.714 C224.25,255.354 224.823,255.174 225.549,255.174 C226.275,255.174 226.848,255.354 227.268,255.714 C227.688,256.074 227.898,256.572 227.898,257.208 C227.898,257.844 227.676,258.354 227.232,258.738 C226.788,259.122 226.224,259.314 225.54,259.314 Z M225.531,265.614 C224.709,265.614 224.058,265.395 223.578,264.957 C223.098,264.519 222.858,263.925 222.858,263.175 C222.858,262.425 223.107,261.852 223.605,261.456 C224.103,261.06 224.751,260.862 225.549,260.862 C226.347,260.862 226.986,261.066 227.466,261.474 C227.946,261.882 228.186,262.452 228.186,263.184 C228.186,263.916 227.949,264.504 227.475,264.948 C227.001,265.392 226.353,265.614 225.531,265.614 Z" id="Link-PoppinsMedium18"></path>
            <path d="M6.03,187 C7.266,187 8.253,186.688 8.991,186.064 C9.729,185.44 10.098,184.654 10.098,183.706 C10.098,182.938 9.852,182.26 9.36,181.672 C8.868,181.084 8.22,180.724 7.416,180.592 C9.012,180.148 9.81,179.23 9.81,177.838 C9.81,176.866 9.462,176.071 8.766,175.453 C8.07,174.835 7.086,174.526 5.814,174.526 L5.814,174.526 L1.35,174.526 L1.35,187 L6.03,187 Z M5.742,179.944 L2.988,179.944 L2.988,175.84 L5.742,175.84 C6.498,175.84 7.089,176.026 7.515,176.398 C7.941,176.77 8.154,177.271 8.154,177.901 C8.154,178.531 7.941,179.029 7.515,179.395 C7.089,179.761 6.498,179.944 5.742,179.944 L5.742,179.944 Z M5.94,185.704 L2.988,185.704 L2.988,181.258 L5.814,181.258 C6.618,181.258 7.263,181.456 7.749,181.852 C8.235,182.248 8.478,182.791 8.478,183.481 C8.478,184.171 8.253,184.714 7.803,185.11 C7.353,185.506 6.732,185.704 5.94,185.704 L5.94,185.704 Z M16.578,187.162 C18.006,187.162 19.215,186.691 20.205,185.749 C21.195,184.807 21.69,183.577 21.69,182.059 C21.69,180.541 21.216,179.311 20.268,178.369 C19.32,177.427 18.132,176.956 16.704,176.956 C15.276,176.956 14.088,177.427 13.14,178.369 C12.192,179.311 11.718,180.544 11.718,182.068 C11.718,183.592 12.168,184.822 13.068,185.758 C13.98,186.694 15.15,187.162 16.578,187.162 Z M16.578,185.812 C15.654,185.812 14.892,185.482 14.292,184.822 C13.692,184.162 13.392,183.241 13.392,182.059 C13.392,180.877 13.704,179.956 14.328,179.296 C14.952,178.636 15.729,178.306 16.659,178.306 C17.589,178.306 18.378,178.636 19.026,179.296 C19.674,179.956 19.998,180.874 19.998,182.05 C19.998,183.226 19.659,184.147 18.981,184.813 C18.303,185.479 17.502,185.812 16.578,185.812 Z M27.81,187.162 C28.65,187.162 29.385,186.961 30.015,186.559 C30.645,186.157 31.122,185.632 31.446,184.984 L31.446,184.984 L31.446,187 L33.102,187 L33.102,173.68 L31.446,173.68 L31.446,179.098 C31.122,178.462 30.645,177.946 30.015,177.55 C29.385,177.154 28.65,176.956 27.81,176.956 C26.454,176.956 25.329,177.421 24.435,178.351 C23.541,179.281 23.094,180.499 23.094,182.005 C23.094,183.511 23.544,184.747 24.444,185.713 C25.344,186.679 26.466,187.162 27.81,187.162 Z M28.116,185.758 C27.204,185.758 26.418,185.41 25.758,184.714 C25.098,184.018 24.768,183.112 24.768,181.996 C24.768,180.88 25.095,179.998 25.749,179.35 C26.403,178.702 27.189,178.378 28.107,178.378 C29.025,178.378 29.811,178.714 30.465,179.386 C31.119,180.058 31.446,180.952 31.446,182.068 C31.446,183.184 31.116,184.078 30.456,184.75 C29.808,185.422 29.028,185.758 28.116,185.758 Z M38.304,191.626 L44.262,177.118 L42.57,177.118 L39.492,185.11 L36.468,177.118 L34.668,177.118 L38.574,186.838 L36.612,191.626 L38.304,191.626 Z M58.752,181.114 L58.752,179.71 L51.57,179.71 L51.57,181.114 L58.752,181.114 Z M68.832,187 L68.832,181.852 L71.244,181.852 C72.696,181.852 73.779,181.507 74.493,180.817 C75.207,180.127 75.564,179.248 75.564,178.18 C75.564,177.112 75.195,176.236 74.457,175.552 C73.719,174.868 72.648,174.526 71.244,174.526 L71.244,174.526 L67.194,174.526 L67.194,187 L68.832,187 Z M71.244,180.556 L68.832,180.556 L68.832,175.84 L71.244,175.84 C73.02,175.84 73.908,176.626 73.908,178.198 C73.908,178.942 73.689,179.521 73.251,179.935 C72.813,180.349 72.144,180.556 71.244,180.556 L71.244,180.556 Z M81.81,187.162 C83.238,187.162 84.447,186.691 85.437,185.749 C86.427,184.807 86.922,183.577 86.922,182.059 C86.922,180.541 86.448,179.311 85.5,178.369 C84.552,177.427 83.364,176.956 81.936,176.956 C80.508,176.956 79.32,177.427 78.372,178.369 C77.424,179.311 76.95,180.544 76.95,182.068 C76.95,183.592 77.4,184.822 78.3,185.758 C79.212,186.694 80.382,187.162 81.81,187.162 Z M81.81,185.812 C80.886,185.812 80.124,185.482 79.524,184.822 C78.924,184.162 78.624,183.241 78.624,182.059 C78.624,180.877 78.936,179.956 79.56,179.296 C80.184,178.636 80.961,178.306 81.891,178.306 C82.821,178.306 83.61,178.636 84.258,179.296 C84.906,179.956 85.23,180.874 85.23,182.05 C85.23,183.226 84.891,184.147 84.213,184.813 C83.535,185.479 82.734,185.812 81.81,185.812 Z M90.612,191.68 L90.612,184.984 C90.948,185.632 91.431,186.157 92.061,186.559 C92.691,186.961 93.426,187.162 94.266,187.162 C95.61,187.162 96.732,186.679 97.632,185.713 C98.532,184.747 98.982,183.511 98.982,182.005 C98.982,180.499 98.535,179.281 97.641,178.351 C96.747,177.421 95.622,176.956 94.266,176.956 C93.426,176.956 92.691,177.154 92.061,177.55 C91.431,177.946 90.948,178.462 90.612,179.098 L90.612,179.098 L90.612,177.118 L88.974,177.118 L88.974,191.68 L90.612,191.68 Z M93.942,185.758 C93.03,185.758 92.247,185.419 91.593,184.741 C90.939,184.063 90.612,183.169 90.612,182.059 C90.612,180.949 90.939,180.058 91.593,179.386 C92.247,178.714 93.033,178.378 93.951,178.378 C94.869,178.378 95.655,178.702 96.309,179.35 C96.963,179.998 97.29,180.883 97.29,182.005 C97.29,183.127 96.963,184.033 96.309,184.723 C95.655,185.413 94.866,185.758 93.942,185.758 Z M102.672,191.68 L102.672,184.984 C103.008,185.632 103.491,186.157 104.121,186.559 C104.751,186.961 105.486,187.162 106.326,187.162 C107.67,187.162 108.792,186.679 109.692,185.713 C110.592,184.747 111.042,183.511 111.042,182.005 C111.042,180.499 110.595,179.281 109.701,178.351 C108.807,177.421 107.682,176.956 106.326,176.956 C105.486,176.956 104.751,177.154 104.121,177.55 C103.491,177.946 103.008,178.462 102.672,179.098 L102.672,179.098 L102.672,177.118 L101.034,177.118 L101.034,191.68 L102.672,191.68 Z M106.002,185.758 C105.09,185.758 104.307,185.419 103.653,184.741 C102.999,184.063 102.672,183.169 102.672,182.059 C102.672,180.949 102.999,180.058 103.653,179.386 C104.307,178.714 105.093,178.378 106.011,178.378 C106.929,178.378 107.715,178.702 108.369,179.35 C109.023,179.998 109.35,180.883 109.35,182.005 C109.35,183.127 109.023,184.033 108.369,184.723 C107.715,185.413 106.926,185.758 106.002,185.758 Z M113.922,175.534 C114.234,175.534 114.498,175.426 114.714,175.21 C114.93,174.994 115.038,174.73 115.038,174.418 C115.038,174.106 114.93,173.842 114.714,173.626 C114.498,173.41 114.237,173.302 113.931,173.302 C113.625,173.302 113.364,173.41 113.148,173.626 C112.932,173.842 112.824,174.106 112.824,174.418 C112.824,174.73 112.929,174.994 113.139,175.21 C113.349,175.426 113.61,175.534 113.922,175.534 Z M114.732,187 L114.732,177.118 L113.094,177.118 L113.094,187 L114.732,187 Z M119.07,187 L119.07,181.42 C119.07,180.424 119.313,179.668 119.799,179.152 C120.285,178.636 120.951,178.378 121.797,178.378 C122.643,178.378 123.306,178.636 123.786,179.152 C124.266,179.668 124.506,180.424 124.506,181.42 L124.506,181.42 L124.506,187 L126.126,187 L126.126,181.15 C126.126,179.806 125.76,178.771 125.028,178.045 C124.296,177.319 123.384,176.956 122.292,176.956 C120.816,176.956 119.742,177.544 119.07,178.72 L119.07,178.72 L119.07,177.118 L117.432,177.118 L117.432,187 L119.07,187 Z M132.12,187.162 C133.224,187.162 134.121,186.901 134.811,186.379 C135.501,185.857 135.846,185.215 135.846,184.453 C135.846,183.691 135.645,183.103 135.243,182.689 C134.841,182.275 134.355,181.993 133.785,181.843 C133.215,181.693 132.645,181.561 132.075,181.447 C131.505,181.333 131.019,181.15 130.617,180.898 C130.215,180.646 130.014,180.289 130.014,179.827 C130.014,179.365 130.191,178.987 130.545,178.693 C130.899,178.399 131.385,178.252 132.003,178.252 C132.621,178.252 133.104,178.42 133.452,178.756 C133.8,179.092 133.986,179.536 134.01,180.088 L134.01,180.088 L135.702,180.088 C135.642,179.116 135.3,178.351 134.676,177.793 C134.052,177.235 133.191,176.956 132.093,176.956 C130.995,176.956 130.101,177.241 129.411,177.811 C128.721,178.381 128.376,179.08 128.376,179.908 C128.376,180.472 128.52,180.94 128.808,181.312 C129.096,181.684 129.456,181.945 129.888,182.095 C130.32,182.245 130.791,182.386 131.301,182.518 C131.811,182.65 132.282,182.764 132.714,182.86 C133.146,182.956 133.506,183.13 133.794,183.382 C134.082,183.634 134.226,183.973 134.226,184.399 C134.226,184.825 134.043,185.176 133.677,185.452 C133.311,185.728 132.807,185.866 132.165,185.866 C131.523,185.866 131.019,185.701 130.653,185.371 C130.287,185.041 130.092,184.6 130.068,184.048 L130.068,184.048 L128.376,184.048 C128.436,185.02 128.799,185.782 129.465,186.334 C130.131,186.886 131.016,187.162 132.12,187.162 Z M145.242,187 L145.242,181.852 L146.844,181.852 L150.12,187 L152.172,187 L148.734,181.78 C149.814,181.612 150.624,181.198 151.164,180.538 C151.704,179.878 151.974,179.053 151.974,178.063 C151.974,177.073 151.605,176.236 150.867,175.552 C150.129,174.868 149.058,174.526 147.654,174.526 L147.654,174.526 L143.604,174.526 L143.604,187 L145.242,187 Z M147.654,180.556 L145.242,180.556 L145.242,175.84 L147.654,175.84 C149.43,175.84 150.318,176.626 150.318,178.198 C150.318,178.942 150.099,179.521 149.661,179.935 C149.223,180.349 148.554,180.556 147.654,180.556 L147.654,180.556 Z M158.85,187.162 C160.002,187.162 160.959,186.88 161.721,186.316 C162.483,185.752 163.02,185.038 163.332,184.174 L163.332,184.174 L161.568,184.174 C161.352,184.666 161.013,185.062 160.551,185.362 C160.089,185.662 159.522,185.812 158.85,185.812 C157.962,185.812 157.233,185.527 156.663,184.957 C156.093,184.387 155.784,183.61 155.736,182.626 L155.736,182.626 L163.602,182.626 C163.65,182.326 163.674,182.002 163.674,181.654 C163.674,180.286 163.239,179.161 162.369,178.279 C161.499,177.397 160.347,176.956 158.913,176.956 C157.479,176.956 156.312,177.421 155.412,178.351 C154.512,179.281 154.062,180.514 154.062,182.05 C154.062,183.586 154.506,184.822 155.394,185.758 C156.282,186.694 157.434,187.162 158.85,187.162 Z M161.964,181.438 L155.754,181.438 C155.814,180.466 156.132,179.701 156.708,179.143 C157.284,178.585 158.007,178.306 158.877,178.306 C159.747,178.306 160.476,178.591 161.064,179.161 C161.652,179.731 161.952,180.49 161.964,181.438 L161.964,181.438 Z M170.424,191.86 C171.768,191.86 172.878,191.431 173.754,190.573 C174.63,189.715 175.068,188.608 175.068,187.252 L175.068,187.252 L175.068,177.118 L173.412,177.118 L173.412,179.098 C173.088,178.462 172.611,177.946 171.981,177.55 C171.351,177.154 170.616,176.956 169.776,176.956 C168.42,176.956 167.295,177.421 166.401,178.351 C165.507,179.281 165.06,180.499 165.06,182.005 C165.06,183.511 165.51,184.747 166.41,185.713 C167.31,186.679 168.432,187.162 169.776,187.162 C170.616,187.162 171.351,186.961 171.981,186.559 C172.611,186.157 173.088,185.632 173.412,184.984 L173.412,184.984 L173.412,187.252 C173.412,188.26 173.127,189.043 172.557,189.601 C171.987,190.159 171.276,190.438 170.424,190.438 C169.572,190.438 168.858,190.252 168.282,189.88 C167.706,189.508 167.34,189.04 167.184,188.476 L167.184,188.476 L165.582,188.476 C165.702,189.484 166.203,190.3 167.085,190.924 C167.967,191.548 169.08,191.86 170.424,191.86 Z M170.082,185.758 C169.17,185.758 168.384,185.41 167.724,184.714 C167.064,184.018 166.734,183.112 166.734,181.996 C166.734,180.88 167.061,179.998 167.715,179.35 C168.369,178.702 169.155,178.378 170.073,178.378 C170.991,178.378 171.777,178.714 172.431,179.386 C173.085,180.058 173.412,180.952 173.412,182.068 C173.412,183.184 173.082,184.078 172.422,184.75 C171.774,185.422 170.994,185.758 170.082,185.758 Z M181.512,187.162 C183,187.162 184.074,186.58 184.734,185.416 L184.734,185.416 L184.734,187 L186.372,187 L186.372,177.118 L184.734,177.118 L184.734,182.716 C184.734,183.7 184.491,184.453 184.005,184.975 C183.519,185.497 182.856,185.758 182.016,185.758 C181.176,185.758 180.513,185.497 180.027,184.975 C179.541,184.453 179.298,183.7 179.298,182.716 L179.298,182.716 L179.298,177.118 L177.678,177.118 L177.678,182.986 C177.678,184.318 178.044,185.347 178.776,186.073 C179.508,186.799 180.42,187.162 181.512,187.162 Z M190.71,187 L190.71,173.68 L189.072,173.68 L189.072,187 L190.71,187 Z M197.478,187.162 C198.318,187.162 199.053,186.961 199.683,186.559 C200.313,186.157 200.79,185.632 201.114,184.984 L201.114,184.984 L201.114,187 L202.77,187 L202.77,177.118 L201.114,177.118 L201.114,179.098 C200.79,178.462 200.313,177.946 199.683,177.55 C199.053,177.154 198.318,176.956 197.478,176.956 C196.122,176.956 194.997,177.421 194.103,178.351 C193.209,179.281 192.762,180.499 192.762,182.005 C192.762,183.511 193.212,184.747 194.112,185.713 C195.012,186.679 196.134,187.162 197.478,187.162 Z M197.784,185.758 C196.872,185.758 196.086,185.41 195.426,184.714 C194.766,184.018 194.436,183.112 194.436,181.996 C194.436,180.88 194.763,179.998 195.417,179.35 C196.071,178.702 196.857,178.378 197.775,178.378 C198.693,178.378 199.479,178.714 200.133,179.386 C200.787,180.058 201.114,180.952 201.114,182.068 C201.114,183.184 200.784,184.078 200.124,184.75 C199.476,185.422 198.696,185.758 197.784,185.758 Z M207.108,187 L207.108,181.6 C207.108,180.52 207.327,179.761 207.765,179.323 C208.203,178.885 208.842,178.666 209.682,178.666 L209.682,178.666 L210.114,178.666 L210.114,176.956 C208.698,176.956 207.696,177.568 207.108,178.792 L207.108,178.792 L207.108,177.118 L205.47,177.118 L205.47,187 L207.108,187 Z M220.158,187 L220.158,174.22 L217.08,174.22 L217.08,175.678 L218.556,175.678 L218.556,187 L220.158,187 Z M227.628,187.36 C228.996,187.36 230.1,186.997 230.94,186.271 C231.78,185.545 232.2,184.576 232.2,183.364 C232.2,182.536 231.99,181.825 231.57,181.231 C231.15,180.637 230.598,180.226 229.914,179.998 C230.49,179.746 230.958,179.359 231.318,178.837 C231.678,178.315 231.858,177.706 231.858,177.01 C231.858,175.99 231.492,175.144 230.76,174.472 C230.028,173.8 228.987,173.464 227.637,173.464 C226.287,173.464 225.243,173.797 224.505,174.463 C223.767,175.129 223.398,175.972 223.398,176.992 C223.398,178.372 224.052,179.374 225.36,179.998 C224.664,180.226 224.106,180.637 223.686,181.231 C223.266,181.825 223.056,182.536 223.056,183.364 C223.056,184.576 223.476,185.545 224.316,186.271 C225.156,186.997 226.26,187.36 227.628,187.36 Z M227.628,179.422 C226.836,179.422 226.191,179.209 225.693,178.783 C225.195,178.357 224.946,177.796 224.946,177.1 C224.946,176.404 225.186,175.855 225.666,175.453 C226.146,175.051 226.803,174.85 227.637,174.85 C228.471,174.85 229.125,175.051 229.599,175.453 C230.073,175.855 230.31,176.404 230.31,177.1 C230.31,177.796 230.061,178.357 229.563,178.783 C229.065,179.209 228.42,179.422 227.628,179.422 Z M227.628,185.974 C226.704,185.974 225.969,185.734 225.423,185.254 C224.877,184.774 224.604,184.117 224.604,183.283 C224.604,182.449 224.886,181.813 225.45,181.375 C226.014,180.937 226.743,180.718 227.637,180.718 C228.531,180.718 229.254,180.937 229.806,181.375 C230.358,181.813 230.634,182.446 230.634,183.274 C230.634,184.102 230.364,184.759 229.824,185.245 C229.284,185.731 228.552,185.974 227.628,185.974 Z" id="Body-PoppinsRegular18"></path>
        </g>
    </g>
</svg>