<svg id="Layer_1" data-name="Layer 1" xmlns="http://www.w3.org/2000/svg" viewBox="0 0 52.47 153.8"><defs><style>.cls-1{fill:#10b5b7;}</style></defs><title>bracket</title><path class="cls-1" d="M42.32,153.8q-12.39,0-18.92-6.28t-6.54-18V98.23q0-7.74-2.58-11.35T5.16,81.72L0,80.34V73.29l5.16-1.38q6.54-1.37,9.12-5.08T16.86,55.4V24.26q0-11.87,7-18.06T42.32,0H52.47V12.21H44.21a10.84,10.84,0,0,0-8.43,3.61q-3.27,3.61-3.27,10.67V58.32A20,20,0,0,1,30,68.81,16.88,16.88,0,0,1,23.83,75a14.92,14.92,0,0,1-7.31,2.06v-.69a14.48,14.48,0,0,1,7.31,2.15A17.43,17.43,0,0,1,30,84.9a20.15,20.15,0,0,1,2.5,10.41v32q0,7.05,3.27,10.58a11,11,0,0,0,8.43,3.53h8.26V153.8Z"/></svg>