<?xml version="1.0" encoding="utf-8"?>
<!-- Generator: Adobe Illustrator 21.1.0, SVG Export Plug-In . SVG Version: 6.00 Build 0)  -->
<svg version="1.1" id="Layer_1" xmlns="http://www.w3.org/2000/svg" xmlns:xlink="http://www.w3.org/1999/xlink" x="0px" y="0px"
	 viewBox="0 0 52.5 153.8" style="enable-background:new 0 0 52.5 153.8;" xml:space="preserve">
<style type="text/css">
	.st0{fill:#10B5B7;}
</style>
<title>bracket</title>
<path class="st0" d="M42.3,153.8c-8.3,0-14.6-2.1-18.9-6.3c-4.4-4.2-6.5-10.2-6.5-18V98.2c0-5.2-0.9-8.9-2.6-11.3s-4.8-4.1-9.1-5.2
	L0,80.3v-7l5.2-1.4c4.4-0.9,7.4-2.6,9.1-5.1s2.6-6.3,2.6-11.4V24.3c0-7.9,2.3-13.9,7-18.1S34.7,0,42.3,0h10.2v12.2h-8.3
	c-3.2-0.1-6.3,1.2-8.4,3.6c-2.2,2.4-3.3,6-3.3,10.7v31.8c0.1,3.7-0.7,7.3-2.5,10.5c-1.5,2.6-3.6,4.7-6.2,6.2c-2.2,1.3-4.7,2-7.3,2.1
	v-0.7c2.6,0.1,5.1,0.8,7.3,2.2c2.6,1.6,4.7,3.8,6.2,6.4c1.8,3.2,2.6,6.8,2.5,10.4v32c0,4.7,1.1,8.2,3.3,10.6
	c2.2,2.3,5.2,3.6,8.4,3.5h8.3v12.4H42.3z"/>
</svg>
