<svg id="Layer_1" data-name="Layer 1" xmlns="http://www.w3.org/2000/svg" xmlns:xlink="http://www.w3.org/1999/xlink" viewBox="0 0 1261.61 258.07"><defs><style>.cls-1{fill:#d4ede9;}.cls-2{fill:#009bae;}.cls-3{fill:url(#linear-gradient);}.cls-4{fill:#025f6b;}</style><linearGradient id="linear-gradient" x1="471.42" y1="-540.5" x2="1261.61" y2="-540.5" gradientTransform="matrix(1, 0, 0, -1, 0, -343.92)" gradientUnits="userSpaceOnUse"><stop offset="0" stop-color="#d4ede9"/><stop offset="1" stop-color="#c1e5e0"/></linearGradient></defs><title>logo_small</title><polygon class="cls-1" points="50.85 0 0 0 50.85 61.32 50.85 61.67 0 122.99 50.85 122.99 574.5 122.99 573.79 0 50.85 0"/><polygon class="cls-2" points="573.79 135.08 471.42 135.08 573.79 0 573.79 135.08"/><polygon class="cls-3" points="1261.61 258.07 471.42 258.07 471.42 135.08 1261.61 135.08 1210.62 196.57 1261.61 258.07"/><path class="cls-2" d="M527.75,178.06H560V185H535.37v11.84h21.88v6.94H535.37v17.67h-7.62Z"/><path class="cls-2" d="M568.42,178.06h19.34c5.46,0,9.73,1.61,12.52,4.34a13.12,13.12,0,0,1,3.6,9.36v.12c0,7.13-4.28,11.41-10.35,13.14l11.72,16.43h-9l-10.66-15.13H576v15.13h-7.62Zm18.78,21.51c5.46,0,8.93-2.85,8.93-7.25v-.12c0-4.65-3.35-7.19-9-7.19H576v14.57Z"/><path class="cls-2" d="M611.32,199.88v-.12a22.23,22.23,0,0,1,22-22.45h.74c13.33,0,22.63,10.11,22.63,22.32v.12a22.24,22.24,0,0,1-22,22.44H634C620.62,222.2,611.32,212.09,611.32,199.88Zm37.38,0v-.12c0-8.43-6.14-15.44-14.76-15.44s-14.63,6.88-14.63,15.31v.12c0,8.43,6.14,15.44,14.75,15.44s14.65-6.88,14.65-15.31Z"/><path class="cls-2" d="M665.94,178.06H673l23.25,30v-30h7.5v43.4h-6.39l-23.93-30.87v30.87h-7.5Z"/><path class="cls-2" d="M725.58,185.13H711.82v-7.07H747v7.07H733.27v36.33h-7.69Z"/><path class="cls-2" d="M755.1,178.06h32.18v6.82H762.72v11.28h21.76V203H762.72v11.66h24.86v6.82H755.1Z"/><path class="cls-2" d="M796.64,178.06h7.07l23.25,30v-30h7.5v43.4h-6.39l-23.93-30.87v30.87h-7.5Z"/><path class="cls-4" d="M845.62,178.06H861.8c13.64,0,23.06,9.36,23.06,21.58v.12c0,12.21-9.42,21.7-23.06,21.7H845.62Zm16.18,36.45c9.11,0,15.07-6.14,15.07-14.63v-.12c0-8.49-6-14.76-15.07-14.76h-8.56v29.51Z"/><path class="cls-2" d="M894.1,178.06h32.18v6.82H901.73v11.28h21.76V203H901.73v11.66h24.86v6.82H894.1Z"/><path class="cls-2" d="M932.73,215.13l4.59-5.46c4.15,3.6,8.31,5.64,13.7,5.64,4.71,0,7.69-2.17,7.69-5.46v-.12c0-3.1-1.74-4.77-9.8-6.63-9.24-2.23-14.45-5-14.45-13V190c0-7.44,6.2-12.59,14.82-12.59A24.05,24.05,0,0,1,965,182.89l-4.09,5.77c-3.91-2.91-7.81-4.46-11.78-4.46-4.46,0-7.07,2.29-7.07,5.15v.12c0,3.35,2,4.84,10.29,6.82,9.18,2.23,14,5.52,14,12.71v.12c0,8.12-6.39,13-15.5,13A26.73,26.73,0,0,1,932.73,215.13Z"/><path class="cls-2" d="M975.75,178.06h7.63v43.4h-7.63Z"/><path class="cls-2" d="M993,199.88v-.12a22.11,22.11,0,0,1,21.78-22.44h.6c7.56,0,12.21,2.11,16.68,5.89l-4.84,5.77a17,17,0,0,0-12.15-4.65c-8,0-14.07,7-14.07,15.31v.12c0,8.93,5.89,15.5,14.75,15.5a17.71,17.71,0,0,0,10.48-3.29v-8.12h-11.1v-6.63h18.47v18.23a27.67,27.67,0,0,1-18.1,6.76C1002,222.2,993,212.53,993,199.88Z"/><path class="cls-2" d="M1043.58,178.06h7.07l23.25,30v-30h7.5v43.4H1075l-23.93-30.87v30.87h-7.5Z"/><path class="cls-2" d="M1092.56,178.06h32.18v6.82h-24.55v11.28H1122V203h-21.76v11.66H1125v6.82h-32.49Z"/><path class="cls-2" d="M1134.1,178.06h19.34c5.46,0,9.73,1.61,12.52,4.34a13.12,13.12,0,0,1,3.6,9.36v.12c0,7.13-4.28,11.41-10.35,13.14l11.72,16.43h-9l-10.66-15.13h-9.55v15.13h-7.62Zm18.78,21.51c5.46,0,8.93-2.85,8.93-7.25v-.12c0-4.65-3.35-7.19-9-7.19h-11.1v14.57Z"/><path class="cls-2" d="M96.89,41.37H105l13.12,20.38,13.12-20.38h8.07V84.48h-7.57V53.57L118.07,73.89h-.25l-13.49-20.2V84.48H96.89Z"/><path class="cls-2" d="M148.43,63v-.12a22.09,22.09,0,0,1,21.88-22.29H171c13.24,0,22.48,10,22.48,22.17v.12A22.09,22.09,0,0,1,171.6,85.22h-.72C157.67,85.22,148.43,75.18,148.43,63Zm37.13,0v-.12c0-8.37-6.1-15.33-14.66-15.33s-14.53,6.84-14.53,15.21v.12c0,8.38,6.1,15.33,14.66,15.33S185.56,71.43,185.56,63Z"/><path class="cls-2" d="M202.68,41.37h19.21c5.42,0,9.67,1.6,12.44,4.31A13,13,0,0,1,237.9,55v.12c0,7.08-4.25,11.33-10.28,13l11.64,16.32h-8.93l-10.59-15h-9.48v15h-7.57Zm18.66,21.37c5.42,0,8.87-2.83,8.87-7.2v-.12c0-4.62-3.32-7.14-8.93-7.14h-11V62.74Z"/><path class="cls-2" d="M245.29,63v-.12A22,22,0,0,1,267,40.64h.52c7.51,0,12.13,2.09,16.57,5.85l-4.8,5.73a16.89,16.89,0,0,0-12.07-4.62c-7.94,0-14,7-14,15.21v.12c0,8.87,5.85,15.39,14.66,15.39a17.6,17.6,0,0,0,10.41-3.26V67h-11V60.4h18.35V78.5a27.49,27.49,0,0,1-18,6.71C254.16,85.22,245.29,75.61,245.29,63Z"/><path class="cls-2" d="M310.75,41.07h7l19,43.41h-8l-4.37-10.41H304l-4.43,10.41h-7.76Zm10.84,26.3-7.45-17.24-7.39,17.24Z"/><path class="cls-2" d="M344.56,41.37h7.57V84.48h-7.57Z"/><path class="cls-2" d="M363.64,41.37h7l23.09,29.8V41.37h7.45V84.48h-6.34L371.1,53.81V84.48h-7.45Z"/><path class="cls-2" d="M412.29,41.37h32v6.77H419.87V59.36h21.61v6.77H419.87V77.71h24.69v6.77H412.29Z"/><path class="cls-4" d="M462.52,41.37h19.34c4.93,0,8.81,1.35,11.27,3.82A9.65,9.65,0,0,1,496,52.34v.12c0,5.17-3,7.94-6.16,9.61,5,1.72,8.56,4.62,8.56,10.47v.12c0,7.7-6.34,11.82-16,11.82h-20Zm17.8,18.17c4.87,0,8.13-1.91,8.13-5.85v-.12c0-3.39-2.71-5.48-7.57-5.48H470V59.54Zm2.22,18.23c5.17,0,8.31-2,8.31-5.91v-.12c0-3.63-2.89-5.79-8.87-5.79H470V77.77Z"/></svg>