<?xml version="1.0" encoding="utf-8"?>
<!-- Generator: Adobe Illustrator 21.1.0, SVG Export Plug-In . SVG Version: 6.00 Build 0)  -->
<svg version="1.1" id="Layer_1" xmlns="http://www.w3.org/2000/svg" xmlns:xlink="http://www.w3.org/1999/xlink" x="0px" y="0px"
	 viewBox="0 0 1254 227" style="enable-background:new 0 0 1254 227;" xml:space="preserve">
<style type="text/css">
	.st0{fill:#D3ECE9;}
	.st1{fill:url(#ribbon2_1_);}
	.st2{fill:url(#ribbon3_1_);}
	.st3{fill:#00A9AA;}
	.st4{fill:#B01E50;}
	.st5{fill:#DF7979;}
</style>
<title>logo design</title>
<polygon id="ribbon1_2_" class="st0" points="50.9,0 0,0 51,61 51,61 0,123 50.9,123 542.7,123 555,0 "/>
<linearGradient id="ribbon2_1_" gradientUnits="userSpaceOnUse" x1="452" y1="114.5" x2="555" y2="114.5" gradientTransform="matrix(1 0 0 -1 0 228)">
	<stop  offset="0" style="stop-color:#8A173F"/>
	<stop  offset="1" style="stop-color:#B01E50"/>
</linearGradient>
<polygon id="ribbon2_3_" class="st1" points="555,123 452,227 452,104 555,0 "/>
<linearGradient id="ribbon3_1_" gradientUnits="userSpaceOnUse" x1="451" y1="62.5" x2="1253" y2="62.5" gradientTransform="matrix(1 0 0 -1 0 228)">
	<stop  offset="0" style="stop-color:#D3ECE9"/>
	<stop  offset="1" style="stop-color:#F7ECEC"/>
</linearGradient>
<polygon id="ribbon3_2_" class="st2" points="1253,227 451,227 451,104 1253,104 1202,165.5 "/>
<g>
	<path class="st3" d="M508.4,148h32.3v6.9H516v11.8h21.9v6.9H516v17.7h-7.6V148z"/>
	<path class="st3" d="M549.1,148h19.3c5.5,0,9.7,1.6,12.5,4.3c2.3,2.4,3.6,5.6,3.6,9.4v0.1c0,7.1-4.3,11.4-10.4,13.1l11.7,16.4h-9
		l-10.7-15.1h-9.5v15.1H549V148H549.1z M567.9,169.5c5.5,0,8.9-2.9,8.9-7.3v-0.1c0-4.7-3.3-7.2-9-7.2h-11.1v14.6H567.9z"/>
	<path class="st3" d="M592,169.8v-0.1c0-12.2,9.4-22.4,22.8-22.4s22.6,10.1,22.6,22.3v0.1c0,12.2-9.4,22.4-22.8,22.4
		C601.3,192.2,592,182.1,592,169.8z M629.4,169.8v-0.1c0-8.4-6.1-15.4-14.8-15.4c-8.6,0-14.6,6.9-14.6,15.3v0.1
		c0,8.4,6.1,15.4,14.8,15.4C623.4,185.2,629.4,178.3,629.4,169.8z"/>
	<path class="st3" d="M646.6,148h7.1l23.2,30v-30h7.5v43.4H678l-23.9-30.9v30.9h-7.5L646.6,148L646.6,148z"/>
	<path class="st3" d="M706.3,155.1h-13.8V148h35.2v7.1H714v36.3h-7.7V155.1z"/>
</g>
<path class="st4" d="M826.3,148h16.2c13.6,0,23.1,9.4,23.1,21.6v0.1c0,12.2-9.4,21.7-23.1,21.7h-16.2V148z M842.5,184.5
	c9.1,0,15.1-6.1,15.1-14.6v-0.1c0-8.5-6-14.8-15.1-14.8h-8.6v29.5L842.5,184.5L842.5,184.5z"/>
<g>
	<path class="st5" d="M735.8,148H768v6.8h-24.6v11.3h21.8v6.8h-21.8v11.7h24.9v6.8h-32.5L735.8,148L735.8,148z"/>
	<path class="st5" d="M777.3,148h7.1l23.2,30v-30h7.5v43.4h-6.4l-23.9-30.9v30.9h-7.5L777.3,148L777.3,148z"/>
	<path class="st5" d="M874.8,148H907v6.8h-24.6v11.3h21.8v6.8h-21.8v11.7h24.9v6.8h-32.5L874.8,148L874.8,148z"/>
	<path class="st5" d="M913.4,185.1l4.6-5.5c4.2,3.6,8.3,5.6,13.7,5.6c4.7,0,7.7-2.2,7.7-5.5v-0.1c0-3.1-1.7-4.8-9.8-6.6
		c-9.2-2.2-14.4-5-14.4-13l0,0c0-7.4,6.2-12.6,14.8-12.6c6.3,0,11.3,1.9,15.7,5.5l-4.1,5.8c-3.9-2.9-7.8-4.5-11.8-4.5
		c-4.5,0-7.1,2.3-7.1,5.1v0.1c0,3.3,2,4.8,10.3,6.8c9.2,2.2,13.9,5.5,13.9,12.7v0.1c0,8.1-6.4,13-15.5,13
		C924.9,192,918.6,189.7,913.4,185.1z"/>
	<path class="st5" d="M956.4,148h7.6v43.4h-7.6V148z"/>
	<path class="st5" d="M973.7,169.8v-0.1c0-12.2,9.3-22.4,22.4-22.4c7.6,0,12.2,2.1,16.7,5.9l-4.8,5.8c-3.3-2.9-6.6-4.6-12.2-4.6
		c-8,0-14.1,7-14.1,15.3v0.1c0,8.9,5.9,15.5,14.8,15.5c4.1,0,7.8-1.3,10.5-3.3v-8.1h-11.1v-6.6h18.5v18.2
		c-4.3,3.7-10.4,6.8-18.1,6.8C982.7,192.2,973.7,182.5,973.7,169.8z"/>
	<path class="st5" d="M1024.3,148h7.1l23.2,30v-30h7.5v43.4h-6.4l-23.9-30.9v30.9h-7.5L1024.3,148L1024.3,148z"/>
	<path class="st5" d="M1073.3,148h32.2v6.8h-24.6v11.3h21.8v6.8h-21.8v11.7h24.9v6.8h-32.5V148z"/>
	<path class="st5" d="M1114.8,148h19.3c5.5,0,9.7,1.6,12.5,4.3c2.3,2.4,3.6,5.6,3.6,9.4v0.1c0,7.1-4.3,11.4-10.4,13.1l11.7,16.4h-9
		l-10.7-15.1h-9.5v15.1h-7.6L1114.8,148L1114.8,148z M1133.6,169.5c5.5,0,8.9-2.9,8.9-7.3v-0.1c0-4.7-3.3-7.2-9-7.2h-11.1v14.6
		H1133.6z"/>
</g>
<g id="morgaine_2_">
	<path class="st3" d="M96.6,42.3h8.1l13.1,20.4l13.1-20.4h8.1v43.1h-7.6V54.5l-13.6,20.3h-0.2L104,54.7v30.8h-7.5L96.6,42.3
		L96.6,42.3z"/>
	<path class="st3" d="M148.1,64L148.1,64c0-12.2,9.4-22.4,22.6-22.4s22.5,10,22.5,22.2v0.1c0,12.1-9.4,22.3-22.6,22.3
		S148.1,76.1,148.1,64z M185.3,64L185.3,64c0-8.5-6.1-15.4-14.7-15.4c-8.6,0-14.5,6.8-14.5,15.2v0.1c0,8.4,6.1,15.3,14.7,15.3
		S185.3,72.4,185.3,64z"/>
	<path class="st3" d="M202.4,42.3h19.2c5.4,0,9.7,1.6,12.4,4.3c2.3,2.3,3.6,5.5,3.6,9.3V56c0,7.1-4.2,11.3-10.3,13.1L239,85.4h-9
		l-10.6-15h-9.5v15h-7.6V42.3H202.4z M221,63.7c5.4,0,8.9-2.8,8.9-7.2v-0.1c0-4.6-3.3-7.1-8.9-7.1h-11v14.5h11V63.7z"/>
	<path class="st3" d="M245,64L245,64c0-12.2,9.2-22.4,22.2-22.4c7.5,0,12.1,2.1,16.6,5.9l-4.8,5.7c-3.3-2.8-6.6-4.6-12.1-4.6
		c-7.9,0-14,7-14,15.2v0.1c0,8.9,5.9,15.4,14.7,15.4c4.1,0,7.8-1.3,10.4-3.3v-8h-11v-6.6h18.4v18.1c-4.2,3.6-10.3,6.7-18,6.7
		C253.9,86.2,245,76.6,245,64z"/>
	<path class="st3" d="M310.4,42h7l19,43.4h-8L324.1,75h-20.4l-4.4,10.4h-7.8L310.4,42z M321.3,68.3l-7.5-17.2l-7.4,17.2H321.3z"/>
	<path class="st3" d="M344.2,42.3h7.6v43.1h-7.6V42.3z"/>
	<path class="st3" d="M363.3,42.3h7l23.1,29.8V42.3h7.5v43.1h-6.3l-23.8-30.7v30.7h-7.5L363.3,42.3L363.3,42.3z"/>
	<path class="st3" d="M412,42.3h32v6.8h-24.4v11.2h21.6v6.8h-21.6v11.6h24.7v6.8H412V42.3z"/>
</g>
</svg>
