<svg id="Layer_1" data-name="Layer 1" xmlns="http://www.w3.org/2000/svg" xmlns:xlink="http://www.w3.org/1999/xlink" viewBox="0 0 1449.52 227.07"><defs><style>.cls-1{fill:#d4ede9;}.cls-2{fill:#009bae;}.cls-3{fill:#025f6b;}.cls-4{fill:url(#linear-gradient);}</style><linearGradient id="linear-gradient" x1="647.32" y1="165.57" x2="1449.52" y2="165.57" gradientUnits="userSpaceOnUse"><stop offset="0" stop-color="#d4ede9"/><stop offset="1" stop-color="#c1e5e0"/></linearGradient></defs><title>logo</title><polygon class="cls-1" points="50.85 0 0 0 50.85 61.32 50.85 61.67 0 122.99 50.85 122.99 749.7 122.99 749.7 0 50.85 0"/><path class="cls-2" d="M97.12,47.42h6.07l9.87,15.34,9.87-15.34H129V79.86h-5.7V56.6L113.06,71.89h-.19l-10.15-15.2V79.86H97.12Z"/><path class="cls-2" d="M135.9,63.74v-.09a17,17,0,0,1,33.92-.09v.09a17,17,0,0,1-33.92.09Zm27.94,0v-.09c0-6.3-4.59-11.54-11-11.54s-10.94,5.14-10.94,11.45v.09c0,6.3,4.59,11.54,11,11.54S163.85,70,163.85,63.74Z"/><path class="cls-2" d="M176.73,47.42h14.46c4.08,0,7.28,1.2,9.36,3.24a9.81,9.81,0,0,1,2.69,7v.09c0,5.33-3.2,8.53-7.74,9.82l8.76,12.28h-6.72l-8-11.31h-7.14V79.86h-5.7Zm14,16.08c4.08,0,6.67-2.13,6.67-5.42V58c0-3.48-2.5-5.38-6.72-5.38h-8.29V63.5Z"/><path class="cls-2" d="M208.79,63.74v-.09a16.53,16.53,0,0,1,16.73-16.78c5.65,0,9.13,1.58,12.47,4.4l-3.61,4.31a12.71,12.71,0,0,0-9.08-3.48c-6,0-10.52,5.24-10.52,11.45v.09c0,6.67,4.4,11.58,11,11.58a13.24,13.24,0,0,0,7.83-2.46V66.7h-8.3v-5h13.81V75.37a20.69,20.69,0,0,1-13.53,5.05C215.47,80.42,208.79,73.19,208.79,63.74Z"/><path class="cls-2" d="M258.05,47.19h5.28l14.27,32.67h-6L268.29,72H253l-3.34,7.83h-5.84ZM266.21,67,260.6,54,255,67Z"/><path class="cls-2" d="M283.49,47.42h5.7V79.86h-5.7Z"/><path class="cls-2" d="M297.86,47.42h5.28l17.38,22.43V47.42h5.61V79.86h-4.77L303.47,56.78V79.86h-5.61Z"/><path class="cls-2" d="M334.47,47.42h24.05v5.1H340.17V61h16.27v5.1H340.17v8.71h18.58v5.1H334.47Z"/><path class="cls-3" d="M371.51,47.42h14.55c3.71,0,6.63,1,8.48,2.87a7.26,7.26,0,0,1,2.18,5.38v.09A7.72,7.72,0,0,1,392.09,63c3.8,1.3,6.44,3.48,6.44,7.88V71c0,5.79-4.77,8.9-12,8.9h-15Zm13.39,13.67c3.66,0,6.12-1.44,6.12-4.4V56.6c0-2.55-2-4.12-5.7-4.12h-8.2v8.62Zm1.67,13.72c3.89,0,6.26-1.53,6.26-4.45v-.09c0-2.73-2.18-4.36-6.67-4.36h-9v8.9Z"/><path class="cls-3" d="M405,47.42h14.46c4.08,0,7.28,1.2,9.36,3.24a9.81,9.81,0,0,1,2.69,7v.09c0,5.33-3.2,8.53-7.74,9.82l8.76,12.28h-6.72l-8-11.31h-7.14V79.86H405ZM419,63.5c4.08,0,6.67-2.13,6.67-5.42V58c0-3.48-2.5-5.38-6.72-5.38h-8.29V63.5Z"/><path class="cls-3" d="M438.47,47.42h24.05v5.1H444.17V61h16.27v5.1H444.17v8.71h18.58v5.1H438.47Z"/><path class="cls-3" d="M469.84,47.42h5.7V79.86h-5.7Z"/><path class="cls-3" d="M484.21,47.42h6.07l9.87,15.34L510,47.42h6.07V79.86h-5.7V56.6L500.15,71.89H500l-10.15-15.2V79.86h-5.61Z"/><path class="cls-3" d="M535.92,47.19h5.28l14.27,32.67h-6L546.17,72H530.83l-3.34,7.83h-5.84ZM544.08,67l-5.61-13-5.56,13Z"/><path class="cls-3" d="M565.49,67.07,552.61,47.42h6.72l9.08,14.37,9.17-14.37h6.53L571.24,66.93V79.86h-5.75Z"/><path class="cls-3" d="M589.12,47.42h24.05v5.1H594.82V61h16.27v5.1H594.82v8.71h18.58v5.1H589.12Z"/><path class="cls-3" d="M620.17,47.42h14.46c4.08,0,7.28,1.2,9.36,3.24a9.81,9.81,0,0,1,2.69,7v.09c0,5.33-3.2,8.53-7.74,9.82l8.76,12.28H641l-8-11.31h-7.14V79.86h-5.7Zm14,16.08c4.08,0,6.67-2.13,6.67-5.42V58c0-3.48-2.5-5.38-6.72-5.38h-8.29V63.5Z"/><polygon class="cls-2" points="749.7 104.08 647.32 104.08 749.7 0 749.7 104.08"/><polygon class="cls-4" points="1449.52 227.07 647.32 227.07 647.32 104.08 1449.52 104.08 1398.52 165.57 1449.52 227.07"/><path class="cls-2" d="M703.65,147.06h32.3V154H711.27v11.84h21.88v6.94H711.27v17.67h-7.62Z"/><path class="cls-2" d="M744.32,147.06h19.34c5.46,0,9.73,1.61,12.52,4.34a13.12,13.12,0,0,1,3.6,9.36v.12c0,7.13-4.28,11.41-10.35,13.14l11.72,16.43h-9l-10.66-15.13h-9.55v15.13h-7.62Zm18.78,21.51c5.46,0,8.93-2.85,8.93-7.25v-.12c0-4.65-3.35-7.19-9-7.19h-11.1v14.57Z"/><path class="cls-2" d="M787.22,168.88v-.12A22.23,22.23,0,0,1,810,146.31c13.33,0,22.63,10.11,22.63,22.32v.12a22.24,22.24,0,0,1-22.75,22.44C796.52,191.2,787.22,181.09,787.22,168.88Zm37.38,0v-.12c0-8.43-6.14-15.44-14.76-15.44s-14.63,6.88-14.63,15.31v.12c0,8.43,6.14,15.44,14.75,15.44S824.61,177.31,824.61,168.88Z"/><path class="cls-2" d="M841.85,147.06h7.07l23.25,30v-30h7.5v43.4h-6.39l-23.93-30.87v30.87h-7.5Z"/><path class="cls-2" d="M901.49,154.13H887.72v-7.07h35.21v7.07H909.18v36.33h-7.69Z"/><path class="cls-2" d="M931,147.06h32.18v6.82H938.63v11.28h21.76V172H938.63v11.66h24.86v6.82H931Z"/><path class="cls-2" d="M972.54,147.06h7.07l23.25,30v-30h7.5v43.4H1004L980,159.58v30.87h-7.5Z"/><path class="cls-3" d="M1021.52,147.06h16.18c13.64,0,23.06,9.36,23.06,21.58v.12c0,12.21-9.42,21.7-23.06,21.7h-16.18Zm16.18,36.45c9.11,0,15.07-6.14,15.07-14.63v-.12c0-8.49-6-14.76-15.07-14.76h-8.56v29.51Z"/><path class="cls-2" d="M1070,147.06h32.18v6.82h-24.55v11.28h21.76V172h-21.76v11.66h24.86v6.82H1070Z"/><path class="cls-2" d="M1108.63,184.13l4.59-5.46c4.15,3.6,8.31,5.64,13.7,5.64,4.71,0,7.69-2.17,7.69-5.46v-.12c0-3.1-1.74-4.77-9.8-6.63-9.24-2.23-14.45-5-14.45-13V159c0-7.44,6.2-12.59,14.82-12.59a24.05,24.05,0,0,1,15.75,5.46l-4.09,5.77c-3.91-2.91-7.81-4.46-11.78-4.46-4.46,0-7.07,2.29-7.07,5.15v.12c0,3.35,2,4.84,10.29,6.82,9.18,2.23,13.95,5.52,13.95,12.71v.12c0,8.12-6.39,13-15.5,13A26.73,26.73,0,0,1,1108.63,184.13Z"/><path class="cls-2" d="M1151.66,147.06h7.63v43.4h-7.63Z"/><path class="cls-2" d="M1169,168.88v-.12a22.11,22.11,0,0,1,22.38-22.44c7.56,0,12.21,2.11,16.68,5.89l-4.84,5.77a17,17,0,0,0-12.15-4.65c-8,0-14.07,7-14.07,15.31v.12c0,8.93,5.89,15.5,14.75,15.5a17.71,17.71,0,0,0,10.48-3.29v-8.12h-11.1v-6.63h18.47v18.23a27.67,27.67,0,0,1-18.1,6.76C1177.88,191.2,1169,181.53,1169,168.88Z"/><path class="cls-2" d="M1219.49,147.06h7.07l23.25,30v-30h7.5v43.4h-6.39L1227,159.58v30.87h-7.5Z"/><path class="cls-2" d="M1268.46,147.06h32.18v6.82h-24.55v11.28h21.76V172h-21.76v11.66H1301v6.82h-32.49Z"/><path class="cls-2" d="M1310,147.06h19.34c5.46,0,9.73,1.61,12.52,4.34a13.12,13.12,0,0,1,3.6,9.36v.12c0,7.13-4.28,11.41-10.35,13.14l11.72,16.43h-9l-10.66-15.13h-9.55v15.13H1310Zm18.78,21.51c5.46,0,8.93-2.85,8.93-7.25v-.12c0-4.65-3.35-7.19-9-7.19h-11.1v14.57Z"/></svg>