<svg xmlns="http://www.w3.org/2000/svg" xmlns:xlink="http://www.w3.org/1999/xlink" viewBox="0 0 1254 227"><defs><style>.cls-1{fill:#02364f;}.cls-2{fill:#d4ede9;}.cls-3{fill:url(#linear-gradient);}.cls-4{fill:url(#linear-gradient-2);}.cls-5{fill:#009bae;}.cls-6{fill:#a01f60;}.cls-7{fill:#cf5f97;}</style><linearGradient id="linear-gradient" x1="452" y1="113.5" x2="555" y2="113.5" gradientUnits="userSpaceOnUse"><stop offset="0" stop-color="#80194d"/><stop offset="0.25" stop-color="#8c1b54"/><stop offset="0.66" stop-color="#9b1e5d"/><stop offset="1" stop-color="#a01f60"/></linearGradient><linearGradient id="linear-gradient-2" x1="451" y1="165.5" x2="1253" y2="165.5" gradientUnits="userSpaceOnUse"><stop offset="0" stop-color="#d4ede9"/><stop offset="1" stop-color="#f6eff3"/></linearGradient></defs><title>logo1</title><g id="artboard_12" data-name="artboard 12"><rect class="cls-1" width="1302" height="227"/><polygon id="ribbon1" class="cls-2" points="50.87 0 0 0 51 61 51 61 0 123 50.87 123 555 123 555 0 50.87 0"/><polygon id="ribbon2" class="cls-3" points="555 122.96 452 227 452 104.04 555 0 555 122.96"/><polygon id="ribbon3" class="cls-4" points="1253 227 451 227 451 104 1253 104 1202.02 165.5 1253 227"/><path class="cls-5" d="M508.44,148h32.3V155H516.06v11.84h21.88v6.94H516.06v17.67h-7.62Z"/><path class="cls-5" d="M549.11,148h19.34c5.46,0,9.73,1.61,12.52,4.34a13.12,13.12,0,0,1,3.6,9.36v.12c0,7.13-4.28,11.41-10.35,13.14l11.72,16.43h-9l-10.66-15.13h-9.55v15.13h-7.62Zm18.78,21.51c5.46,0,8.93-2.85,8.93-7.25v-.12c0-4.65-3.35-7.19-9-7.19h-11.1v14.57Z"/><path class="cls-5" d="M592,169.85v-.12a22.23,22.23,0,0,1,22.75-22.44c13.33,0,22.63,10.11,22.63,22.32v.12a22.24,22.24,0,0,1-22.75,22.44C601.31,192.17,592,182.06,592,169.85Zm37.38,0v-.12c0-8.43-6.14-15.44-14.76-15.44S600,161.17,600,169.6v.12c0,8.43,6.14,15.44,14.75,15.44S629.4,178.28,629.4,169.85Z"/><path class="cls-5" d="M646.64,148h7.07L677,178V148h7.5v43.4h-6.39l-23.93-30.87v30.87h-7.5Z"/><path class="cls-5" d="M706.28,155.09H692.51V148h35.21v7.07H714v36.33h-7.69Z"/><path class="cls-6" d="M826.31,148h16.18c13.64,0,23.06,9.36,23.06,21.58v.12c0,12.21-9.42,21.7-23.06,21.7H826.31Zm16.18,36.45c9.11,0,15.07-6.14,15.07-14.63v-.12c0-8.49-6-14.76-15.07-14.76h-8.56v29.51Z"/><path class="cls-7" d="M735.79,148H768v6.82H743.42v11.28h21.76v6.82H743.42V184.6h24.86v6.82H735.79Z"/><path class="cls-7" d="M777.33,148h7.07l23.25,30V148h7.5v43.4h-6.39l-23.93-30.87v30.87h-7.5Z"/><path class="cls-7" d="M874.79,148H907v6.82H882.42v11.28h21.76v6.82H882.42V184.6h24.86v6.82H874.79Z"/><path class="cls-7" d="M913.42,185.1l4.59-5.46c4.15,3.6,8.31,5.64,13.7,5.64,4.71,0,7.69-2.17,7.69-5.46v-.12c0-3.1-1.74-4.77-9.8-6.63-9.24-2.23-14.45-5-14.45-13V160c0-7.44,6.2-12.59,14.82-12.59a24.05,24.05,0,0,1,15.75,5.46l-4.09,5.77c-3.91-2.91-7.81-4.46-11.78-4.46-4.46,0-7.07,2.29-7.07,5.15v.12c0,3.35,2,4.84,10.29,6.82C942.25,168.48,947,171.77,947,179v.12c0,8.12-6.39,13-15.5,13A26.73,26.73,0,0,1,913.42,185.1Z"/><path class="cls-7" d="M956.45,148h7.63v43.4h-7.63Z"/><path class="cls-7" d="M973.74,169.85v-.12a22.11,22.11,0,0,1,22.38-22.44c7.56,0,12.21,2.11,16.68,5.89l-4.84,5.77a17,17,0,0,0-12.15-4.65c-8,0-14.07,7-14.07,15.31v.12c0,8.93,5.89,15.5,14.75,15.5a17.71,17.71,0,0,0,10.48-3.29v-8.12h-11.1v-6.63h18.47v18.23a27.67,27.67,0,0,1-18.1,6.76C982.67,192.17,973.74,182.49,973.74,169.85Z"/><path class="cls-7" d="M1024.28,148h7.07l23.25,30V148h7.5v43.4h-6.39l-23.93-30.87v30.87h-7.5Z"/><path class="cls-7" d="M1073.25,148h32.18v6.82h-24.55v11.28h21.76v6.82h-21.76V184.6h24.86v6.82h-32.49Z"/><path class="cls-7" d="M1114.79,148h19.34c5.46,0,9.73,1.61,12.52,4.34a13.12,13.12,0,0,1,3.6,9.36v.12c0,7.13-4.28,11.41-10.35,13.14l11.72,16.43h-9L1132,176.29h-9.55v15.13h-7.62Zm18.78,21.51c5.46,0,8.93-2.85,8.93-7.25v-.12c0-4.65-3.35-7.19-9-7.19h-11.1v14.57Z"/><g id="morgaine"><path class="cls-5" d="M96.58,42.34h8.07l13.12,20.38,13.12-20.38h8.07V85.45h-7.57V54.53L117.76,74.85h-.25L104,54.66V85.45H96.58Z"/><path class="cls-5" d="M148.12,64v-.12a22.09,22.09,0,0,1,22.6-22.29c13.24,0,22.48,10,22.48,22.17v.12a22.09,22.09,0,0,1-22.6,22.29C157.36,86.18,148.12,76.15,148.12,64Zm37.13,0v-.12c0-8.37-6.1-15.33-14.66-15.33s-14.53,6.84-14.53,15.21v.12c0,8.38,6.1,15.33,14.66,15.33S185.25,72.39,185.25,64Z"/><path class="cls-5" d="M202.37,42.34h19.21c5.42,0,9.67,1.6,12.44,4.31a13,13,0,0,1,3.57,9.3v.12c0,7.08-4.25,11.33-10.28,13.05L239,85.45H230l-10.59-15h-9.48v15h-7.57ZM221,63.71c5.42,0,8.87-2.83,8.87-7.2v-.12c0-4.62-3.32-7.14-8.93-7.14h-11V63.71Z"/><path class="cls-5" d="M245,64v-.12A22,22,0,0,1,267.21,41.6c7.51,0,12.13,2.09,16.57,5.85L279,53.18a16.89,16.89,0,0,0-12.07-4.62c-7.94,0-14,7-14,15.21v.12c0,8.87,5.85,15.39,14.66,15.39A17.6,17.6,0,0,0,278,76V68H267V61.37h18.35v18.1a27.49,27.49,0,0,1-18,6.71C253.85,86.18,245,76.58,245,64Z"/><path class="cls-5" d="M310.44,42h7l19,43.41h-8L324.05,75H303.67l-4.43,10.41h-7.76Zm10.84,26.3-7.45-17.24-7.39,17.24Z"/><path class="cls-5" d="M344.25,42.34h7.57V85.45h-7.57Z"/><path class="cls-5" d="M363.34,42.34h7l23.09,29.8V42.34h7.45V85.45h-6.34L370.79,54.78V85.45h-7.45Z"/><path class="cls-5" d="M412,42.34h32v6.77H419.56V60.32h21.61V67.1H419.56V78.67h24.69v6.77H412Z"/></g></g></svg>